G75*
%MOIN*%
%OFA0B0*%
%FSLAX25Y25*%
%IPPOS*%
%LPD*%
%AMOC8*
5,1,8,0,0,1.08239X$1,22.5*
%
%ADD10C,0.00000*%
%ADD11C,0.00500*%
%ADD12C,0.00200*%
%ADD13C,0.01200*%
%ADD14C,0.00300*%
D10*
X0001300Y0001300D02*
X0001300Y0131800D01*
X0196300Y0131800D01*
X0196300Y0001300D01*
X0001300Y0001300D01*
X0010800Y0116300D02*
X0010802Y0116448D01*
X0010808Y0116596D01*
X0010818Y0116744D01*
X0010832Y0116892D01*
X0010850Y0117039D01*
X0010872Y0117186D01*
X0010898Y0117332D01*
X0010927Y0117477D01*
X0010961Y0117622D01*
X0010999Y0117765D01*
X0011040Y0117908D01*
X0011085Y0118049D01*
X0011135Y0118189D01*
X0011187Y0118327D01*
X0011244Y0118465D01*
X0011304Y0118600D01*
X0011368Y0118734D01*
X0011435Y0118866D01*
X0011506Y0118996D01*
X0011581Y0119125D01*
X0011659Y0119251D01*
X0011740Y0119375D01*
X0011824Y0119497D01*
X0011912Y0119616D01*
X0012003Y0119733D01*
X0012097Y0119848D01*
X0012195Y0119960D01*
X0012295Y0120069D01*
X0012398Y0120176D01*
X0012504Y0120280D01*
X0012612Y0120381D01*
X0012724Y0120479D01*
X0012838Y0120574D01*
X0012954Y0120665D01*
X0013073Y0120754D01*
X0013194Y0120839D01*
X0013318Y0120921D01*
X0013444Y0121000D01*
X0013571Y0121075D01*
X0013701Y0121147D01*
X0013833Y0121216D01*
X0013966Y0121280D01*
X0014101Y0121341D01*
X0014238Y0121399D01*
X0014376Y0121453D01*
X0014516Y0121503D01*
X0014657Y0121549D01*
X0014799Y0121591D01*
X0014942Y0121630D01*
X0015086Y0121664D01*
X0015232Y0121695D01*
X0015377Y0121722D01*
X0015524Y0121745D01*
X0015671Y0121764D01*
X0015819Y0121779D01*
X0015966Y0121790D01*
X0016115Y0121797D01*
X0016263Y0121800D01*
X0016411Y0121799D01*
X0016559Y0121794D01*
X0016707Y0121785D01*
X0016855Y0121772D01*
X0017003Y0121755D01*
X0017149Y0121734D01*
X0017296Y0121709D01*
X0017441Y0121680D01*
X0017586Y0121648D01*
X0017729Y0121611D01*
X0017872Y0121571D01*
X0018014Y0121526D01*
X0018154Y0121478D01*
X0018293Y0121426D01*
X0018430Y0121371D01*
X0018566Y0121311D01*
X0018701Y0121248D01*
X0018833Y0121182D01*
X0018964Y0121112D01*
X0019093Y0121038D01*
X0019219Y0120961D01*
X0019344Y0120881D01*
X0019466Y0120797D01*
X0019587Y0120710D01*
X0019704Y0120620D01*
X0019820Y0120526D01*
X0019932Y0120430D01*
X0020042Y0120331D01*
X0020150Y0120228D01*
X0020254Y0120123D01*
X0020356Y0120015D01*
X0020454Y0119904D01*
X0020550Y0119791D01*
X0020643Y0119675D01*
X0020732Y0119557D01*
X0020818Y0119436D01*
X0020901Y0119313D01*
X0020981Y0119188D01*
X0021057Y0119061D01*
X0021130Y0118931D01*
X0021199Y0118800D01*
X0021264Y0118667D01*
X0021327Y0118533D01*
X0021385Y0118396D01*
X0021440Y0118258D01*
X0021490Y0118119D01*
X0021538Y0117978D01*
X0021581Y0117837D01*
X0021621Y0117694D01*
X0021656Y0117550D01*
X0021688Y0117405D01*
X0021716Y0117259D01*
X0021740Y0117113D01*
X0021760Y0116966D01*
X0021776Y0116818D01*
X0021788Y0116671D01*
X0021796Y0116522D01*
X0021800Y0116374D01*
X0021800Y0116226D01*
X0021796Y0116078D01*
X0021788Y0115929D01*
X0021776Y0115782D01*
X0021760Y0115634D01*
X0021740Y0115487D01*
X0021716Y0115341D01*
X0021688Y0115195D01*
X0021656Y0115050D01*
X0021621Y0114906D01*
X0021581Y0114763D01*
X0021538Y0114622D01*
X0021490Y0114481D01*
X0021440Y0114342D01*
X0021385Y0114204D01*
X0021327Y0114067D01*
X0021264Y0113933D01*
X0021199Y0113800D01*
X0021130Y0113669D01*
X0021057Y0113539D01*
X0020981Y0113412D01*
X0020901Y0113287D01*
X0020818Y0113164D01*
X0020732Y0113043D01*
X0020643Y0112925D01*
X0020550Y0112809D01*
X0020454Y0112696D01*
X0020356Y0112585D01*
X0020254Y0112477D01*
X0020150Y0112372D01*
X0020042Y0112269D01*
X0019932Y0112170D01*
X0019820Y0112074D01*
X0019704Y0111980D01*
X0019587Y0111890D01*
X0019466Y0111803D01*
X0019344Y0111719D01*
X0019219Y0111639D01*
X0019093Y0111562D01*
X0018964Y0111488D01*
X0018833Y0111418D01*
X0018701Y0111352D01*
X0018566Y0111289D01*
X0018430Y0111229D01*
X0018293Y0111174D01*
X0018154Y0111122D01*
X0018014Y0111074D01*
X0017872Y0111029D01*
X0017729Y0110989D01*
X0017586Y0110952D01*
X0017441Y0110920D01*
X0017296Y0110891D01*
X0017149Y0110866D01*
X0017003Y0110845D01*
X0016855Y0110828D01*
X0016707Y0110815D01*
X0016559Y0110806D01*
X0016411Y0110801D01*
X0016263Y0110800D01*
X0016115Y0110803D01*
X0015966Y0110810D01*
X0015819Y0110821D01*
X0015671Y0110836D01*
X0015524Y0110855D01*
X0015377Y0110878D01*
X0015232Y0110905D01*
X0015086Y0110936D01*
X0014942Y0110970D01*
X0014799Y0111009D01*
X0014657Y0111051D01*
X0014516Y0111097D01*
X0014376Y0111147D01*
X0014238Y0111201D01*
X0014101Y0111259D01*
X0013966Y0111320D01*
X0013833Y0111384D01*
X0013701Y0111453D01*
X0013571Y0111525D01*
X0013444Y0111600D01*
X0013318Y0111679D01*
X0013194Y0111761D01*
X0013073Y0111846D01*
X0012954Y0111935D01*
X0012838Y0112026D01*
X0012724Y0112121D01*
X0012612Y0112219D01*
X0012504Y0112320D01*
X0012398Y0112424D01*
X0012295Y0112531D01*
X0012195Y0112640D01*
X0012097Y0112752D01*
X0012003Y0112867D01*
X0011912Y0112984D01*
X0011824Y0113103D01*
X0011740Y0113225D01*
X0011659Y0113349D01*
X0011581Y0113475D01*
X0011506Y0113604D01*
X0011435Y0113734D01*
X0011368Y0113866D01*
X0011304Y0114000D01*
X0011244Y0114135D01*
X0011187Y0114273D01*
X0011135Y0114411D01*
X0011085Y0114551D01*
X0011040Y0114692D01*
X0010999Y0114835D01*
X0010961Y0114978D01*
X0010927Y0115123D01*
X0010898Y0115268D01*
X0010872Y0115414D01*
X0010850Y0115561D01*
X0010832Y0115708D01*
X0010818Y0115856D01*
X0010808Y0116004D01*
X0010802Y0116152D01*
X0010800Y0116300D01*
X0170800Y0018800D02*
X0170802Y0018948D01*
X0170808Y0019096D01*
X0170818Y0019244D01*
X0170832Y0019392D01*
X0170850Y0019539D01*
X0170872Y0019686D01*
X0170898Y0019832D01*
X0170927Y0019977D01*
X0170961Y0020122D01*
X0170999Y0020265D01*
X0171040Y0020408D01*
X0171085Y0020549D01*
X0171135Y0020689D01*
X0171187Y0020827D01*
X0171244Y0020965D01*
X0171304Y0021100D01*
X0171368Y0021234D01*
X0171435Y0021366D01*
X0171506Y0021496D01*
X0171581Y0021625D01*
X0171659Y0021751D01*
X0171740Y0021875D01*
X0171824Y0021997D01*
X0171912Y0022116D01*
X0172003Y0022233D01*
X0172097Y0022348D01*
X0172195Y0022460D01*
X0172295Y0022569D01*
X0172398Y0022676D01*
X0172504Y0022780D01*
X0172612Y0022881D01*
X0172724Y0022979D01*
X0172838Y0023074D01*
X0172954Y0023165D01*
X0173073Y0023254D01*
X0173194Y0023339D01*
X0173318Y0023421D01*
X0173444Y0023500D01*
X0173571Y0023575D01*
X0173701Y0023647D01*
X0173833Y0023716D01*
X0173966Y0023780D01*
X0174101Y0023841D01*
X0174238Y0023899D01*
X0174376Y0023953D01*
X0174516Y0024003D01*
X0174657Y0024049D01*
X0174799Y0024091D01*
X0174942Y0024130D01*
X0175086Y0024164D01*
X0175232Y0024195D01*
X0175377Y0024222D01*
X0175524Y0024245D01*
X0175671Y0024264D01*
X0175819Y0024279D01*
X0175966Y0024290D01*
X0176115Y0024297D01*
X0176263Y0024300D01*
X0176411Y0024299D01*
X0176559Y0024294D01*
X0176707Y0024285D01*
X0176855Y0024272D01*
X0177003Y0024255D01*
X0177149Y0024234D01*
X0177296Y0024209D01*
X0177441Y0024180D01*
X0177586Y0024148D01*
X0177729Y0024111D01*
X0177872Y0024071D01*
X0178014Y0024026D01*
X0178154Y0023978D01*
X0178293Y0023926D01*
X0178430Y0023871D01*
X0178566Y0023811D01*
X0178701Y0023748D01*
X0178833Y0023682D01*
X0178964Y0023612D01*
X0179093Y0023538D01*
X0179219Y0023461D01*
X0179344Y0023381D01*
X0179466Y0023297D01*
X0179587Y0023210D01*
X0179704Y0023120D01*
X0179820Y0023026D01*
X0179932Y0022930D01*
X0180042Y0022831D01*
X0180150Y0022728D01*
X0180254Y0022623D01*
X0180356Y0022515D01*
X0180454Y0022404D01*
X0180550Y0022291D01*
X0180643Y0022175D01*
X0180732Y0022057D01*
X0180818Y0021936D01*
X0180901Y0021813D01*
X0180981Y0021688D01*
X0181057Y0021561D01*
X0181130Y0021431D01*
X0181199Y0021300D01*
X0181264Y0021167D01*
X0181327Y0021033D01*
X0181385Y0020896D01*
X0181440Y0020758D01*
X0181490Y0020619D01*
X0181538Y0020478D01*
X0181581Y0020337D01*
X0181621Y0020194D01*
X0181656Y0020050D01*
X0181688Y0019905D01*
X0181716Y0019759D01*
X0181740Y0019613D01*
X0181760Y0019466D01*
X0181776Y0019318D01*
X0181788Y0019171D01*
X0181796Y0019022D01*
X0181800Y0018874D01*
X0181800Y0018726D01*
X0181796Y0018578D01*
X0181788Y0018429D01*
X0181776Y0018282D01*
X0181760Y0018134D01*
X0181740Y0017987D01*
X0181716Y0017841D01*
X0181688Y0017695D01*
X0181656Y0017550D01*
X0181621Y0017406D01*
X0181581Y0017263D01*
X0181538Y0017122D01*
X0181490Y0016981D01*
X0181440Y0016842D01*
X0181385Y0016704D01*
X0181327Y0016567D01*
X0181264Y0016433D01*
X0181199Y0016300D01*
X0181130Y0016169D01*
X0181057Y0016039D01*
X0180981Y0015912D01*
X0180901Y0015787D01*
X0180818Y0015664D01*
X0180732Y0015543D01*
X0180643Y0015425D01*
X0180550Y0015309D01*
X0180454Y0015196D01*
X0180356Y0015085D01*
X0180254Y0014977D01*
X0180150Y0014872D01*
X0180042Y0014769D01*
X0179932Y0014670D01*
X0179820Y0014574D01*
X0179704Y0014480D01*
X0179587Y0014390D01*
X0179466Y0014303D01*
X0179344Y0014219D01*
X0179219Y0014139D01*
X0179093Y0014062D01*
X0178964Y0013988D01*
X0178833Y0013918D01*
X0178701Y0013852D01*
X0178566Y0013789D01*
X0178430Y0013729D01*
X0178293Y0013674D01*
X0178154Y0013622D01*
X0178014Y0013574D01*
X0177872Y0013529D01*
X0177729Y0013489D01*
X0177586Y0013452D01*
X0177441Y0013420D01*
X0177296Y0013391D01*
X0177149Y0013366D01*
X0177003Y0013345D01*
X0176855Y0013328D01*
X0176707Y0013315D01*
X0176559Y0013306D01*
X0176411Y0013301D01*
X0176263Y0013300D01*
X0176115Y0013303D01*
X0175966Y0013310D01*
X0175819Y0013321D01*
X0175671Y0013336D01*
X0175524Y0013355D01*
X0175377Y0013378D01*
X0175232Y0013405D01*
X0175086Y0013436D01*
X0174942Y0013470D01*
X0174799Y0013509D01*
X0174657Y0013551D01*
X0174516Y0013597D01*
X0174376Y0013647D01*
X0174238Y0013701D01*
X0174101Y0013759D01*
X0173966Y0013820D01*
X0173833Y0013884D01*
X0173701Y0013953D01*
X0173571Y0014025D01*
X0173444Y0014100D01*
X0173318Y0014179D01*
X0173194Y0014261D01*
X0173073Y0014346D01*
X0172954Y0014435D01*
X0172838Y0014526D01*
X0172724Y0014621D01*
X0172612Y0014719D01*
X0172504Y0014820D01*
X0172398Y0014924D01*
X0172295Y0015031D01*
X0172195Y0015140D01*
X0172097Y0015252D01*
X0172003Y0015367D01*
X0171912Y0015484D01*
X0171824Y0015603D01*
X0171740Y0015725D01*
X0171659Y0015849D01*
X0171581Y0015975D01*
X0171506Y0016104D01*
X0171435Y0016234D01*
X0171368Y0016366D01*
X0171304Y0016500D01*
X0171244Y0016635D01*
X0171187Y0016773D01*
X0171135Y0016911D01*
X0171085Y0017051D01*
X0171040Y0017192D01*
X0170999Y0017335D01*
X0170961Y0017478D01*
X0170927Y0017623D01*
X0170898Y0017768D01*
X0170872Y0017914D01*
X0170850Y0018061D01*
X0170832Y0018208D01*
X0170818Y0018356D01*
X0170808Y0018504D01*
X0170802Y0018652D01*
X0170800Y0018800D01*
D11*
X0043800Y0047300D02*
X0043800Y0053800D01*
X0043800Y0060300D01*
X0043800Y0061300D01*
X0118114Y0124050D02*
X0120149Y0122015D01*
X0119132Y0124050D02*
X0118114Y0124050D01*
X0118114Y0125068D01*
X0119132Y0125068D01*
X0119132Y0124050D01*
X0122157Y0124050D02*
X0122157Y0127103D01*
X0123174Y0128120D01*
X0126227Y0128120D01*
X0126227Y0124050D01*
X0128234Y0124050D02*
X0128234Y0127103D01*
X0129251Y0128120D01*
X0132304Y0128120D01*
X0132304Y0124050D01*
X0134311Y0124050D02*
X0137363Y0124050D01*
X0138381Y0125068D01*
X0137363Y0126085D01*
X0134311Y0126085D01*
X0134311Y0127103D02*
X0134311Y0124050D01*
X0134311Y0127103D02*
X0135328Y0128120D01*
X0137363Y0128120D01*
X0140388Y0127103D02*
X0140388Y0124050D01*
X0142423Y0124050D02*
X0142423Y0127103D01*
X0141406Y0128120D01*
X0140388Y0127103D01*
X0142423Y0127103D02*
X0143441Y0128120D01*
X0144458Y0128120D01*
X0144458Y0124050D01*
X0146465Y0124050D02*
X0146465Y0128120D01*
X0150535Y0128120D02*
X0150535Y0125068D01*
X0149518Y0124050D01*
X0146465Y0124050D01*
X0152542Y0126085D02*
X0152542Y0127103D01*
X0153560Y0128120D01*
X0155595Y0128120D01*
X0156613Y0127103D01*
X0156613Y0125068D01*
X0155595Y0124050D01*
X0153560Y0124050D01*
X0152542Y0126085D02*
X0156613Y0126085D01*
X0158620Y0124050D02*
X0158620Y0130155D01*
X0162690Y0130155D02*
X0158620Y0124050D01*
X0162690Y0124050D02*
X0162690Y0130155D01*
X0170774Y0127103D02*
X0170774Y0124050D01*
X0174844Y0124050D02*
X0174844Y0130155D01*
X0173827Y0128120D02*
X0171792Y0128120D01*
X0170774Y0127103D01*
X0173827Y0128120D02*
X0174844Y0127103D01*
X0176861Y0128120D02*
X0178896Y0128120D01*
X0177878Y0129138D02*
X0177878Y0125068D01*
X0176861Y0124050D01*
X0180903Y0126085D02*
X0184973Y0126085D01*
X0184973Y0125068D02*
X0184973Y0127103D01*
X0183955Y0128120D01*
X0181920Y0128120D01*
X0180903Y0127103D01*
X0180903Y0126085D01*
X0181920Y0124050D02*
X0183955Y0124050D01*
X0184973Y0125068D01*
X0186980Y0125068D02*
X0186980Y0126085D01*
X0187997Y0127103D01*
X0190032Y0127103D01*
X0191050Y0128120D01*
X0191050Y0129138D01*
X0190032Y0130155D01*
X0187997Y0130155D01*
X0186980Y0129138D01*
X0186980Y0125068D02*
X0187997Y0124050D01*
X0190032Y0124050D01*
X0191050Y0125068D01*
X0110021Y0124050D02*
X0105951Y0124050D01*
X0103944Y0125068D02*
X0102926Y0126085D01*
X0099873Y0126085D01*
X0099873Y0127103D02*
X0099873Y0124050D01*
X0102926Y0124050D01*
X0103944Y0125068D01*
X0102926Y0128120D02*
X0100891Y0128120D01*
X0099873Y0127103D01*
X0097866Y0128120D02*
X0097866Y0125068D01*
X0096849Y0124050D01*
X0095831Y0125068D01*
X0094814Y0124050D01*
X0093796Y0125068D01*
X0093796Y0128120D01*
X0091789Y0128120D02*
X0091789Y0124050D01*
X0091789Y0126085D02*
X0089754Y0128120D01*
X0088737Y0128120D01*
X0086725Y0127103D02*
X0085707Y0128120D01*
X0083672Y0128120D01*
X0082655Y0127103D01*
X0082655Y0126085D01*
X0086725Y0126085D01*
X0086725Y0125068D02*
X0086725Y0127103D01*
X0086725Y0125068D02*
X0085707Y0124050D01*
X0083672Y0124050D01*
X0080648Y0124050D02*
X0080648Y0128120D01*
X0077595Y0128120D01*
X0076578Y0127103D01*
X0076578Y0124050D01*
X0074571Y0125068D02*
X0073553Y0124050D01*
X0070500Y0124050D01*
X0068493Y0125068D02*
X0068493Y0127103D01*
X0067476Y0128120D01*
X0065441Y0128120D01*
X0064423Y0127103D01*
X0064423Y0126085D01*
X0068493Y0126085D01*
X0068493Y0125068D02*
X0067476Y0124050D01*
X0065441Y0124050D01*
X0070500Y0128120D02*
X0073553Y0128120D01*
X0074571Y0127103D01*
X0074571Y0125068D01*
X0056339Y0125068D02*
X0055321Y0124050D01*
X0053286Y0124050D01*
X0052269Y0125068D01*
X0050262Y0126085D02*
X0048227Y0128120D01*
X0047209Y0128120D01*
X0045197Y0127103D02*
X0045197Y0125068D01*
X0044180Y0124050D01*
X0042145Y0124050D01*
X0041127Y0125068D01*
X0041127Y0127103D01*
X0042145Y0128120D01*
X0044180Y0128120D01*
X0045197Y0127103D01*
X0050262Y0128120D02*
X0050262Y0124050D01*
X0056339Y0125068D02*
X0056339Y0129138D01*
X0055321Y0130155D01*
X0053286Y0130155D01*
X0052269Y0129138D01*
X0039120Y0128120D02*
X0039120Y0125068D01*
X0038103Y0124050D01*
X0037085Y0125068D01*
X0036068Y0124050D01*
X0035050Y0125068D01*
X0035050Y0128120D01*
X0033043Y0130155D02*
X0032026Y0130155D01*
X0032026Y0124050D01*
X0033043Y0124050D02*
X0031008Y0124050D01*
X0110021Y0124050D02*
X0110021Y0130155D01*
D12*
X0031522Y0062102D02*
X0031522Y0059900D01*
X0032623Y0059900D01*
X0032990Y0060267D01*
X0032990Y0061001D01*
X0032623Y0061368D01*
X0031522Y0061368D01*
X0030780Y0061001D02*
X0030413Y0061368D01*
X0029679Y0061368D01*
X0029312Y0061001D01*
X0029312Y0060634D01*
X0030780Y0060634D01*
X0030780Y0060267D02*
X0030780Y0061001D01*
X0030780Y0060267D02*
X0030413Y0059900D01*
X0029679Y0059900D01*
X0028570Y0059900D02*
X0027836Y0059900D01*
X0028203Y0059900D02*
X0028203Y0062102D01*
X0028570Y0062102D01*
X0033732Y0061001D02*
X0034099Y0061368D01*
X0034833Y0061368D01*
X0035200Y0061001D01*
X0035200Y0060267D01*
X0034833Y0059900D01*
X0034099Y0059900D01*
X0033732Y0060267D01*
X0033732Y0061001D01*
X0030123Y0056469D02*
X0030123Y0056102D01*
X0030123Y0055368D02*
X0030123Y0053900D01*
X0030490Y0053900D02*
X0029756Y0053900D01*
X0029017Y0053900D02*
X0028283Y0053900D01*
X0028650Y0053900D02*
X0028650Y0056102D01*
X0029017Y0056102D01*
X0030123Y0055368D02*
X0030490Y0055368D01*
X0031232Y0055001D02*
X0031232Y0053900D01*
X0032333Y0053900D01*
X0032700Y0054267D01*
X0032333Y0054634D01*
X0031232Y0054634D01*
X0031232Y0055001D02*
X0031599Y0055368D01*
X0032333Y0055368D01*
X0027544Y0055368D02*
X0027544Y0053900D01*
X0027544Y0054634D02*
X0026810Y0055368D01*
X0026443Y0055368D01*
X0025702Y0055001D02*
X0025702Y0054267D01*
X0025335Y0053900D01*
X0024601Y0053900D01*
X0024234Y0054267D01*
X0024234Y0055001D01*
X0024601Y0055368D01*
X0025335Y0055368D01*
X0025702Y0055001D01*
X0023492Y0054267D02*
X0023125Y0054634D01*
X0022024Y0054634D01*
X0022024Y0055001D02*
X0022024Y0053900D01*
X0023125Y0053900D01*
X0023492Y0054267D01*
X0023125Y0055368D02*
X0022391Y0055368D01*
X0022024Y0055001D01*
X0021282Y0055001D02*
X0021282Y0054267D01*
X0020915Y0053900D01*
X0019814Y0053900D01*
X0019814Y0056102D01*
X0019814Y0055368D02*
X0020915Y0055368D01*
X0021282Y0055001D01*
X0020256Y0051102D02*
X0019889Y0051102D01*
X0019889Y0048900D01*
X0020256Y0048900D02*
X0019522Y0048900D01*
X0020998Y0049267D02*
X0020998Y0050001D01*
X0021364Y0050368D01*
X0022098Y0050368D01*
X0022465Y0050001D01*
X0022465Y0049267D01*
X0022098Y0048900D01*
X0021364Y0048900D01*
X0020998Y0049267D01*
X0023206Y0050368D02*
X0023573Y0050368D01*
X0024307Y0049634D01*
X0024307Y0048900D02*
X0024307Y0050368D01*
X0025046Y0050368D02*
X0025780Y0050368D01*
X0025413Y0050735D02*
X0025413Y0049267D01*
X0025046Y0048900D01*
X0026522Y0048900D02*
X0026522Y0050001D01*
X0026889Y0050368D01*
X0027990Y0050368D01*
X0027990Y0048900D01*
X0028732Y0049267D02*
X0028732Y0050001D01*
X0029099Y0050368D01*
X0029833Y0050368D01*
X0030200Y0050001D01*
X0030200Y0049267D01*
X0029833Y0048900D01*
X0029099Y0048900D01*
X0028732Y0049267D01*
X0027700Y0045368D02*
X0027700Y0044267D01*
X0027333Y0043900D01*
X0026232Y0043900D01*
X0026232Y0043533D02*
X0026599Y0043166D01*
X0026966Y0043166D01*
X0026232Y0043533D02*
X0026232Y0045368D01*
X0025490Y0045001D02*
X0025123Y0045368D01*
X0024022Y0045368D01*
X0023280Y0045368D02*
X0022546Y0045368D01*
X0022913Y0045735D02*
X0022913Y0044267D01*
X0022546Y0043900D01*
X0021807Y0044267D02*
X0021807Y0045001D01*
X0021440Y0045368D01*
X0020706Y0045368D01*
X0020339Y0045001D01*
X0020339Y0044634D01*
X0021807Y0044634D01*
X0021807Y0044267D02*
X0021440Y0043900D01*
X0020706Y0043900D01*
X0019597Y0043900D02*
X0019597Y0045368D01*
X0019230Y0045368D01*
X0018863Y0045001D01*
X0018496Y0045368D01*
X0018129Y0045001D01*
X0018129Y0043900D01*
X0018863Y0043900D02*
X0018863Y0045001D01*
X0017387Y0045001D02*
X0017020Y0045368D01*
X0015919Y0045368D01*
X0016286Y0044634D02*
X0017020Y0044634D01*
X0017387Y0045001D01*
X0017387Y0043900D02*
X0016286Y0043900D01*
X0015919Y0044267D01*
X0016286Y0044634D01*
X0024022Y0044267D02*
X0024389Y0043900D01*
X0025490Y0043900D01*
X0025123Y0044634D02*
X0025490Y0045001D01*
X0025123Y0044634D02*
X0024389Y0044634D01*
X0024022Y0044267D01*
X0051838Y0033468D02*
X0052205Y0033468D01*
X0052939Y0032734D01*
X0052939Y0032000D02*
X0052939Y0033468D01*
X0053681Y0033101D02*
X0053681Y0032734D01*
X0055148Y0032734D01*
X0055148Y0033101D02*
X0054781Y0033468D01*
X0054047Y0033468D01*
X0053681Y0033101D01*
X0054047Y0032000D02*
X0054781Y0032000D01*
X0055148Y0032367D01*
X0055148Y0033101D01*
X0055890Y0033468D02*
X0056991Y0033468D01*
X0057358Y0033101D01*
X0057358Y0032367D01*
X0056991Y0032000D01*
X0055890Y0032000D01*
X0058100Y0032000D02*
X0058100Y0033101D01*
X0058467Y0033468D01*
X0059568Y0033468D01*
X0059568Y0032000D01*
X0060310Y0032000D02*
X0061411Y0032000D01*
X0061778Y0032367D01*
X0061411Y0032734D01*
X0060310Y0032734D01*
X0060310Y0033101D02*
X0060310Y0032000D01*
X0060310Y0033101D02*
X0060677Y0033468D01*
X0061411Y0033468D01*
X0062520Y0033468D02*
X0063621Y0033468D01*
X0063988Y0033101D01*
X0063988Y0032367D01*
X0063621Y0032000D01*
X0062520Y0032000D01*
X0062883Y0029868D02*
X0062883Y0028400D01*
X0062883Y0029134D02*
X0062149Y0029868D01*
X0061782Y0029868D01*
X0061041Y0029868D02*
X0061041Y0028400D01*
X0060307Y0028400D02*
X0060307Y0029501D01*
X0059940Y0029868D01*
X0059573Y0029501D01*
X0059573Y0028400D01*
X0058832Y0028400D02*
X0058465Y0028400D01*
X0058465Y0028767D01*
X0058832Y0028767D01*
X0058832Y0028400D01*
X0060307Y0029501D02*
X0060674Y0029868D01*
X0061041Y0029868D01*
X0063625Y0029501D02*
X0063625Y0028400D01*
X0064726Y0028400D01*
X0065093Y0028767D01*
X0064726Y0029134D01*
X0063625Y0029134D01*
X0063625Y0029501D02*
X0063992Y0029868D01*
X0064726Y0029868D01*
X0065835Y0029501D02*
X0065835Y0028400D01*
X0065835Y0029501D02*
X0066202Y0029868D01*
X0066936Y0029868D01*
X0067303Y0029501D01*
X0067303Y0030602D02*
X0067303Y0028400D01*
X0069144Y0027002D02*
X0069144Y0024800D01*
X0068043Y0024800D01*
X0067676Y0025167D01*
X0067676Y0025901D01*
X0068043Y0026268D01*
X0069144Y0026268D01*
X0066934Y0025901D02*
X0066934Y0025167D01*
X0066567Y0024800D01*
X0065834Y0024800D01*
X0065467Y0025534D02*
X0066934Y0025534D01*
X0066934Y0025901D02*
X0066567Y0026268D01*
X0065834Y0026268D01*
X0065467Y0025901D01*
X0065467Y0025534D01*
X0062148Y0023769D02*
X0062148Y0023402D01*
X0062148Y0022668D02*
X0062148Y0021200D01*
X0062515Y0021200D02*
X0061781Y0021200D01*
X0061041Y0021567D02*
X0060674Y0021934D01*
X0059574Y0021934D01*
X0059574Y0022301D02*
X0059574Y0021200D01*
X0060674Y0021200D01*
X0061041Y0021567D01*
X0060674Y0022668D02*
X0059941Y0022668D01*
X0059574Y0022301D01*
X0062148Y0022668D02*
X0062515Y0022668D01*
X0063257Y0022301D02*
X0063257Y0021200D01*
X0063257Y0022301D02*
X0063624Y0022668D01*
X0064725Y0022668D01*
X0064725Y0021200D01*
X0065465Y0022668D02*
X0065832Y0022668D01*
X0066566Y0021934D01*
X0066566Y0021200D02*
X0066566Y0022668D01*
X0067308Y0022301D02*
X0067675Y0022668D01*
X0068409Y0022668D01*
X0068776Y0022301D01*
X0068776Y0021567D01*
X0068409Y0021200D01*
X0067675Y0021200D01*
X0067308Y0021567D01*
X0067308Y0022301D01*
X0069515Y0022301D02*
X0070249Y0022301D01*
X0069882Y0023035D02*
X0069882Y0021200D01*
X0070989Y0021200D02*
X0071723Y0021200D01*
X0071356Y0021200D02*
X0071356Y0022668D01*
X0071723Y0022668D01*
X0071356Y0023402D02*
X0071356Y0023769D01*
X0072463Y0024800D02*
X0072096Y0025167D01*
X0072096Y0025901D01*
X0072463Y0026268D01*
X0073197Y0026268D01*
X0073564Y0025901D01*
X0073564Y0025167D01*
X0073197Y0024800D01*
X0072463Y0024800D01*
X0072829Y0023402D02*
X0072829Y0021200D01*
X0073196Y0021200D02*
X0072462Y0021200D01*
X0073938Y0021200D02*
X0073938Y0022301D01*
X0074305Y0022668D01*
X0075039Y0022668D01*
X0075039Y0021934D02*
X0073938Y0021934D01*
X0073938Y0021200D02*
X0075039Y0021200D01*
X0075406Y0021567D01*
X0075039Y0021934D01*
X0076148Y0021567D02*
X0076515Y0021200D01*
X0077249Y0021200D01*
X0077616Y0021567D01*
X0077616Y0023035D01*
X0077249Y0023402D01*
X0076515Y0023402D01*
X0076148Y0023035D01*
X0077989Y0024433D02*
X0077989Y0026268D01*
X0079090Y0026268D01*
X0079457Y0025901D01*
X0079457Y0025167D01*
X0079090Y0024800D01*
X0077989Y0024800D01*
X0077989Y0024433D02*
X0078356Y0024066D01*
X0078723Y0024066D01*
X0080199Y0024800D02*
X0080199Y0025901D01*
X0080566Y0026268D01*
X0081667Y0026268D01*
X0081667Y0024800D01*
X0082406Y0024800D02*
X0083140Y0024800D01*
X0082773Y0024800D02*
X0082773Y0026268D01*
X0083140Y0026268D01*
X0082773Y0027002D02*
X0082773Y0027369D01*
X0083142Y0028400D02*
X0082041Y0028400D01*
X0082041Y0030602D01*
X0082041Y0029868D02*
X0083142Y0029868D01*
X0083509Y0029501D01*
X0083509Y0028767D01*
X0083142Y0028400D01*
X0084250Y0028767D02*
X0084250Y0029501D01*
X0084617Y0029868D01*
X0085351Y0029868D01*
X0085718Y0029501D01*
X0085718Y0028767D01*
X0085351Y0028400D01*
X0084617Y0028400D01*
X0084250Y0028767D01*
X0086459Y0029868D02*
X0086826Y0029868D01*
X0087560Y0029134D01*
X0087560Y0028400D02*
X0087560Y0029868D01*
X0088302Y0029501D02*
X0088302Y0028767D01*
X0088669Y0028400D01*
X0089770Y0028400D01*
X0089770Y0027666D02*
X0089770Y0029868D01*
X0088669Y0029868D01*
X0088302Y0029501D01*
X0090512Y0029501D02*
X0090512Y0029134D01*
X0091980Y0029134D01*
X0091980Y0028767D02*
X0091980Y0029501D01*
X0091613Y0029868D01*
X0090879Y0029868D01*
X0090512Y0029501D01*
X0090879Y0028400D02*
X0091613Y0028400D01*
X0091980Y0028767D01*
X0092720Y0029868D02*
X0093087Y0029868D01*
X0093821Y0029134D01*
X0093821Y0028400D02*
X0093821Y0029868D01*
X0094194Y0032000D02*
X0093827Y0032367D01*
X0093827Y0033101D01*
X0094194Y0033468D01*
X0094928Y0033468D01*
X0095295Y0033101D01*
X0095295Y0032367D01*
X0094928Y0032000D01*
X0094194Y0032000D01*
X0093085Y0032000D02*
X0093085Y0033468D01*
X0093085Y0032734D02*
X0092351Y0033468D01*
X0091984Y0033468D01*
X0091243Y0033468D02*
X0090142Y0033468D01*
X0089775Y0033101D01*
X0089775Y0032000D01*
X0089033Y0032000D02*
X0088299Y0032000D01*
X0088666Y0032000D02*
X0088666Y0033468D01*
X0089033Y0033468D01*
X0088666Y0034202D02*
X0088666Y0034569D01*
X0088669Y0035600D02*
X0088302Y0035967D01*
X0088669Y0036334D01*
X0089403Y0036334D01*
X0089770Y0036701D01*
X0089403Y0037068D01*
X0088302Y0037068D01*
X0088669Y0035600D02*
X0089770Y0035600D01*
X0090512Y0035600D02*
X0090512Y0036701D01*
X0090879Y0037068D01*
X0091980Y0037068D01*
X0091980Y0035600D01*
X0092719Y0035600D02*
X0093453Y0035600D01*
X0093086Y0035600D02*
X0093086Y0037068D01*
X0093453Y0037068D01*
X0093086Y0037802D02*
X0093086Y0038169D01*
X0093089Y0039200D02*
X0092722Y0039567D01*
X0092722Y0039934D01*
X0093089Y0040301D01*
X0094190Y0040301D01*
X0094190Y0039567D01*
X0093823Y0039200D01*
X0093089Y0039200D01*
X0091980Y0039567D02*
X0091613Y0039200D01*
X0090879Y0039200D01*
X0090512Y0039567D01*
X0090512Y0040301D01*
X0090879Y0040668D01*
X0091246Y0040668D01*
X0091980Y0040301D01*
X0091980Y0041402D01*
X0090512Y0041402D01*
X0092722Y0041402D02*
X0093456Y0041035D01*
X0094190Y0040301D01*
X0097141Y0039200D02*
X0097141Y0041402D01*
X0098609Y0041402D02*
X0097141Y0039200D01*
X0098609Y0039200D02*
X0098609Y0041402D01*
X0099351Y0041035D02*
X0099351Y0039567D01*
X0099718Y0039200D01*
X0100452Y0039200D01*
X0100819Y0039567D01*
X0100819Y0041035D01*
X0100452Y0041402D01*
X0099718Y0041402D01*
X0099351Y0041035D01*
X0101559Y0041402D02*
X0102293Y0041402D01*
X0101926Y0041402D02*
X0101926Y0039200D01*
X0102293Y0039200D02*
X0101559Y0039200D01*
X0103768Y0039200D02*
X0103768Y0041402D01*
X0104502Y0041402D02*
X0103034Y0041402D01*
X0105242Y0041402D02*
X0105976Y0041402D01*
X0105609Y0041402D02*
X0105609Y0039200D01*
X0105976Y0039200D02*
X0105242Y0039200D01*
X0106718Y0039567D02*
X0107085Y0039200D01*
X0107819Y0039200D01*
X0108186Y0039567D01*
X0108928Y0039567D02*
X0108928Y0041035D01*
X0109294Y0041402D01*
X0110028Y0041402D01*
X0110395Y0041035D01*
X0110395Y0039567D01*
X0110028Y0039200D01*
X0109294Y0039200D01*
X0108928Y0039567D01*
X0108186Y0040668D02*
X0107819Y0040301D01*
X0107085Y0040301D01*
X0106718Y0039934D01*
X0106718Y0039567D01*
X0106718Y0041035D02*
X0107085Y0041402D01*
X0107819Y0041402D01*
X0108186Y0041035D01*
X0108186Y0040668D01*
X0111137Y0041035D02*
X0111137Y0040301D01*
X0111504Y0039934D01*
X0112605Y0039934D01*
X0112605Y0039200D02*
X0112605Y0041402D01*
X0111504Y0041402D01*
X0111137Y0041035D01*
X0113347Y0041035D02*
X0113347Y0039567D01*
X0113714Y0039200D01*
X0114448Y0039200D01*
X0114815Y0039567D01*
X0114815Y0041035D01*
X0114448Y0041402D01*
X0113714Y0041402D01*
X0113347Y0041035D01*
X0115557Y0041035D02*
X0115557Y0040301D01*
X0115924Y0039934D01*
X0117025Y0039934D01*
X0116291Y0039934D02*
X0115557Y0039200D01*
X0117025Y0039200D02*
X0117025Y0041402D01*
X0115924Y0041402D01*
X0115557Y0041035D01*
X0117767Y0041035D02*
X0117767Y0040301D01*
X0118134Y0039934D01*
X0119235Y0039934D01*
X0119235Y0039200D02*
X0119235Y0041402D01*
X0118134Y0041402D01*
X0117767Y0041035D01*
X0122187Y0040668D02*
X0122187Y0039200D01*
X0122187Y0040301D02*
X0123655Y0040301D01*
X0123655Y0040668D02*
X0122921Y0041402D01*
X0122187Y0040668D01*
X0123655Y0040668D02*
X0123655Y0039200D01*
X0124394Y0039200D02*
X0125128Y0039200D01*
X0124761Y0039200D02*
X0124761Y0041402D01*
X0125128Y0041402D02*
X0124394Y0041402D01*
X0125870Y0041402D02*
X0125870Y0039200D01*
X0127338Y0041402D01*
X0127338Y0039200D01*
X0128080Y0039200D02*
X0128814Y0039934D01*
X0128447Y0039934D02*
X0129548Y0039934D01*
X0129548Y0039200D02*
X0129548Y0041402D01*
X0128447Y0041402D01*
X0128080Y0041035D01*
X0128080Y0040301D01*
X0128447Y0039934D01*
X0130290Y0039567D02*
X0130290Y0041035D01*
X0130657Y0041402D01*
X0131391Y0041402D01*
X0131758Y0041035D01*
X0131758Y0039567D01*
X0131391Y0039200D01*
X0130657Y0039200D01*
X0130290Y0039567D01*
X0130653Y0037802D02*
X0129185Y0037802D01*
X0129919Y0037802D02*
X0129919Y0035600D01*
X0128443Y0035600D02*
X0128443Y0037802D01*
X0128076Y0037068D02*
X0127342Y0037068D01*
X0126975Y0036701D01*
X0126975Y0035600D01*
X0126233Y0035600D02*
X0125499Y0035600D01*
X0125866Y0035600D02*
X0125866Y0037068D01*
X0126233Y0037068D01*
X0125866Y0037802D02*
X0125866Y0038169D01*
X0124760Y0036701D02*
X0124393Y0037068D01*
X0123292Y0037068D01*
X0123659Y0036334D02*
X0124393Y0036334D01*
X0124760Y0036701D01*
X0124760Y0035600D02*
X0123659Y0035600D01*
X0123292Y0035967D01*
X0123659Y0036334D01*
X0121446Y0034202D02*
X0121813Y0033835D01*
X0121813Y0033468D01*
X0121446Y0033101D01*
X0120712Y0033101D01*
X0120345Y0032734D01*
X0120345Y0032367D01*
X0120712Y0032000D01*
X0121446Y0032000D01*
X0121813Y0032367D01*
X0121446Y0034202D02*
X0120712Y0034202D01*
X0120345Y0033835D01*
X0119603Y0033468D02*
X0118869Y0033468D01*
X0119236Y0033835D02*
X0119236Y0032367D01*
X0118869Y0032000D01*
X0118130Y0032367D02*
X0117763Y0032734D01*
X0116662Y0032734D01*
X0116662Y0033101D02*
X0116662Y0032000D01*
X0117763Y0032000D01*
X0118130Y0032367D01*
X0117763Y0033468D02*
X0117029Y0033468D01*
X0116662Y0033101D01*
X0115920Y0033468D02*
X0115186Y0033468D01*
X0115553Y0033835D02*
X0115553Y0032367D01*
X0115186Y0032000D01*
X0114447Y0032367D02*
X0114447Y0033101D01*
X0114080Y0033468D01*
X0113346Y0033468D01*
X0112979Y0033101D01*
X0112979Y0032734D01*
X0114447Y0032734D01*
X0114447Y0032367D02*
X0114080Y0032000D01*
X0113346Y0032000D01*
X0111870Y0029868D02*
X0112237Y0029501D01*
X0112237Y0028767D01*
X0111870Y0028400D01*
X0111136Y0028400D01*
X0110769Y0028767D01*
X0110769Y0029501D01*
X0111136Y0029868D01*
X0111870Y0029868D01*
X0110027Y0029868D02*
X0110027Y0028400D01*
X0110027Y0029134D02*
X0109293Y0029868D01*
X0108926Y0029868D01*
X0108926Y0032000D02*
X0108559Y0032367D01*
X0108559Y0033101D01*
X0108926Y0033468D01*
X0109660Y0033468D01*
X0110027Y0033101D01*
X0110027Y0032367D01*
X0109660Y0032000D01*
X0108926Y0032000D01*
X0107450Y0032000D02*
X0107450Y0033835D01*
X0107083Y0034202D01*
X0107083Y0033101D02*
X0107817Y0033101D01*
X0108191Y0035600D02*
X0109292Y0035600D01*
X0109659Y0035967D01*
X0109659Y0036701D01*
X0109292Y0037068D01*
X0108191Y0037068D01*
X0107449Y0037068D02*
X0106715Y0037068D01*
X0107082Y0037435D02*
X0107082Y0035967D01*
X0106715Y0035600D01*
X0110401Y0035600D02*
X0110401Y0037068D01*
X0111869Y0037068D02*
X0111869Y0035967D01*
X0111502Y0035600D01*
X0110401Y0035600D01*
X0112611Y0035600D02*
X0113712Y0035600D01*
X0114079Y0035967D01*
X0114079Y0036701D01*
X0113712Y0037068D01*
X0112611Y0037068D01*
X0112611Y0037802D02*
X0112611Y0035600D01*
X0114821Y0035967D02*
X0114821Y0036701D01*
X0115187Y0037068D01*
X0115921Y0037068D01*
X0116288Y0036701D01*
X0116288Y0035967D01*
X0115921Y0035600D01*
X0115187Y0035600D01*
X0114821Y0035967D01*
X0117029Y0037068D02*
X0117396Y0037068D01*
X0118130Y0036334D01*
X0118130Y0035600D02*
X0118130Y0037068D01*
X0118872Y0036701D02*
X0118872Y0035967D01*
X0119239Y0035600D01*
X0120340Y0035600D01*
X0120340Y0034866D02*
X0120340Y0037068D01*
X0119239Y0037068D01*
X0118872Y0036701D01*
X0124765Y0033101D02*
X0124765Y0032734D01*
X0126233Y0032734D01*
X0126233Y0033101D02*
X0125866Y0033468D01*
X0125132Y0033468D01*
X0124765Y0033101D01*
X0125132Y0032000D02*
X0125866Y0032000D01*
X0126233Y0032367D01*
X0126233Y0033101D01*
X0126975Y0033101D02*
X0126975Y0032000D01*
X0126975Y0033101D02*
X0127342Y0033468D01*
X0128076Y0033468D01*
X0128443Y0033101D01*
X0129182Y0033468D02*
X0129916Y0033468D01*
X0129549Y0033835D02*
X0129549Y0032367D01*
X0129182Y0032000D01*
X0128443Y0032000D02*
X0128443Y0034202D01*
X0128443Y0036701D02*
X0128076Y0037068D01*
X0133600Y0037068D02*
X0133600Y0036701D01*
X0133967Y0036701D01*
X0133967Y0037068D01*
X0133600Y0037068D01*
X0133600Y0035967D02*
X0133600Y0035600D01*
X0133967Y0035600D01*
X0133967Y0035967D01*
X0133600Y0035967D01*
X0134709Y0035967D02*
X0134709Y0036701D01*
X0135443Y0036701D01*
X0134709Y0037435D02*
X0135076Y0037802D01*
X0135810Y0037802D01*
X0136177Y0037435D01*
X0136177Y0035967D01*
X0135810Y0035600D01*
X0135076Y0035600D01*
X0134709Y0035967D01*
X0136919Y0035600D02*
X0136919Y0037802D01*
X0138387Y0037802D02*
X0136919Y0035600D01*
X0138387Y0035600D02*
X0138387Y0037802D01*
X0139127Y0037802D02*
X0139860Y0037802D01*
X0139494Y0037802D02*
X0139494Y0035600D01*
X0139860Y0035600D02*
X0139127Y0035600D01*
X0140602Y0035600D02*
X0140602Y0037802D01*
X0140969Y0039200D02*
X0140602Y0039567D01*
X0140969Y0039200D02*
X0141703Y0039200D01*
X0142070Y0039567D01*
X0142070Y0041035D01*
X0141703Y0041402D01*
X0140969Y0041402D01*
X0140602Y0041035D01*
X0139860Y0040668D02*
X0139860Y0039200D01*
X0139860Y0040301D02*
X0138393Y0040301D01*
X0138393Y0040668D02*
X0138393Y0039200D01*
X0137651Y0039200D02*
X0137651Y0041402D01*
X0138393Y0040668D02*
X0139127Y0041402D01*
X0139860Y0040668D01*
X0137651Y0039200D02*
X0136183Y0039200D01*
X0135441Y0039200D02*
X0134707Y0039200D01*
X0135074Y0039200D02*
X0135074Y0041402D01*
X0135441Y0041402D02*
X0134707Y0041402D01*
X0133967Y0041402D02*
X0133967Y0039200D01*
X0133967Y0040301D02*
X0133234Y0040301D01*
X0133967Y0041402D02*
X0132500Y0041402D01*
X0140602Y0035600D02*
X0142070Y0037802D01*
X0142070Y0035600D01*
X0142812Y0035600D02*
X0143546Y0036334D01*
X0143179Y0036334D02*
X0144280Y0036334D01*
X0144280Y0035600D02*
X0144280Y0037802D01*
X0143179Y0037802D01*
X0142812Y0037435D01*
X0142812Y0036701D01*
X0143179Y0036334D01*
X0145022Y0036701D02*
X0146490Y0036701D01*
X0146490Y0037068D02*
X0145756Y0037802D01*
X0145022Y0037068D01*
X0145022Y0035600D01*
X0146490Y0035600D02*
X0146490Y0037068D01*
X0147232Y0037802D02*
X0147232Y0035600D01*
X0147966Y0036334D01*
X0148700Y0035600D01*
X0148700Y0037802D01*
X0148700Y0034202D02*
X0148700Y0032000D01*
X0148700Y0032734D02*
X0147599Y0033468D01*
X0146858Y0033468D02*
X0145757Y0033468D01*
X0145391Y0033101D01*
X0145391Y0032000D01*
X0144649Y0032367D02*
X0144282Y0032000D01*
X0143548Y0032000D01*
X0143181Y0032367D01*
X0143181Y0033101D01*
X0143548Y0033468D01*
X0144282Y0033468D01*
X0144649Y0033101D01*
X0144649Y0032367D01*
X0142439Y0032367D02*
X0142439Y0033468D01*
X0142439Y0032367D02*
X0142072Y0032000D01*
X0141705Y0032367D01*
X0141338Y0032000D01*
X0140971Y0032367D01*
X0140971Y0033468D01*
X0140229Y0033468D02*
X0139128Y0033468D01*
X0138761Y0033101D01*
X0138761Y0032000D01*
X0140229Y0032000D02*
X0140229Y0033468D01*
X0137284Y0030969D02*
X0137284Y0030602D01*
X0137284Y0029868D02*
X0137284Y0028400D01*
X0137651Y0028400D02*
X0136917Y0028400D01*
X0136177Y0028400D02*
X0136177Y0029868D01*
X0135443Y0029868D02*
X0135076Y0029868D01*
X0135443Y0029868D02*
X0136177Y0029134D01*
X0137284Y0029868D02*
X0137651Y0029868D01*
X0138393Y0029501D02*
X0138393Y0028767D01*
X0138760Y0028400D01*
X0139860Y0028400D01*
X0139860Y0030602D01*
X0139860Y0029868D02*
X0138760Y0029868D01*
X0138393Y0029501D01*
X0140600Y0027002D02*
X0140967Y0026635D01*
X0140967Y0024800D01*
X0142073Y0024800D02*
X0142807Y0024800D01*
X0142440Y0024800D02*
X0142440Y0026268D01*
X0142807Y0026268D01*
X0142440Y0027002D02*
X0142440Y0027369D01*
X0142812Y0028400D02*
X0143913Y0028400D01*
X0144280Y0028767D01*
X0144280Y0029501D01*
X0143913Y0029868D01*
X0142812Y0029868D01*
X0142812Y0030602D02*
X0142812Y0028400D01*
X0143913Y0027002D02*
X0143913Y0024800D01*
X0144280Y0024800D02*
X0143546Y0024800D01*
X0145022Y0024800D02*
X0145022Y0025901D01*
X0145389Y0026268D01*
X0146123Y0026268D01*
X0146123Y0025534D02*
X0145022Y0025534D01*
X0145022Y0024800D02*
X0146123Y0024800D01*
X0146490Y0025167D01*
X0146123Y0025534D01*
X0147232Y0025167D02*
X0147599Y0024800D01*
X0148333Y0024800D01*
X0148700Y0025167D01*
X0148700Y0026635D01*
X0148333Y0027002D01*
X0147599Y0027002D01*
X0147232Y0026635D01*
X0144280Y0027002D02*
X0143913Y0027002D01*
X0145022Y0028400D02*
X0145022Y0029501D01*
X0145389Y0029868D01*
X0146490Y0029868D01*
X0146490Y0028400D01*
X0147232Y0028400D02*
X0148333Y0028400D01*
X0148700Y0028767D01*
X0148333Y0029134D01*
X0147232Y0029134D01*
X0147232Y0029501D02*
X0147232Y0028400D01*
X0147232Y0029501D02*
X0147599Y0029868D01*
X0148333Y0029868D01*
X0147599Y0032000D02*
X0148700Y0032734D01*
X0146858Y0032000D02*
X0146858Y0033468D01*
X0141334Y0025901D02*
X0140600Y0025901D01*
X0139860Y0025901D02*
X0139860Y0025167D01*
X0139494Y0024800D01*
X0138760Y0024800D01*
X0138393Y0025167D01*
X0138393Y0025901D01*
X0138760Y0026268D01*
X0139494Y0026268D01*
X0139860Y0025901D01*
X0137651Y0026268D02*
X0137651Y0024800D01*
X0137651Y0025534D02*
X0136917Y0026268D01*
X0136550Y0026268D01*
X0135809Y0026268D02*
X0135809Y0024800D01*
X0134341Y0024800D02*
X0134341Y0025901D01*
X0134708Y0026268D01*
X0135809Y0026268D01*
X0133599Y0026268D02*
X0133232Y0026268D01*
X0133232Y0024800D01*
X0133599Y0024800D02*
X0132865Y0024800D01*
X0132126Y0025167D02*
X0131759Y0025534D01*
X0130658Y0025534D01*
X0130658Y0025901D02*
X0130658Y0024800D01*
X0131759Y0024800D01*
X0132126Y0025167D01*
X0131759Y0026268D02*
X0131025Y0026268D01*
X0130658Y0025901D01*
X0133232Y0027002D02*
X0133232Y0027369D01*
X0132863Y0028400D02*
X0132863Y0030602D01*
X0132496Y0029868D02*
X0131762Y0029868D01*
X0131395Y0029501D01*
X0131395Y0028400D01*
X0132863Y0029501D02*
X0132496Y0029868D01*
X0133602Y0029868D02*
X0134336Y0029868D01*
X0133969Y0030235D02*
X0133969Y0028767D01*
X0133602Y0028400D01*
X0133969Y0032000D02*
X0134336Y0032367D01*
X0134336Y0033101D01*
X0133969Y0033468D01*
X0133235Y0033468D01*
X0132868Y0033101D01*
X0132868Y0032367D01*
X0133235Y0032000D01*
X0133969Y0032000D01*
X0135075Y0032000D02*
X0135442Y0032367D01*
X0135442Y0033835D01*
X0135809Y0033468D02*
X0135075Y0033468D01*
X0128443Y0029501D02*
X0128076Y0029868D01*
X0126975Y0029868D01*
X0126975Y0030602D02*
X0126975Y0028400D01*
X0128076Y0028400D01*
X0128443Y0028767D01*
X0128443Y0029501D01*
X0126233Y0029501D02*
X0126233Y0028767D01*
X0125866Y0028400D01*
X0125132Y0028400D01*
X0124765Y0029134D02*
X0126233Y0029134D01*
X0126233Y0029501D02*
X0125866Y0029868D01*
X0125132Y0029868D01*
X0124765Y0029501D01*
X0124765Y0029134D01*
X0124023Y0029501D02*
X0123289Y0029501D01*
X0122550Y0029501D02*
X0122183Y0029868D01*
X0121449Y0029868D01*
X0121082Y0029501D01*
X0121082Y0029134D01*
X0122550Y0029134D01*
X0122550Y0028767D02*
X0122550Y0029501D01*
X0122550Y0028767D02*
X0122183Y0028400D01*
X0121449Y0028400D01*
X0120340Y0028767D02*
X0120340Y0029501D01*
X0119973Y0029868D01*
X0118872Y0029868D01*
X0118130Y0029868D02*
X0117396Y0029868D01*
X0117763Y0030235D02*
X0117763Y0028767D01*
X0117396Y0028400D01*
X0116657Y0028400D02*
X0115556Y0028400D01*
X0115189Y0028767D01*
X0115556Y0029134D01*
X0116290Y0029134D01*
X0116657Y0029501D01*
X0116290Y0029868D01*
X0115189Y0029868D01*
X0118872Y0028400D02*
X0119973Y0028400D01*
X0120340Y0028767D01*
X0119603Y0026268D02*
X0119603Y0024800D01*
X0119603Y0025534D02*
X0118869Y0026268D01*
X0118502Y0026268D01*
X0117762Y0025901D02*
X0117395Y0026268D01*
X0116661Y0026268D01*
X0116294Y0025901D01*
X0116294Y0025534D01*
X0117762Y0025534D01*
X0117762Y0025167D02*
X0117762Y0025901D01*
X0117762Y0025167D02*
X0117395Y0024800D01*
X0116661Y0024800D01*
X0115552Y0025167D02*
X0115552Y0025901D01*
X0115185Y0026268D01*
X0114084Y0026268D01*
X0114084Y0024066D01*
X0114084Y0024800D02*
X0115185Y0024800D01*
X0115552Y0025167D01*
X0113342Y0025167D02*
X0113342Y0026268D01*
X0113342Y0025167D02*
X0112975Y0024800D01*
X0111874Y0024800D01*
X0111874Y0026268D01*
X0111132Y0026268D02*
X0110765Y0026268D01*
X0110765Y0024800D01*
X0111132Y0024800D02*
X0110398Y0024800D01*
X0109659Y0024800D02*
X0109659Y0026268D01*
X0109659Y0025534D02*
X0108925Y0026268D01*
X0108558Y0026268D01*
X0107817Y0025901D02*
X0107450Y0026268D01*
X0106716Y0026268D01*
X0106349Y0025901D01*
X0106349Y0025534D01*
X0107817Y0025534D01*
X0107817Y0025167D02*
X0107817Y0025901D01*
X0107817Y0025167D02*
X0107450Y0024800D01*
X0106716Y0024800D01*
X0105607Y0024800D02*
X0104506Y0024800D01*
X0104139Y0025167D01*
X0104506Y0025534D01*
X0105240Y0025534D01*
X0105607Y0025901D01*
X0105240Y0026268D01*
X0104139Y0026268D01*
X0101188Y0026268D02*
X0100454Y0026268D01*
X0100821Y0026635D02*
X0100821Y0025167D01*
X0100454Y0024800D01*
X0099714Y0024800D02*
X0099714Y0027002D01*
X0099347Y0026268D02*
X0098613Y0026268D01*
X0098246Y0025901D01*
X0098246Y0024800D01*
X0097504Y0024800D02*
X0096770Y0024800D01*
X0097137Y0024800D02*
X0097137Y0026268D01*
X0097504Y0026268D01*
X0097137Y0027002D02*
X0097137Y0027369D01*
X0097873Y0028400D02*
X0097873Y0029868D01*
X0097873Y0029134D02*
X0097139Y0029868D01*
X0096772Y0029868D01*
X0098615Y0029501D02*
X0098615Y0029134D01*
X0100083Y0029134D01*
X0100083Y0028767D02*
X0100083Y0029501D01*
X0099716Y0029868D01*
X0098982Y0029868D01*
X0098615Y0029501D01*
X0098982Y0028400D02*
X0099716Y0028400D01*
X0100083Y0028767D01*
X0100825Y0028400D02*
X0100825Y0029501D01*
X0101192Y0029868D01*
X0101926Y0029868D01*
X0102293Y0029501D01*
X0103032Y0029868D02*
X0103766Y0029868D01*
X0103399Y0030235D02*
X0103399Y0028767D01*
X0103032Y0028400D01*
X0102293Y0028400D02*
X0102293Y0030602D01*
X0101557Y0032000D02*
X0100456Y0032000D01*
X0100456Y0033101D01*
X0100823Y0033468D01*
X0101557Y0033468D01*
X0101557Y0032734D02*
X0100456Y0032734D01*
X0099714Y0032000D02*
X0098980Y0032000D01*
X0099347Y0032000D02*
X0099347Y0034202D01*
X0099714Y0034202D01*
X0099346Y0035600D02*
X0099346Y0037068D01*
X0098245Y0037068D01*
X0097878Y0036701D01*
X0097878Y0035600D01*
X0097874Y0034569D02*
X0097874Y0034202D01*
X0097874Y0033468D02*
X0097874Y0032000D01*
X0098241Y0032000D02*
X0097507Y0032000D01*
X0096401Y0032000D02*
X0096401Y0033835D01*
X0096034Y0034202D01*
X0096034Y0033101D02*
X0096768Y0033101D01*
X0097874Y0033468D02*
X0098241Y0033468D01*
X0096402Y0035600D02*
X0096769Y0035967D01*
X0096769Y0037435D01*
X0097136Y0037068D02*
X0096402Y0037068D01*
X0095296Y0037068D02*
X0094562Y0037068D01*
X0094195Y0036701D01*
X0094195Y0035600D01*
X0095296Y0035600D01*
X0095663Y0035967D01*
X0095296Y0036334D01*
X0094195Y0036334D01*
X0091243Y0033468D02*
X0091243Y0032000D01*
X0087560Y0032367D02*
X0087193Y0032000D01*
X0086092Y0032000D01*
X0086092Y0033101D01*
X0086459Y0033468D01*
X0087193Y0033468D01*
X0087193Y0032734D02*
X0086092Y0032734D01*
X0087193Y0032734D02*
X0087560Y0032367D01*
X0084983Y0035600D02*
X0083882Y0035600D01*
X0083140Y0035600D02*
X0083140Y0037802D01*
X0082773Y0037068D02*
X0082039Y0037068D01*
X0081672Y0036701D01*
X0081672Y0035600D01*
X0080930Y0035967D02*
X0080930Y0036701D01*
X0080563Y0037068D01*
X0079829Y0037068D01*
X0079462Y0036701D01*
X0079462Y0036334D01*
X0080930Y0036334D01*
X0080930Y0035967D02*
X0080563Y0035600D01*
X0079829Y0035600D01*
X0078720Y0035600D02*
X0078720Y0037068D01*
X0078354Y0037068D01*
X0077987Y0036701D01*
X0077620Y0037068D01*
X0077253Y0036701D01*
X0077253Y0035600D01*
X0077987Y0035600D02*
X0077987Y0036701D01*
X0076511Y0037068D02*
X0076144Y0037068D01*
X0076144Y0035600D01*
X0076511Y0035600D02*
X0075777Y0035600D01*
X0075037Y0035967D02*
X0075037Y0036701D01*
X0074670Y0037068D01*
X0073569Y0037068D01*
X0072460Y0037068D02*
X0071727Y0037068D01*
X0071360Y0036701D01*
X0071360Y0035600D01*
X0072460Y0035600D01*
X0072827Y0035967D01*
X0072460Y0036334D01*
X0071360Y0036334D01*
X0070618Y0035600D02*
X0069884Y0035600D01*
X0070251Y0035600D02*
X0070251Y0037802D01*
X0070618Y0037802D01*
X0069144Y0036701D02*
X0068777Y0037068D01*
X0067676Y0037068D01*
X0068043Y0036334D02*
X0068777Y0036334D01*
X0069144Y0036701D01*
X0069144Y0035600D02*
X0068043Y0035600D01*
X0067676Y0035967D01*
X0068043Y0036334D01*
X0068041Y0033468D02*
X0067307Y0033468D01*
X0066940Y0033101D01*
X0066940Y0032734D01*
X0068408Y0032734D01*
X0068408Y0033101D02*
X0068041Y0033468D01*
X0068408Y0033101D02*
X0068408Y0032367D01*
X0068041Y0032000D01*
X0067307Y0032000D01*
X0069150Y0032367D02*
X0069517Y0032734D01*
X0070251Y0032734D01*
X0070618Y0033101D01*
X0070251Y0033468D01*
X0069150Y0033468D01*
X0069150Y0032367D02*
X0069517Y0032000D01*
X0070618Y0032000D01*
X0071360Y0032000D02*
X0071360Y0033468D01*
X0072827Y0033468D02*
X0072827Y0032367D01*
X0072460Y0032000D01*
X0071360Y0032000D01*
X0071356Y0029868D02*
X0070622Y0029868D01*
X0070255Y0029501D01*
X0070255Y0029134D01*
X0071723Y0029134D01*
X0071723Y0028767D02*
X0071723Y0029501D01*
X0071356Y0029868D01*
X0072464Y0029868D02*
X0073198Y0028400D01*
X0073932Y0029868D01*
X0075039Y0029868D02*
X0075039Y0028400D01*
X0075406Y0028400D02*
X0074672Y0028400D01*
X0076145Y0028400D02*
X0076512Y0028767D01*
X0076512Y0030235D01*
X0076879Y0029868D02*
X0076145Y0029868D01*
X0075406Y0029868D02*
X0075039Y0029868D01*
X0075039Y0030602D02*
X0075039Y0030969D01*
X0074670Y0032000D02*
X0075037Y0032367D01*
X0074670Y0032734D01*
X0073569Y0032734D01*
X0073569Y0033101D02*
X0073569Y0032000D01*
X0074670Y0032000D01*
X0075779Y0032000D02*
X0076880Y0032000D01*
X0077247Y0032367D01*
X0077247Y0033101D01*
X0076880Y0033468D01*
X0075779Y0033468D01*
X0074670Y0033468D02*
X0073936Y0033468D01*
X0073569Y0033101D01*
X0073569Y0035600D02*
X0074670Y0035600D01*
X0075037Y0035967D01*
X0076144Y0037802D02*
X0076144Y0038169D01*
X0075779Y0039200D02*
X0075779Y0041402D01*
X0075037Y0041035D02*
X0075037Y0039567D01*
X0074670Y0039200D01*
X0073936Y0039200D01*
X0073569Y0039567D01*
X0073569Y0040301D01*
X0074303Y0040301D01*
X0073569Y0041035D02*
X0073936Y0041402D01*
X0074670Y0041402D01*
X0075037Y0041035D01*
X0075779Y0039200D02*
X0077247Y0041402D01*
X0077247Y0039200D01*
X0077987Y0039200D02*
X0078720Y0039200D01*
X0078354Y0039200D02*
X0078354Y0041402D01*
X0078720Y0041402D02*
X0077987Y0041402D01*
X0079462Y0041402D02*
X0079462Y0039200D01*
X0080930Y0041402D01*
X0080930Y0039200D01*
X0081672Y0039200D02*
X0082406Y0039934D01*
X0082039Y0039934D02*
X0083140Y0039934D01*
X0083140Y0039200D02*
X0083140Y0041402D01*
X0082039Y0041402D01*
X0081672Y0041035D01*
X0081672Y0040301D01*
X0082039Y0039934D01*
X0083882Y0040301D02*
X0085350Y0040301D01*
X0085350Y0040668D02*
X0084616Y0041402D01*
X0083882Y0040668D01*
X0083882Y0039200D01*
X0085350Y0039200D02*
X0085350Y0040668D01*
X0086092Y0041402D02*
X0086092Y0039200D01*
X0086826Y0039934D01*
X0087560Y0039200D01*
X0087560Y0041402D01*
X0084983Y0037068D02*
X0083882Y0037068D01*
X0083140Y0036701D02*
X0082773Y0037068D01*
X0084983Y0037068D02*
X0085350Y0036701D01*
X0085350Y0035967D01*
X0084983Y0035600D01*
X0083140Y0033468D02*
X0082406Y0033468D01*
X0082773Y0033835D02*
X0082773Y0032367D01*
X0082406Y0032000D01*
X0081667Y0032367D02*
X0081300Y0032000D01*
X0080566Y0032000D01*
X0080199Y0032367D01*
X0080199Y0033101D01*
X0080566Y0033468D01*
X0081300Y0033468D01*
X0081667Y0033101D01*
X0081667Y0032367D01*
X0081299Y0029868D02*
X0081299Y0028767D01*
X0080932Y0028400D01*
X0079831Y0028400D01*
X0079831Y0029868D01*
X0079089Y0029501D02*
X0079089Y0028767D01*
X0078722Y0028400D01*
X0077621Y0028400D01*
X0077621Y0029868D02*
X0078722Y0029868D01*
X0079089Y0029501D01*
X0075037Y0026268D02*
X0074303Y0026268D01*
X0074670Y0026635D02*
X0074670Y0025167D01*
X0074303Y0024800D01*
X0073196Y0023402D02*
X0072829Y0023402D01*
X0069882Y0023035D02*
X0069515Y0023402D01*
X0070622Y0028400D02*
X0071356Y0028400D01*
X0071723Y0028767D01*
X0080565Y0023402D02*
X0080932Y0023035D01*
X0080932Y0021200D01*
X0081299Y0022301D02*
X0080565Y0022301D01*
X0082041Y0022301D02*
X0082408Y0022668D01*
X0083142Y0022668D01*
X0083509Y0022301D01*
X0083509Y0021567D01*
X0083142Y0021200D01*
X0082408Y0021200D01*
X0082041Y0021567D01*
X0082041Y0022301D01*
X0083882Y0024800D02*
X0083882Y0025901D01*
X0084249Y0026268D01*
X0085350Y0026268D01*
X0085350Y0024800D01*
X0086091Y0026268D02*
X0086458Y0026268D01*
X0087192Y0025534D01*
X0087192Y0024800D02*
X0087192Y0026268D01*
X0087934Y0025901D02*
X0087934Y0024800D01*
X0089035Y0024800D01*
X0089402Y0025167D01*
X0089035Y0025534D01*
X0087934Y0025534D01*
X0087934Y0025901D02*
X0088301Y0026268D01*
X0089035Y0026268D01*
X0090144Y0026268D02*
X0090144Y0025167D01*
X0090510Y0024800D01*
X0090877Y0025167D01*
X0091244Y0024800D01*
X0091611Y0025167D01*
X0091611Y0026268D01*
X0094563Y0026268D02*
X0095664Y0026268D01*
X0096031Y0025901D01*
X0095664Y0025534D01*
X0094930Y0025534D01*
X0094563Y0025167D01*
X0094930Y0024800D01*
X0096031Y0024800D01*
X0094928Y0023402D02*
X0094194Y0023402D01*
X0093827Y0023035D01*
X0094194Y0022301D02*
X0093827Y0021934D01*
X0093827Y0021567D01*
X0094194Y0021200D01*
X0094928Y0021200D01*
X0095295Y0021567D01*
X0094928Y0022301D02*
X0094194Y0022301D01*
X0094928Y0022301D02*
X0095295Y0022668D01*
X0095295Y0023035D01*
X0094928Y0023402D01*
X0093085Y0022668D02*
X0092351Y0022668D01*
X0092718Y0023035D02*
X0092718Y0021567D01*
X0092351Y0021200D01*
X0091611Y0021567D02*
X0091244Y0021200D01*
X0090144Y0021200D01*
X0090144Y0022301D01*
X0090511Y0022668D01*
X0091244Y0022668D01*
X0091244Y0021934D02*
X0090144Y0021934D01*
X0089402Y0022668D02*
X0088668Y0022668D01*
X0089035Y0023035D02*
X0089035Y0021567D01*
X0088668Y0021200D01*
X0087928Y0021567D02*
X0087561Y0021200D01*
X0086827Y0021200D01*
X0086460Y0021934D02*
X0087928Y0021934D01*
X0087928Y0022301D02*
X0087561Y0022668D01*
X0086827Y0022668D01*
X0086460Y0022301D01*
X0086460Y0021934D01*
X0087928Y0021567D02*
X0087928Y0022301D01*
X0091244Y0021934D02*
X0091611Y0021567D01*
X0098246Y0021934D02*
X0099714Y0021934D01*
X0099714Y0022301D02*
X0099347Y0022668D01*
X0098613Y0022668D01*
X0098246Y0022301D01*
X0098246Y0021934D01*
X0098613Y0021200D02*
X0099347Y0021200D01*
X0099714Y0021567D01*
X0099714Y0022301D01*
X0100456Y0022301D02*
X0100456Y0021200D01*
X0100456Y0022301D02*
X0100823Y0022668D01*
X0101557Y0022668D01*
X0101924Y0022301D01*
X0102664Y0022668D02*
X0103397Y0022668D01*
X0103030Y0023035D02*
X0103030Y0021567D01*
X0102664Y0021200D01*
X0101924Y0021200D02*
X0101924Y0023402D01*
X0099714Y0025901D02*
X0099347Y0026268D01*
X0104508Y0028767D02*
X0104508Y0029501D01*
X0104875Y0029868D01*
X0105609Y0029868D01*
X0105976Y0029501D01*
X0105976Y0028767D01*
X0105609Y0028400D01*
X0104875Y0028400D01*
X0104508Y0028767D01*
X0103767Y0032000D02*
X0103033Y0032000D01*
X0102666Y0032367D01*
X0101924Y0032367D02*
X0101557Y0032734D01*
X0101924Y0032367D02*
X0101557Y0032000D01*
X0103767Y0032000D02*
X0104134Y0032367D01*
X0104134Y0033835D01*
X0103767Y0034202D01*
X0103033Y0034202D01*
X0102666Y0033835D01*
X0102298Y0035600D02*
X0103399Y0035600D01*
X0103766Y0035967D01*
X0103766Y0036701D01*
X0103399Y0037068D01*
X0102298Y0037068D01*
X0101556Y0036701D02*
X0101556Y0035967D01*
X0101189Y0035600D01*
X0100455Y0035600D01*
X0100088Y0035967D01*
X0100088Y0036701D01*
X0100455Y0037068D01*
X0101189Y0037068D01*
X0101556Y0036701D01*
X0110765Y0027369D02*
X0110765Y0027002D01*
X0108923Y0023769D02*
X0108923Y0023402D01*
X0108923Y0022668D02*
X0108923Y0021200D01*
X0108557Y0021200D02*
X0109290Y0021200D01*
X0109290Y0022668D02*
X0108923Y0022668D01*
X0107817Y0022668D02*
X0107817Y0021200D01*
X0106349Y0021200D02*
X0106349Y0022301D01*
X0106716Y0022668D01*
X0107817Y0022668D01*
X0112242Y0022668D02*
X0113343Y0022668D01*
X0113710Y0022301D01*
X0113343Y0021934D01*
X0112609Y0021934D01*
X0112242Y0021567D01*
X0112609Y0021200D01*
X0113710Y0021200D01*
X0114451Y0022668D02*
X0114818Y0022668D01*
X0115552Y0021934D01*
X0115552Y0021200D02*
X0115552Y0022668D01*
X0116294Y0022301D02*
X0116294Y0021934D01*
X0117762Y0021934D01*
X0117762Y0022301D02*
X0117395Y0022668D01*
X0116661Y0022668D01*
X0116294Y0022301D01*
X0116661Y0021200D02*
X0117395Y0021200D01*
X0117762Y0021567D01*
X0117762Y0022301D01*
X0118504Y0022301D02*
X0118504Y0021200D01*
X0119238Y0021200D02*
X0119238Y0022301D01*
X0118871Y0022668D01*
X0118504Y0022301D01*
X0119238Y0022301D02*
X0119605Y0022668D01*
X0119972Y0022668D01*
X0119972Y0021200D01*
X0120714Y0021567D02*
X0120714Y0022301D01*
X0121081Y0022668D01*
X0121814Y0022668D01*
X0122181Y0022301D01*
X0122181Y0021567D01*
X0121814Y0021200D01*
X0121081Y0021200D01*
X0120714Y0021567D01*
X0122921Y0021200D02*
X0123288Y0021567D01*
X0123288Y0023035D01*
X0123655Y0022668D02*
X0122921Y0022668D01*
X0124397Y0022668D02*
X0125498Y0022668D01*
X0125865Y0022301D01*
X0125498Y0021934D01*
X0124764Y0021934D01*
X0124397Y0021567D01*
X0124764Y0021200D01*
X0125865Y0021200D01*
X0126607Y0021200D02*
X0126607Y0022668D01*
X0128074Y0022668D02*
X0128074Y0021567D01*
X0127707Y0021200D01*
X0126607Y0021200D01*
X0128816Y0021200D02*
X0129917Y0021200D01*
X0130284Y0021567D01*
X0130284Y0022301D01*
X0129917Y0022668D01*
X0128816Y0022668D01*
X0127706Y0024800D02*
X0126972Y0024800D01*
X0127339Y0024800D02*
X0127339Y0027002D01*
X0127706Y0027002D01*
X0125866Y0026268D02*
X0125132Y0026268D01*
X0124765Y0025901D01*
X0124765Y0024800D01*
X0125866Y0024800D01*
X0126233Y0025167D01*
X0125866Y0025534D01*
X0124765Y0025534D01*
X0124023Y0025167D02*
X0123656Y0024800D01*
X0123289Y0025167D01*
X0122922Y0024800D01*
X0122555Y0025167D01*
X0122555Y0026268D01*
X0124023Y0026268D02*
X0124023Y0025167D01*
X0123656Y0028400D02*
X0123656Y0030235D01*
X0123289Y0030602D01*
X0133236Y0022301D02*
X0133603Y0022668D01*
X0134337Y0022668D01*
X0134704Y0022301D01*
X0134704Y0021567D01*
X0134337Y0021200D01*
X0133603Y0021200D01*
X0133236Y0021567D01*
X0133236Y0022301D01*
X0135443Y0022668D02*
X0136177Y0022668D01*
X0135810Y0023035D02*
X0135810Y0021567D01*
X0135443Y0021200D01*
X0139129Y0021200D02*
X0139129Y0022301D01*
X0139496Y0022668D01*
X0140597Y0022668D01*
X0140597Y0021200D01*
X0141339Y0021934D02*
X0142807Y0021934D01*
X0142807Y0022301D02*
X0142440Y0022668D01*
X0141706Y0022668D01*
X0141339Y0022301D01*
X0141339Y0021934D01*
X0141706Y0021200D02*
X0142440Y0021200D01*
X0142807Y0021567D01*
X0142807Y0022301D01*
X0143549Y0022668D02*
X0144283Y0021200D01*
X0145017Y0022668D01*
X0146123Y0022668D02*
X0146123Y0021200D01*
X0146490Y0021200D02*
X0145756Y0021200D01*
X0147232Y0021200D02*
X0148333Y0021200D01*
X0148700Y0021567D01*
X0148700Y0022301D01*
X0148333Y0022668D01*
X0147232Y0022668D01*
X0147232Y0020833D01*
X0147599Y0020466D01*
X0147966Y0020466D01*
X0146490Y0022668D02*
X0146123Y0022668D01*
X0146123Y0023402D02*
X0146123Y0023769D01*
D13*
X0045800Y0043300D02*
X0043800Y0043300D01*
X0043800Y0047300D01*
X0043800Y0043300D02*
X0041800Y0043300D01*
X0043800Y0053800D02*
X0039800Y0053800D01*
X0040300Y0056800D02*
X0043800Y0060300D01*
D14*
X0038650Y0058950D02*
X0038650Y0062653D01*
X0037416Y0061419D01*
X0036181Y0062653D01*
X0036181Y0058950D01*
X0036150Y0056653D02*
X0034298Y0056653D01*
X0033681Y0056036D01*
X0033681Y0054802D01*
X0034298Y0054184D01*
X0036150Y0054184D01*
X0036150Y0052950D02*
X0036150Y0056653D01*
X0034916Y0054184D02*
X0033681Y0052950D01*
X0033033Y0051653D02*
X0033650Y0051036D01*
X0033650Y0048567D01*
X0033033Y0047950D01*
X0031798Y0047950D01*
X0031181Y0048567D01*
X0030533Y0046653D02*
X0029298Y0046653D01*
X0028681Y0046036D01*
X0029298Y0044802D02*
X0028681Y0044184D01*
X0028681Y0043567D01*
X0029298Y0042950D01*
X0030533Y0042950D01*
X0031150Y0043567D01*
X0030533Y0044802D02*
X0029298Y0044802D01*
X0030533Y0044802D02*
X0031150Y0045419D01*
X0031150Y0046036D01*
X0030533Y0046653D01*
X0031181Y0051036D02*
X0031798Y0051653D01*
X0033033Y0051653D01*
M02*
