G75*
%MOIN*%
%OFA0B0*%
%FSLAX25Y25*%
%IPPOS*%
%LPD*%
%AMOC8*
5,1,8,0,0,1.08239X$1,22.5*
%
%ADD10C,0.00000*%
%ADD11C,0.11800*%
%ADD12C,0.07300*%
%ADD13OC8,0.07887*%
%ADD14C,0.07887*%
%ADD15R,0.08200X0.08200*%
%ADD16C,0.08200*%
%ADD17OC8,0.06000*%
%ADD18R,0.06000X0.06000*%
%ADD19C,0.06000*%
D10*
X0001300Y0001300D02*
X0001300Y0131800D01*
X0196300Y0131800D01*
X0196300Y0001300D01*
X0001300Y0001300D01*
X0010800Y0116300D02*
X0010802Y0116448D01*
X0010808Y0116596D01*
X0010818Y0116744D01*
X0010832Y0116892D01*
X0010850Y0117039D01*
X0010872Y0117186D01*
X0010898Y0117332D01*
X0010927Y0117477D01*
X0010961Y0117622D01*
X0010999Y0117765D01*
X0011040Y0117908D01*
X0011085Y0118049D01*
X0011135Y0118189D01*
X0011187Y0118327D01*
X0011244Y0118465D01*
X0011304Y0118600D01*
X0011368Y0118734D01*
X0011435Y0118866D01*
X0011506Y0118996D01*
X0011581Y0119125D01*
X0011659Y0119251D01*
X0011740Y0119375D01*
X0011824Y0119497D01*
X0011912Y0119616D01*
X0012003Y0119733D01*
X0012097Y0119848D01*
X0012195Y0119960D01*
X0012295Y0120069D01*
X0012398Y0120176D01*
X0012504Y0120280D01*
X0012612Y0120381D01*
X0012724Y0120479D01*
X0012838Y0120574D01*
X0012954Y0120665D01*
X0013073Y0120754D01*
X0013194Y0120839D01*
X0013318Y0120921D01*
X0013444Y0121000D01*
X0013571Y0121075D01*
X0013701Y0121147D01*
X0013833Y0121216D01*
X0013966Y0121280D01*
X0014101Y0121341D01*
X0014238Y0121399D01*
X0014376Y0121453D01*
X0014516Y0121503D01*
X0014657Y0121549D01*
X0014799Y0121591D01*
X0014942Y0121630D01*
X0015086Y0121664D01*
X0015232Y0121695D01*
X0015377Y0121722D01*
X0015524Y0121745D01*
X0015671Y0121764D01*
X0015819Y0121779D01*
X0015966Y0121790D01*
X0016115Y0121797D01*
X0016263Y0121800D01*
X0016411Y0121799D01*
X0016559Y0121794D01*
X0016707Y0121785D01*
X0016855Y0121772D01*
X0017003Y0121755D01*
X0017149Y0121734D01*
X0017296Y0121709D01*
X0017441Y0121680D01*
X0017586Y0121648D01*
X0017729Y0121611D01*
X0017872Y0121571D01*
X0018014Y0121526D01*
X0018154Y0121478D01*
X0018293Y0121426D01*
X0018430Y0121371D01*
X0018566Y0121311D01*
X0018701Y0121248D01*
X0018833Y0121182D01*
X0018964Y0121112D01*
X0019093Y0121038D01*
X0019219Y0120961D01*
X0019344Y0120881D01*
X0019466Y0120797D01*
X0019587Y0120710D01*
X0019704Y0120620D01*
X0019820Y0120526D01*
X0019932Y0120430D01*
X0020042Y0120331D01*
X0020150Y0120228D01*
X0020254Y0120123D01*
X0020356Y0120015D01*
X0020454Y0119904D01*
X0020550Y0119791D01*
X0020643Y0119675D01*
X0020732Y0119557D01*
X0020818Y0119436D01*
X0020901Y0119313D01*
X0020981Y0119188D01*
X0021057Y0119061D01*
X0021130Y0118931D01*
X0021199Y0118800D01*
X0021264Y0118667D01*
X0021327Y0118533D01*
X0021385Y0118396D01*
X0021440Y0118258D01*
X0021490Y0118119D01*
X0021538Y0117978D01*
X0021581Y0117837D01*
X0021621Y0117694D01*
X0021656Y0117550D01*
X0021688Y0117405D01*
X0021716Y0117259D01*
X0021740Y0117113D01*
X0021760Y0116966D01*
X0021776Y0116818D01*
X0021788Y0116671D01*
X0021796Y0116522D01*
X0021800Y0116374D01*
X0021800Y0116226D01*
X0021796Y0116078D01*
X0021788Y0115929D01*
X0021776Y0115782D01*
X0021760Y0115634D01*
X0021740Y0115487D01*
X0021716Y0115341D01*
X0021688Y0115195D01*
X0021656Y0115050D01*
X0021621Y0114906D01*
X0021581Y0114763D01*
X0021538Y0114622D01*
X0021490Y0114481D01*
X0021440Y0114342D01*
X0021385Y0114204D01*
X0021327Y0114067D01*
X0021264Y0113933D01*
X0021199Y0113800D01*
X0021130Y0113669D01*
X0021057Y0113539D01*
X0020981Y0113412D01*
X0020901Y0113287D01*
X0020818Y0113164D01*
X0020732Y0113043D01*
X0020643Y0112925D01*
X0020550Y0112809D01*
X0020454Y0112696D01*
X0020356Y0112585D01*
X0020254Y0112477D01*
X0020150Y0112372D01*
X0020042Y0112269D01*
X0019932Y0112170D01*
X0019820Y0112074D01*
X0019704Y0111980D01*
X0019587Y0111890D01*
X0019466Y0111803D01*
X0019344Y0111719D01*
X0019219Y0111639D01*
X0019093Y0111562D01*
X0018964Y0111488D01*
X0018833Y0111418D01*
X0018701Y0111352D01*
X0018566Y0111289D01*
X0018430Y0111229D01*
X0018293Y0111174D01*
X0018154Y0111122D01*
X0018014Y0111074D01*
X0017872Y0111029D01*
X0017729Y0110989D01*
X0017586Y0110952D01*
X0017441Y0110920D01*
X0017296Y0110891D01*
X0017149Y0110866D01*
X0017003Y0110845D01*
X0016855Y0110828D01*
X0016707Y0110815D01*
X0016559Y0110806D01*
X0016411Y0110801D01*
X0016263Y0110800D01*
X0016115Y0110803D01*
X0015966Y0110810D01*
X0015819Y0110821D01*
X0015671Y0110836D01*
X0015524Y0110855D01*
X0015377Y0110878D01*
X0015232Y0110905D01*
X0015086Y0110936D01*
X0014942Y0110970D01*
X0014799Y0111009D01*
X0014657Y0111051D01*
X0014516Y0111097D01*
X0014376Y0111147D01*
X0014238Y0111201D01*
X0014101Y0111259D01*
X0013966Y0111320D01*
X0013833Y0111384D01*
X0013701Y0111453D01*
X0013571Y0111525D01*
X0013444Y0111600D01*
X0013318Y0111679D01*
X0013194Y0111761D01*
X0013073Y0111846D01*
X0012954Y0111935D01*
X0012838Y0112026D01*
X0012724Y0112121D01*
X0012612Y0112219D01*
X0012504Y0112320D01*
X0012398Y0112424D01*
X0012295Y0112531D01*
X0012195Y0112640D01*
X0012097Y0112752D01*
X0012003Y0112867D01*
X0011912Y0112984D01*
X0011824Y0113103D01*
X0011740Y0113225D01*
X0011659Y0113349D01*
X0011581Y0113475D01*
X0011506Y0113604D01*
X0011435Y0113734D01*
X0011368Y0113866D01*
X0011304Y0114000D01*
X0011244Y0114135D01*
X0011187Y0114273D01*
X0011135Y0114411D01*
X0011085Y0114551D01*
X0011040Y0114692D01*
X0010999Y0114835D01*
X0010961Y0114978D01*
X0010927Y0115123D01*
X0010898Y0115268D01*
X0010872Y0115414D01*
X0010850Y0115561D01*
X0010832Y0115708D01*
X0010818Y0115856D01*
X0010808Y0116004D01*
X0010802Y0116152D01*
X0010800Y0116300D01*
X0170800Y0018800D02*
X0170802Y0018948D01*
X0170808Y0019096D01*
X0170818Y0019244D01*
X0170832Y0019392D01*
X0170850Y0019539D01*
X0170872Y0019686D01*
X0170898Y0019832D01*
X0170927Y0019977D01*
X0170961Y0020122D01*
X0170999Y0020265D01*
X0171040Y0020408D01*
X0171085Y0020549D01*
X0171135Y0020689D01*
X0171187Y0020827D01*
X0171244Y0020965D01*
X0171304Y0021100D01*
X0171368Y0021234D01*
X0171435Y0021366D01*
X0171506Y0021496D01*
X0171581Y0021625D01*
X0171659Y0021751D01*
X0171740Y0021875D01*
X0171824Y0021997D01*
X0171912Y0022116D01*
X0172003Y0022233D01*
X0172097Y0022348D01*
X0172195Y0022460D01*
X0172295Y0022569D01*
X0172398Y0022676D01*
X0172504Y0022780D01*
X0172612Y0022881D01*
X0172724Y0022979D01*
X0172838Y0023074D01*
X0172954Y0023165D01*
X0173073Y0023254D01*
X0173194Y0023339D01*
X0173318Y0023421D01*
X0173444Y0023500D01*
X0173571Y0023575D01*
X0173701Y0023647D01*
X0173833Y0023716D01*
X0173966Y0023780D01*
X0174101Y0023841D01*
X0174238Y0023899D01*
X0174376Y0023953D01*
X0174516Y0024003D01*
X0174657Y0024049D01*
X0174799Y0024091D01*
X0174942Y0024130D01*
X0175086Y0024164D01*
X0175232Y0024195D01*
X0175377Y0024222D01*
X0175524Y0024245D01*
X0175671Y0024264D01*
X0175819Y0024279D01*
X0175966Y0024290D01*
X0176115Y0024297D01*
X0176263Y0024300D01*
X0176411Y0024299D01*
X0176559Y0024294D01*
X0176707Y0024285D01*
X0176855Y0024272D01*
X0177003Y0024255D01*
X0177149Y0024234D01*
X0177296Y0024209D01*
X0177441Y0024180D01*
X0177586Y0024148D01*
X0177729Y0024111D01*
X0177872Y0024071D01*
X0178014Y0024026D01*
X0178154Y0023978D01*
X0178293Y0023926D01*
X0178430Y0023871D01*
X0178566Y0023811D01*
X0178701Y0023748D01*
X0178833Y0023682D01*
X0178964Y0023612D01*
X0179093Y0023538D01*
X0179219Y0023461D01*
X0179344Y0023381D01*
X0179466Y0023297D01*
X0179587Y0023210D01*
X0179704Y0023120D01*
X0179820Y0023026D01*
X0179932Y0022930D01*
X0180042Y0022831D01*
X0180150Y0022728D01*
X0180254Y0022623D01*
X0180356Y0022515D01*
X0180454Y0022404D01*
X0180550Y0022291D01*
X0180643Y0022175D01*
X0180732Y0022057D01*
X0180818Y0021936D01*
X0180901Y0021813D01*
X0180981Y0021688D01*
X0181057Y0021561D01*
X0181130Y0021431D01*
X0181199Y0021300D01*
X0181264Y0021167D01*
X0181327Y0021033D01*
X0181385Y0020896D01*
X0181440Y0020758D01*
X0181490Y0020619D01*
X0181538Y0020478D01*
X0181581Y0020337D01*
X0181621Y0020194D01*
X0181656Y0020050D01*
X0181688Y0019905D01*
X0181716Y0019759D01*
X0181740Y0019613D01*
X0181760Y0019466D01*
X0181776Y0019318D01*
X0181788Y0019171D01*
X0181796Y0019022D01*
X0181800Y0018874D01*
X0181800Y0018726D01*
X0181796Y0018578D01*
X0181788Y0018429D01*
X0181776Y0018282D01*
X0181760Y0018134D01*
X0181740Y0017987D01*
X0181716Y0017841D01*
X0181688Y0017695D01*
X0181656Y0017550D01*
X0181621Y0017406D01*
X0181581Y0017263D01*
X0181538Y0017122D01*
X0181490Y0016981D01*
X0181440Y0016842D01*
X0181385Y0016704D01*
X0181327Y0016567D01*
X0181264Y0016433D01*
X0181199Y0016300D01*
X0181130Y0016169D01*
X0181057Y0016039D01*
X0180981Y0015912D01*
X0180901Y0015787D01*
X0180818Y0015664D01*
X0180732Y0015543D01*
X0180643Y0015425D01*
X0180550Y0015309D01*
X0180454Y0015196D01*
X0180356Y0015085D01*
X0180254Y0014977D01*
X0180150Y0014872D01*
X0180042Y0014769D01*
X0179932Y0014670D01*
X0179820Y0014574D01*
X0179704Y0014480D01*
X0179587Y0014390D01*
X0179466Y0014303D01*
X0179344Y0014219D01*
X0179219Y0014139D01*
X0179093Y0014062D01*
X0178964Y0013988D01*
X0178833Y0013918D01*
X0178701Y0013852D01*
X0178566Y0013789D01*
X0178430Y0013729D01*
X0178293Y0013674D01*
X0178154Y0013622D01*
X0178014Y0013574D01*
X0177872Y0013529D01*
X0177729Y0013489D01*
X0177586Y0013452D01*
X0177441Y0013420D01*
X0177296Y0013391D01*
X0177149Y0013366D01*
X0177003Y0013345D01*
X0176855Y0013328D01*
X0176707Y0013315D01*
X0176559Y0013306D01*
X0176411Y0013301D01*
X0176263Y0013300D01*
X0176115Y0013303D01*
X0175966Y0013310D01*
X0175819Y0013321D01*
X0175671Y0013336D01*
X0175524Y0013355D01*
X0175377Y0013378D01*
X0175232Y0013405D01*
X0175086Y0013436D01*
X0174942Y0013470D01*
X0174799Y0013509D01*
X0174657Y0013551D01*
X0174516Y0013597D01*
X0174376Y0013647D01*
X0174238Y0013701D01*
X0174101Y0013759D01*
X0173966Y0013820D01*
X0173833Y0013884D01*
X0173701Y0013953D01*
X0173571Y0014025D01*
X0173444Y0014100D01*
X0173318Y0014179D01*
X0173194Y0014261D01*
X0173073Y0014346D01*
X0172954Y0014435D01*
X0172838Y0014526D01*
X0172724Y0014621D01*
X0172612Y0014719D01*
X0172504Y0014820D01*
X0172398Y0014924D01*
X0172295Y0015031D01*
X0172195Y0015140D01*
X0172097Y0015252D01*
X0172003Y0015367D01*
X0171912Y0015484D01*
X0171824Y0015603D01*
X0171740Y0015725D01*
X0171659Y0015849D01*
X0171581Y0015975D01*
X0171506Y0016104D01*
X0171435Y0016234D01*
X0171368Y0016366D01*
X0171304Y0016500D01*
X0171244Y0016635D01*
X0171187Y0016773D01*
X0171135Y0016911D01*
X0171085Y0017051D01*
X0171040Y0017192D01*
X0170999Y0017335D01*
X0170961Y0017478D01*
X0170927Y0017623D01*
X0170898Y0017768D01*
X0170872Y0017914D01*
X0170850Y0018061D01*
X0170832Y0018208D01*
X0170818Y0018356D01*
X0170808Y0018504D01*
X0170802Y0018652D01*
X0170800Y0018800D01*
D11*
X0176300Y0018800D03*
X0016300Y0116300D03*
D12*
X0091300Y0101300D03*
X0101300Y0101300D03*
X0061300Y0035050D03*
X0061300Y0025050D03*
D13*
X0016300Y0065800D03*
D14*
X0026300Y0066800D03*
X0036300Y0065800D03*
D15*
X0160800Y0036300D03*
D16*
X0161800Y0046300D03*
X0160800Y0056300D03*
X0161800Y0066300D03*
X0160800Y0076300D03*
X0161800Y0086300D03*
X0160800Y0096300D03*
X0161800Y0106300D03*
X0143800Y0058800D03*
X0131300Y0058800D03*
X0109100Y0035200D03*
X0131300Y0018800D03*
X0143800Y0018800D03*
X0109100Y0017400D03*
X0083500Y0017400D03*
X0083500Y0035200D03*
X0044100Y0035200D03*
X0044100Y0017400D03*
X0018500Y0017400D03*
X0018500Y0035200D03*
X0026300Y0088800D03*
X0026300Y0098800D03*
X0033800Y0111300D03*
X0033800Y0121300D03*
X0066300Y0098800D03*
X0066300Y0088800D03*
X0073800Y0111300D03*
X0073800Y0121300D03*
D17*
X0131300Y0073800D03*
X0141300Y0073800D03*
D18*
X0081300Y0086300D03*
D19*
X0081300Y0076300D03*
X0081300Y0066300D03*
X0081300Y0056300D03*
X0111300Y0056300D03*
X0111300Y0066300D03*
X0111300Y0076300D03*
X0111300Y0086300D03*
M02*
