%
M48
M72
T01C0.02756
T02C0.03200
T03C0.03543
T04C0.04000
T05C0.04724
T06C0.11000
%
T01
X61300Y25050
X61300Y35050
X91300Y101300
X101300Y101300
T02
X111300Y86300
X111300Y76300
X111300Y66300
X111300Y56300
X131300Y73800
X141300Y73800
X81300Y76300
X81300Y86300
X81300Y66300
X81300Y56300
T03
X66300Y88800
X66300Y98800
X73800Y111300
X73800Y121300
X33800Y121300
X33800Y111300
X26300Y98800
X26300Y88800
X131300Y58800
X143800Y58800
X143800Y18800
X131300Y18800
T04
X18500Y17400
X18500Y35200
X44100Y35200
X44100Y17400
X83500Y17400
X83500Y35200
X109100Y35200
X109100Y17400
X160800Y36300
X161800Y46300
X160800Y56300
X161800Y66300
X160800Y76300
X161800Y86300
X160800Y96300
X161800Y106300
T05
X36300Y65800
X26300Y66800
X16300Y65800
T06
X16300Y116300
X176300Y18800
M30
