G75*
%MOIN*%
%OFA0B0*%
%FSLAX25Y25*%
%IPPOS*%
%LPD*%
%AMOC8*
5,1,8,0,0,1.08239X$1,22.5*
%
%ADD10C,0.00000*%
%ADD11C,0.06500*%
%ADD12OC8,0.07087*%
%ADD13C,0.07087*%
%ADD14R,0.07400X0.07400*%
%ADD15C,0.07400*%
%ADD16OC8,0.05200*%
%ADD17R,0.05200X0.05200*%
%ADD18C,0.05200*%
%ADD19C,0.01200*%
%ADD20C,0.00600*%
%ADD21C,0.02400*%
D10*
X0001300Y0001300D02*
X0001300Y0134300D01*
X0196300Y0134300D01*
X0196300Y0001300D01*
X0001300Y0001300D01*
X0010800Y0116300D02*
X0010802Y0116448D01*
X0010808Y0116596D01*
X0010818Y0116744D01*
X0010832Y0116892D01*
X0010850Y0117039D01*
X0010872Y0117186D01*
X0010898Y0117332D01*
X0010927Y0117477D01*
X0010961Y0117622D01*
X0010999Y0117765D01*
X0011040Y0117908D01*
X0011085Y0118049D01*
X0011135Y0118189D01*
X0011187Y0118327D01*
X0011244Y0118465D01*
X0011304Y0118600D01*
X0011368Y0118734D01*
X0011435Y0118866D01*
X0011506Y0118996D01*
X0011581Y0119125D01*
X0011659Y0119251D01*
X0011740Y0119375D01*
X0011824Y0119497D01*
X0011912Y0119616D01*
X0012003Y0119733D01*
X0012097Y0119848D01*
X0012195Y0119960D01*
X0012295Y0120069D01*
X0012398Y0120176D01*
X0012504Y0120280D01*
X0012612Y0120381D01*
X0012724Y0120479D01*
X0012838Y0120574D01*
X0012954Y0120665D01*
X0013073Y0120754D01*
X0013194Y0120839D01*
X0013318Y0120921D01*
X0013444Y0121000D01*
X0013571Y0121075D01*
X0013701Y0121147D01*
X0013833Y0121216D01*
X0013966Y0121280D01*
X0014101Y0121341D01*
X0014238Y0121399D01*
X0014376Y0121453D01*
X0014516Y0121503D01*
X0014657Y0121549D01*
X0014799Y0121591D01*
X0014942Y0121630D01*
X0015086Y0121664D01*
X0015232Y0121695D01*
X0015377Y0121722D01*
X0015524Y0121745D01*
X0015671Y0121764D01*
X0015819Y0121779D01*
X0015966Y0121790D01*
X0016115Y0121797D01*
X0016263Y0121800D01*
X0016411Y0121799D01*
X0016559Y0121794D01*
X0016707Y0121785D01*
X0016855Y0121772D01*
X0017003Y0121755D01*
X0017149Y0121734D01*
X0017296Y0121709D01*
X0017441Y0121680D01*
X0017586Y0121648D01*
X0017729Y0121611D01*
X0017872Y0121571D01*
X0018014Y0121526D01*
X0018154Y0121478D01*
X0018293Y0121426D01*
X0018430Y0121371D01*
X0018566Y0121311D01*
X0018701Y0121248D01*
X0018833Y0121182D01*
X0018964Y0121112D01*
X0019093Y0121038D01*
X0019219Y0120961D01*
X0019344Y0120881D01*
X0019466Y0120797D01*
X0019587Y0120710D01*
X0019704Y0120620D01*
X0019820Y0120526D01*
X0019932Y0120430D01*
X0020042Y0120331D01*
X0020150Y0120228D01*
X0020254Y0120123D01*
X0020356Y0120015D01*
X0020454Y0119904D01*
X0020550Y0119791D01*
X0020643Y0119675D01*
X0020732Y0119557D01*
X0020818Y0119436D01*
X0020901Y0119313D01*
X0020981Y0119188D01*
X0021057Y0119061D01*
X0021130Y0118931D01*
X0021199Y0118800D01*
X0021264Y0118667D01*
X0021327Y0118533D01*
X0021385Y0118396D01*
X0021440Y0118258D01*
X0021490Y0118119D01*
X0021538Y0117978D01*
X0021581Y0117837D01*
X0021621Y0117694D01*
X0021656Y0117550D01*
X0021688Y0117405D01*
X0021716Y0117259D01*
X0021740Y0117113D01*
X0021760Y0116966D01*
X0021776Y0116818D01*
X0021788Y0116671D01*
X0021796Y0116522D01*
X0021800Y0116374D01*
X0021800Y0116226D01*
X0021796Y0116078D01*
X0021788Y0115929D01*
X0021776Y0115782D01*
X0021760Y0115634D01*
X0021740Y0115487D01*
X0021716Y0115341D01*
X0021688Y0115195D01*
X0021656Y0115050D01*
X0021621Y0114906D01*
X0021581Y0114763D01*
X0021538Y0114622D01*
X0021490Y0114481D01*
X0021440Y0114342D01*
X0021385Y0114204D01*
X0021327Y0114067D01*
X0021264Y0113933D01*
X0021199Y0113800D01*
X0021130Y0113669D01*
X0021057Y0113539D01*
X0020981Y0113412D01*
X0020901Y0113287D01*
X0020818Y0113164D01*
X0020732Y0113043D01*
X0020643Y0112925D01*
X0020550Y0112809D01*
X0020454Y0112696D01*
X0020356Y0112585D01*
X0020254Y0112477D01*
X0020150Y0112372D01*
X0020042Y0112269D01*
X0019932Y0112170D01*
X0019820Y0112074D01*
X0019704Y0111980D01*
X0019587Y0111890D01*
X0019466Y0111803D01*
X0019344Y0111719D01*
X0019219Y0111639D01*
X0019093Y0111562D01*
X0018964Y0111488D01*
X0018833Y0111418D01*
X0018701Y0111352D01*
X0018566Y0111289D01*
X0018430Y0111229D01*
X0018293Y0111174D01*
X0018154Y0111122D01*
X0018014Y0111074D01*
X0017872Y0111029D01*
X0017729Y0110989D01*
X0017586Y0110952D01*
X0017441Y0110920D01*
X0017296Y0110891D01*
X0017149Y0110866D01*
X0017003Y0110845D01*
X0016855Y0110828D01*
X0016707Y0110815D01*
X0016559Y0110806D01*
X0016411Y0110801D01*
X0016263Y0110800D01*
X0016115Y0110803D01*
X0015966Y0110810D01*
X0015819Y0110821D01*
X0015671Y0110836D01*
X0015524Y0110855D01*
X0015377Y0110878D01*
X0015232Y0110905D01*
X0015086Y0110936D01*
X0014942Y0110970D01*
X0014799Y0111009D01*
X0014657Y0111051D01*
X0014516Y0111097D01*
X0014376Y0111147D01*
X0014238Y0111201D01*
X0014101Y0111259D01*
X0013966Y0111320D01*
X0013833Y0111384D01*
X0013701Y0111453D01*
X0013571Y0111525D01*
X0013444Y0111600D01*
X0013318Y0111679D01*
X0013194Y0111761D01*
X0013073Y0111846D01*
X0012954Y0111935D01*
X0012838Y0112026D01*
X0012724Y0112121D01*
X0012612Y0112219D01*
X0012504Y0112320D01*
X0012398Y0112424D01*
X0012295Y0112531D01*
X0012195Y0112640D01*
X0012097Y0112752D01*
X0012003Y0112867D01*
X0011912Y0112984D01*
X0011824Y0113103D01*
X0011740Y0113225D01*
X0011659Y0113349D01*
X0011581Y0113475D01*
X0011506Y0113604D01*
X0011435Y0113734D01*
X0011368Y0113866D01*
X0011304Y0114000D01*
X0011244Y0114135D01*
X0011187Y0114273D01*
X0011135Y0114411D01*
X0011085Y0114551D01*
X0011040Y0114692D01*
X0010999Y0114835D01*
X0010961Y0114978D01*
X0010927Y0115123D01*
X0010898Y0115268D01*
X0010872Y0115414D01*
X0010850Y0115561D01*
X0010832Y0115708D01*
X0010818Y0115856D01*
X0010808Y0116004D01*
X0010802Y0116152D01*
X0010800Y0116300D01*
X0170800Y0018800D02*
X0170802Y0018948D01*
X0170808Y0019096D01*
X0170818Y0019244D01*
X0170832Y0019392D01*
X0170850Y0019539D01*
X0170872Y0019686D01*
X0170898Y0019832D01*
X0170927Y0019977D01*
X0170961Y0020122D01*
X0170999Y0020265D01*
X0171040Y0020408D01*
X0171085Y0020549D01*
X0171135Y0020689D01*
X0171187Y0020827D01*
X0171244Y0020965D01*
X0171304Y0021100D01*
X0171368Y0021234D01*
X0171435Y0021366D01*
X0171506Y0021496D01*
X0171581Y0021625D01*
X0171659Y0021751D01*
X0171740Y0021875D01*
X0171824Y0021997D01*
X0171912Y0022116D01*
X0172003Y0022233D01*
X0172097Y0022348D01*
X0172195Y0022460D01*
X0172295Y0022569D01*
X0172398Y0022676D01*
X0172504Y0022780D01*
X0172612Y0022881D01*
X0172724Y0022979D01*
X0172838Y0023074D01*
X0172954Y0023165D01*
X0173073Y0023254D01*
X0173194Y0023339D01*
X0173318Y0023421D01*
X0173444Y0023500D01*
X0173571Y0023575D01*
X0173701Y0023647D01*
X0173833Y0023716D01*
X0173966Y0023780D01*
X0174101Y0023841D01*
X0174238Y0023899D01*
X0174376Y0023953D01*
X0174516Y0024003D01*
X0174657Y0024049D01*
X0174799Y0024091D01*
X0174942Y0024130D01*
X0175086Y0024164D01*
X0175232Y0024195D01*
X0175377Y0024222D01*
X0175524Y0024245D01*
X0175671Y0024264D01*
X0175819Y0024279D01*
X0175966Y0024290D01*
X0176115Y0024297D01*
X0176263Y0024300D01*
X0176411Y0024299D01*
X0176559Y0024294D01*
X0176707Y0024285D01*
X0176855Y0024272D01*
X0177003Y0024255D01*
X0177149Y0024234D01*
X0177296Y0024209D01*
X0177441Y0024180D01*
X0177586Y0024148D01*
X0177729Y0024111D01*
X0177872Y0024071D01*
X0178014Y0024026D01*
X0178154Y0023978D01*
X0178293Y0023926D01*
X0178430Y0023871D01*
X0178566Y0023811D01*
X0178701Y0023748D01*
X0178833Y0023682D01*
X0178964Y0023612D01*
X0179093Y0023538D01*
X0179219Y0023461D01*
X0179344Y0023381D01*
X0179466Y0023297D01*
X0179587Y0023210D01*
X0179704Y0023120D01*
X0179820Y0023026D01*
X0179932Y0022930D01*
X0180042Y0022831D01*
X0180150Y0022728D01*
X0180254Y0022623D01*
X0180356Y0022515D01*
X0180454Y0022404D01*
X0180550Y0022291D01*
X0180643Y0022175D01*
X0180732Y0022057D01*
X0180818Y0021936D01*
X0180901Y0021813D01*
X0180981Y0021688D01*
X0181057Y0021561D01*
X0181130Y0021431D01*
X0181199Y0021300D01*
X0181264Y0021167D01*
X0181327Y0021033D01*
X0181385Y0020896D01*
X0181440Y0020758D01*
X0181490Y0020619D01*
X0181538Y0020478D01*
X0181581Y0020337D01*
X0181621Y0020194D01*
X0181656Y0020050D01*
X0181688Y0019905D01*
X0181716Y0019759D01*
X0181740Y0019613D01*
X0181760Y0019466D01*
X0181776Y0019318D01*
X0181788Y0019171D01*
X0181796Y0019022D01*
X0181800Y0018874D01*
X0181800Y0018726D01*
X0181796Y0018578D01*
X0181788Y0018429D01*
X0181776Y0018282D01*
X0181760Y0018134D01*
X0181740Y0017987D01*
X0181716Y0017841D01*
X0181688Y0017695D01*
X0181656Y0017550D01*
X0181621Y0017406D01*
X0181581Y0017263D01*
X0181538Y0017122D01*
X0181490Y0016981D01*
X0181440Y0016842D01*
X0181385Y0016704D01*
X0181327Y0016567D01*
X0181264Y0016433D01*
X0181199Y0016300D01*
X0181130Y0016169D01*
X0181057Y0016039D01*
X0180981Y0015912D01*
X0180901Y0015787D01*
X0180818Y0015664D01*
X0180732Y0015543D01*
X0180643Y0015425D01*
X0180550Y0015309D01*
X0180454Y0015196D01*
X0180356Y0015085D01*
X0180254Y0014977D01*
X0180150Y0014872D01*
X0180042Y0014769D01*
X0179932Y0014670D01*
X0179820Y0014574D01*
X0179704Y0014480D01*
X0179587Y0014390D01*
X0179466Y0014303D01*
X0179344Y0014219D01*
X0179219Y0014139D01*
X0179093Y0014062D01*
X0178964Y0013988D01*
X0178833Y0013918D01*
X0178701Y0013852D01*
X0178566Y0013789D01*
X0178430Y0013729D01*
X0178293Y0013674D01*
X0178154Y0013622D01*
X0178014Y0013574D01*
X0177872Y0013529D01*
X0177729Y0013489D01*
X0177586Y0013452D01*
X0177441Y0013420D01*
X0177296Y0013391D01*
X0177149Y0013366D01*
X0177003Y0013345D01*
X0176855Y0013328D01*
X0176707Y0013315D01*
X0176559Y0013306D01*
X0176411Y0013301D01*
X0176263Y0013300D01*
X0176115Y0013303D01*
X0175966Y0013310D01*
X0175819Y0013321D01*
X0175671Y0013336D01*
X0175524Y0013355D01*
X0175377Y0013378D01*
X0175232Y0013405D01*
X0175086Y0013436D01*
X0174942Y0013470D01*
X0174799Y0013509D01*
X0174657Y0013551D01*
X0174516Y0013597D01*
X0174376Y0013647D01*
X0174238Y0013701D01*
X0174101Y0013759D01*
X0173966Y0013820D01*
X0173833Y0013884D01*
X0173701Y0013953D01*
X0173571Y0014025D01*
X0173444Y0014100D01*
X0173318Y0014179D01*
X0173194Y0014261D01*
X0173073Y0014346D01*
X0172954Y0014435D01*
X0172838Y0014526D01*
X0172724Y0014621D01*
X0172612Y0014719D01*
X0172504Y0014820D01*
X0172398Y0014924D01*
X0172295Y0015031D01*
X0172195Y0015140D01*
X0172097Y0015252D01*
X0172003Y0015367D01*
X0171912Y0015484D01*
X0171824Y0015603D01*
X0171740Y0015725D01*
X0171659Y0015849D01*
X0171581Y0015975D01*
X0171506Y0016104D01*
X0171435Y0016234D01*
X0171368Y0016366D01*
X0171304Y0016500D01*
X0171244Y0016635D01*
X0171187Y0016773D01*
X0171135Y0016911D01*
X0171085Y0017051D01*
X0171040Y0017192D01*
X0170999Y0017335D01*
X0170961Y0017478D01*
X0170927Y0017623D01*
X0170898Y0017768D01*
X0170872Y0017914D01*
X0170850Y0018061D01*
X0170832Y0018208D01*
X0170818Y0018356D01*
X0170808Y0018504D01*
X0170802Y0018652D01*
X0170800Y0018800D01*
D11*
X0101300Y0101300D03*
X0091300Y0101300D03*
X0051300Y0035050D03*
X0051300Y0025050D03*
D12*
X0016300Y0065800D03*
D13*
X0026300Y0066800D03*
X0036300Y0065800D03*
D14*
X0155800Y0036300D03*
D15*
X0156800Y0046300D03*
X0155800Y0056300D03*
X0156800Y0066300D03*
X0155800Y0076300D03*
X0156800Y0086300D03*
X0155800Y0096300D03*
X0156800Y0106300D03*
X0133800Y0058800D03*
X0109100Y0035200D03*
X0083500Y0035200D03*
X0083500Y0017400D03*
X0109100Y0017400D03*
X0133800Y0018800D03*
X0066300Y0088800D03*
X0066300Y0098800D03*
X0073800Y0111300D03*
X0073800Y0121300D03*
X0033800Y0121300D03*
X0033800Y0111300D03*
X0026300Y0098800D03*
X0026300Y0088800D03*
D16*
X0131300Y0073800D03*
X0141300Y0073800D03*
D17*
X0081300Y0086300D03*
D18*
X0081300Y0076300D03*
X0081300Y0066300D03*
X0081300Y0056300D03*
X0111300Y0056300D03*
X0111300Y0066300D03*
X0111300Y0076300D03*
X0111300Y0086300D03*
D19*
X0111300Y0076300D02*
X0121300Y0066300D01*
X0121300Y0046300D01*
X0110200Y0035200D01*
X0109100Y0035200D01*
X0081300Y0086300D02*
X0073800Y0093800D01*
X0073800Y0111300D01*
X0033800Y0111300D02*
X0033800Y0121300D01*
X0033800Y0111300D02*
X0033800Y0083300D01*
X0016300Y0065800D01*
D20*
X0016600Y0065939D02*
X0021857Y0065939D01*
X0021857Y0065916D02*
X0022533Y0064283D01*
X0023783Y0063033D01*
X0025416Y0062357D01*
X0027184Y0062357D01*
X0028817Y0063033D01*
X0030067Y0064283D01*
X0030743Y0065916D01*
X0030743Y0067684D01*
X0030067Y0069317D01*
X0028817Y0070567D01*
X0027184Y0071243D01*
X0025416Y0071243D01*
X0023783Y0070567D01*
X0022533Y0069317D01*
X0021857Y0067684D01*
X0021857Y0065916D01*
X0021857Y0066538D02*
X0021143Y0066538D01*
X0021143Y0066100D02*
X0021143Y0067806D01*
X0018306Y0070643D01*
X0016600Y0070643D01*
X0016600Y0066100D01*
X0016000Y0066100D01*
X0016000Y0070643D01*
X0014294Y0070643D01*
X0011457Y0067806D01*
X0011457Y0066100D01*
X0016000Y0066100D01*
X0016000Y0065500D01*
X0011457Y0065500D01*
X0011457Y0063794D01*
X0014294Y0060957D01*
X0016000Y0060957D01*
X0016000Y0065500D01*
X0016600Y0065500D01*
X0016600Y0066100D01*
X0021143Y0066100D01*
X0021143Y0065500D02*
X0016600Y0065500D01*
X0016600Y0060957D01*
X0018306Y0060957D01*
X0021143Y0063794D01*
X0021143Y0065500D01*
X0021143Y0065341D02*
X0022095Y0065341D01*
X0022343Y0064742D02*
X0021143Y0064742D01*
X0021143Y0064144D02*
X0022673Y0064144D01*
X0023271Y0063545D02*
X0020895Y0063545D01*
X0020296Y0062947D02*
X0023992Y0062947D01*
X0028608Y0062947D02*
X0032870Y0062947D01*
X0032533Y0063283D02*
X0033783Y0062033D01*
X0035416Y0061357D01*
X0037184Y0061357D01*
X0038817Y0062033D01*
X0040067Y0063283D01*
X0040743Y0064916D01*
X0040743Y0066684D01*
X0040067Y0068317D01*
X0038817Y0069567D01*
X0037184Y0070243D01*
X0035416Y0070243D01*
X0033783Y0069567D01*
X0032533Y0068317D01*
X0031857Y0066684D01*
X0031857Y0064916D01*
X0032533Y0063283D01*
X0032425Y0063545D02*
X0029329Y0063545D01*
X0029927Y0064144D02*
X0032177Y0064144D01*
X0031929Y0064742D02*
X0030257Y0064742D01*
X0030505Y0065341D02*
X0031857Y0065341D01*
X0031857Y0065939D02*
X0030743Y0065939D01*
X0030743Y0066538D02*
X0031857Y0066538D01*
X0032044Y0067136D02*
X0030743Y0067136D01*
X0030722Y0067735D02*
X0032292Y0067735D01*
X0032549Y0068333D02*
X0030474Y0068333D01*
X0030226Y0068932D02*
X0033148Y0068932D01*
X0033747Y0069530D02*
X0029853Y0069530D01*
X0029255Y0070129D02*
X0035140Y0070129D01*
X0037460Y0070129D02*
X0115350Y0070129D01*
X0114751Y0070727D02*
X0028430Y0070727D01*
X0024170Y0070727D02*
X0005600Y0070727D01*
X0005600Y0070129D02*
X0013779Y0070129D01*
X0013181Y0069530D02*
X0005600Y0069530D01*
X0005600Y0068932D02*
X0012582Y0068932D01*
X0011984Y0068333D02*
X0005600Y0068333D01*
X0005600Y0067735D02*
X0011457Y0067735D01*
X0011457Y0067136D02*
X0005600Y0067136D01*
X0005600Y0066538D02*
X0011457Y0066538D01*
X0011457Y0065341D02*
X0005600Y0065341D01*
X0005600Y0065939D02*
X0016000Y0065939D01*
X0016000Y0065341D02*
X0016600Y0065341D01*
X0016600Y0064742D02*
X0016000Y0064742D01*
X0016000Y0064144D02*
X0016600Y0064144D01*
X0016600Y0063545D02*
X0016000Y0063545D01*
X0016000Y0062947D02*
X0016600Y0062947D01*
X0016600Y0062348D02*
X0016000Y0062348D01*
X0016000Y0061750D02*
X0016600Y0061750D01*
X0016600Y0061151D02*
X0016000Y0061151D01*
X0014099Y0061151D02*
X0005600Y0061151D01*
X0005600Y0060553D02*
X0119800Y0060553D01*
X0119800Y0061151D02*
X0018501Y0061151D01*
X0019099Y0061750D02*
X0034467Y0061750D01*
X0033468Y0062348D02*
X0019698Y0062348D01*
X0021143Y0067136D02*
X0021857Y0067136D01*
X0021878Y0067735D02*
X0021143Y0067735D01*
X0020616Y0068333D02*
X0022126Y0068333D01*
X0022374Y0068932D02*
X0020018Y0068932D01*
X0019419Y0069530D02*
X0022747Y0069530D01*
X0023345Y0070129D02*
X0018821Y0070129D01*
X0016600Y0070129D02*
X0016000Y0070129D01*
X0016000Y0069530D02*
X0016600Y0069530D01*
X0016600Y0068932D02*
X0016000Y0068932D01*
X0016000Y0068333D02*
X0016600Y0068333D01*
X0016600Y0067735D02*
X0016000Y0067735D01*
X0016000Y0067136D02*
X0016600Y0067136D01*
X0016600Y0066538D02*
X0016000Y0066538D01*
X0011457Y0064742D02*
X0005600Y0064742D01*
X0005600Y0064144D02*
X0011457Y0064144D01*
X0011705Y0063545D02*
X0005600Y0063545D01*
X0005600Y0062947D02*
X0012304Y0062947D01*
X0012902Y0062348D02*
X0005600Y0062348D01*
X0005600Y0061750D02*
X0013501Y0061750D01*
X0005600Y0059954D02*
X0119800Y0059954D01*
X0119800Y0059356D02*
X0113069Y0059356D01*
X0113283Y0059267D02*
X0111996Y0059800D01*
X0110604Y0059800D01*
X0109317Y0059267D01*
X0108333Y0058283D01*
X0107800Y0056996D01*
X0107800Y0055604D01*
X0108333Y0054317D01*
X0109317Y0053333D01*
X0110604Y0052800D01*
X0111996Y0052800D01*
X0113283Y0053333D01*
X0114267Y0054317D01*
X0114800Y0055604D01*
X0114800Y0056996D01*
X0114267Y0058283D01*
X0113283Y0059267D01*
X0113793Y0058757D02*
X0119800Y0058757D01*
X0119800Y0058159D02*
X0114319Y0058159D01*
X0114566Y0057560D02*
X0119800Y0057560D01*
X0119800Y0056962D02*
X0114800Y0056962D01*
X0114800Y0056363D02*
X0119800Y0056363D01*
X0119800Y0055765D02*
X0114800Y0055765D01*
X0114619Y0055166D02*
X0119800Y0055166D01*
X0119800Y0054568D02*
X0114371Y0054568D01*
X0113919Y0053969D02*
X0119800Y0053969D01*
X0119800Y0053370D02*
X0113320Y0053370D01*
X0109280Y0053370D02*
X0083320Y0053370D01*
X0083283Y0053333D02*
X0084267Y0054317D01*
X0084800Y0055604D01*
X0084800Y0056996D01*
X0084267Y0058283D01*
X0083283Y0059267D01*
X0081996Y0059800D01*
X0080604Y0059800D01*
X0079317Y0059267D01*
X0078333Y0058283D01*
X0077800Y0056996D01*
X0077800Y0055604D01*
X0078333Y0054317D01*
X0079317Y0053333D01*
X0080604Y0052800D01*
X0081996Y0052800D01*
X0083283Y0053333D01*
X0083919Y0053969D02*
X0108681Y0053969D01*
X0108229Y0054568D02*
X0084371Y0054568D01*
X0084619Y0055166D02*
X0107981Y0055166D01*
X0107800Y0055765D02*
X0084800Y0055765D01*
X0084800Y0056363D02*
X0107800Y0056363D01*
X0107800Y0056962D02*
X0084800Y0056962D01*
X0084566Y0057560D02*
X0108034Y0057560D01*
X0108281Y0058159D02*
X0084319Y0058159D01*
X0083793Y0058757D02*
X0108807Y0058757D01*
X0109531Y0059356D02*
X0083069Y0059356D01*
X0079531Y0059356D02*
X0005600Y0059356D01*
X0005600Y0058757D02*
X0078807Y0058757D01*
X0078281Y0058159D02*
X0005600Y0058159D01*
X0005600Y0057560D02*
X0078034Y0057560D01*
X0077800Y0056962D02*
X0005600Y0056962D01*
X0005600Y0056363D02*
X0077800Y0056363D01*
X0077800Y0055765D02*
X0005600Y0055765D01*
X0005600Y0055166D02*
X0077981Y0055166D01*
X0078229Y0054568D02*
X0005600Y0054568D01*
X0005600Y0053969D02*
X0078681Y0053969D01*
X0079280Y0053370D02*
X0005600Y0053370D01*
X0005600Y0052772D02*
X0119800Y0052772D01*
X0119800Y0052173D02*
X0005600Y0052173D01*
X0005600Y0051575D02*
X0119800Y0051575D01*
X0119800Y0050976D02*
X0005600Y0050976D01*
X0005600Y0050378D02*
X0119800Y0050378D01*
X0119800Y0049779D02*
X0005600Y0049779D01*
X0005600Y0049181D02*
X0119800Y0049181D01*
X0119800Y0048582D02*
X0005600Y0048582D01*
X0005600Y0047984D02*
X0119800Y0047984D01*
X0119800Y0047385D02*
X0005600Y0047385D01*
X0005600Y0046787D02*
X0119666Y0046787D01*
X0119800Y0046921D02*
X0111842Y0038963D01*
X0111706Y0039100D01*
X0110015Y0039800D01*
X0108185Y0039800D01*
X0106494Y0039100D01*
X0105200Y0037806D01*
X0104500Y0036115D01*
X0104500Y0034285D01*
X0105200Y0032594D01*
X0106494Y0031300D01*
X0108185Y0030600D01*
X0110015Y0030600D01*
X0111706Y0031300D01*
X0113000Y0032594D01*
X0113700Y0034285D01*
X0113700Y0036115D01*
X0113564Y0036443D01*
X0122800Y0045679D01*
X0122800Y0066921D01*
X0121921Y0067800D01*
X0114600Y0075121D01*
X0114800Y0075604D01*
X0114800Y0076996D01*
X0114267Y0078283D01*
X0113283Y0079267D01*
X0111996Y0079800D01*
X0110604Y0079800D01*
X0109317Y0079267D01*
X0108333Y0078283D01*
X0107800Y0076996D01*
X0107800Y0075604D01*
X0108333Y0074317D01*
X0109317Y0073333D01*
X0110604Y0072800D01*
X0111996Y0072800D01*
X0112479Y0073000D01*
X0119800Y0065679D01*
X0119800Y0046921D01*
X0119067Y0046188D02*
X0005600Y0046188D01*
X0005600Y0045590D02*
X0118469Y0045590D01*
X0117870Y0044991D02*
X0005600Y0044991D01*
X0005600Y0044393D02*
X0117272Y0044393D01*
X0116673Y0043794D02*
X0005600Y0043794D01*
X0005600Y0043196D02*
X0116074Y0043196D01*
X0115476Y0042597D02*
X0005600Y0042597D01*
X0005600Y0041999D02*
X0114877Y0041999D01*
X0114279Y0041400D02*
X0005600Y0041400D01*
X0005600Y0040802D02*
X0113680Y0040802D01*
X0113082Y0040203D02*
X0005600Y0040203D01*
X0005600Y0039605D02*
X0082114Y0039605D01*
X0082585Y0039800D02*
X0080894Y0039100D01*
X0079600Y0037806D01*
X0078900Y0036115D01*
X0078900Y0034285D01*
X0079600Y0032594D01*
X0080894Y0031300D01*
X0082585Y0030600D01*
X0084415Y0030600D01*
X0086106Y0031300D01*
X0087400Y0032594D01*
X0088100Y0034285D01*
X0088100Y0036115D01*
X0087400Y0037806D01*
X0086106Y0039100D01*
X0084415Y0039800D01*
X0082585Y0039800D01*
X0080801Y0039006D02*
X0052593Y0039006D01*
X0052125Y0039200D02*
X0050475Y0039200D01*
X0048949Y0038568D01*
X0047782Y0037401D01*
X0047150Y0035875D01*
X0047150Y0034225D01*
X0047782Y0032699D01*
X0048949Y0031532D01*
X0050475Y0030900D01*
X0052125Y0030900D01*
X0053651Y0031532D01*
X0054818Y0032699D01*
X0055450Y0034225D01*
X0055450Y0035875D01*
X0054818Y0037401D01*
X0053651Y0038568D01*
X0052125Y0039200D01*
X0053811Y0038408D02*
X0080202Y0038408D01*
X0079604Y0037809D02*
X0054410Y0037809D01*
X0054897Y0037211D02*
X0079354Y0037211D01*
X0079106Y0036612D02*
X0055145Y0036612D01*
X0055393Y0036014D02*
X0078900Y0036014D01*
X0078900Y0035415D02*
X0055450Y0035415D01*
X0055450Y0034817D02*
X0078900Y0034817D01*
X0078928Y0034218D02*
X0055447Y0034218D01*
X0055199Y0033620D02*
X0079176Y0033620D01*
X0079424Y0033021D02*
X0054952Y0033021D01*
X0054542Y0032423D02*
X0079772Y0032423D01*
X0080371Y0031824D02*
X0053943Y0031824D01*
X0052911Y0031226D02*
X0081075Y0031226D01*
X0082520Y0030627D02*
X0005600Y0030627D01*
X0005600Y0030029D02*
X0192000Y0030029D01*
X0192000Y0030627D02*
X0110080Y0030627D01*
X0111525Y0031226D02*
X0192000Y0031226D01*
X0192000Y0031824D02*
X0160553Y0031824D01*
X0160540Y0031802D02*
X0160711Y0032098D01*
X0160800Y0032429D01*
X0160800Y0036000D01*
X0156100Y0036000D01*
X0156100Y0036600D01*
X0155500Y0036600D01*
X0155500Y0041300D01*
X0151929Y0041300D01*
X0151598Y0041211D01*
X0151302Y0041040D01*
X0151060Y0040798D01*
X0150889Y0040502D01*
X0150800Y0040171D01*
X0150800Y0036600D01*
X0155500Y0036600D01*
X0155500Y0036000D01*
X0150800Y0036000D01*
X0150800Y0032429D01*
X0150889Y0032098D01*
X0151060Y0031802D01*
X0151302Y0031560D01*
X0151598Y0031389D01*
X0151929Y0031300D01*
X0155500Y0031300D01*
X0155500Y0036000D01*
X0156100Y0036000D01*
X0156100Y0031300D01*
X0159671Y0031300D01*
X0160002Y0031389D01*
X0160298Y0031560D01*
X0160540Y0031802D01*
X0160798Y0032423D02*
X0192000Y0032423D01*
X0192000Y0033021D02*
X0160800Y0033021D01*
X0160800Y0033620D02*
X0192000Y0033620D01*
X0192000Y0034218D02*
X0160800Y0034218D01*
X0160800Y0034817D02*
X0192000Y0034817D01*
X0192000Y0035415D02*
X0160800Y0035415D01*
X0160800Y0036600D02*
X0160800Y0040171D01*
X0160711Y0040502D01*
X0160540Y0040798D01*
X0160298Y0041040D01*
X0160002Y0041211D01*
X0159671Y0041300D01*
X0156100Y0041300D01*
X0156100Y0036600D01*
X0160800Y0036600D01*
X0160800Y0036612D02*
X0192000Y0036612D01*
X0192000Y0036014D02*
X0156100Y0036014D01*
X0156100Y0036612D02*
X0155500Y0036612D01*
X0155500Y0036014D02*
X0113700Y0036014D01*
X0113700Y0035415D02*
X0150800Y0035415D01*
X0150800Y0034817D02*
X0113700Y0034817D01*
X0113672Y0034218D02*
X0150800Y0034218D01*
X0150800Y0033620D02*
X0113424Y0033620D01*
X0113176Y0033021D02*
X0150800Y0033021D01*
X0150802Y0032423D02*
X0112828Y0032423D01*
X0112229Y0031824D02*
X0151047Y0031824D01*
X0155500Y0031824D02*
X0156100Y0031824D01*
X0156100Y0032423D02*
X0155500Y0032423D01*
X0155500Y0033021D02*
X0156100Y0033021D01*
X0156100Y0033620D02*
X0155500Y0033620D01*
X0155500Y0034218D02*
X0156100Y0034218D01*
X0156100Y0034817D02*
X0155500Y0034817D01*
X0155500Y0035415D02*
X0156100Y0035415D01*
X0156100Y0037211D02*
X0155500Y0037211D01*
X0155500Y0037809D02*
X0156100Y0037809D01*
X0156100Y0038408D02*
X0155500Y0038408D01*
X0155500Y0039006D02*
X0156100Y0039006D01*
X0156100Y0039605D02*
X0155500Y0039605D01*
X0155500Y0040203D02*
X0156100Y0040203D01*
X0156100Y0040802D02*
X0155500Y0040802D01*
X0155885Y0041700D02*
X0157715Y0041700D01*
X0159406Y0042400D01*
X0160700Y0043694D01*
X0161400Y0045385D01*
X0161400Y0047215D01*
X0160700Y0048906D01*
X0159406Y0050200D01*
X0157715Y0050900D01*
X0155885Y0050900D01*
X0154194Y0050200D01*
X0152900Y0048906D01*
X0152200Y0047215D01*
X0152200Y0045385D01*
X0152900Y0043694D01*
X0154194Y0042400D01*
X0155885Y0041700D01*
X0155164Y0041999D02*
X0119120Y0041999D01*
X0119719Y0042597D02*
X0153997Y0042597D01*
X0153399Y0043196D02*
X0120317Y0043196D01*
X0120916Y0043794D02*
X0152859Y0043794D01*
X0152611Y0044393D02*
X0121514Y0044393D01*
X0122113Y0044991D02*
X0152363Y0044991D01*
X0152200Y0045590D02*
X0122711Y0045590D01*
X0122800Y0046188D02*
X0152200Y0046188D01*
X0152200Y0046787D02*
X0122800Y0046787D01*
X0122800Y0047385D02*
X0152271Y0047385D01*
X0152518Y0047984D02*
X0122800Y0047984D01*
X0122800Y0048582D02*
X0152766Y0048582D01*
X0153176Y0049181D02*
X0122800Y0049181D01*
X0122800Y0049779D02*
X0153774Y0049779D01*
X0154625Y0050378D02*
X0122800Y0050378D01*
X0122800Y0050976D02*
X0192000Y0050976D01*
X0192000Y0050378D02*
X0158975Y0050378D01*
X0159826Y0049779D02*
X0192000Y0049779D01*
X0192000Y0049181D02*
X0160424Y0049181D01*
X0160834Y0048582D02*
X0192000Y0048582D01*
X0192000Y0047984D02*
X0161082Y0047984D01*
X0161329Y0047385D02*
X0192000Y0047385D01*
X0192000Y0046787D02*
X0161400Y0046787D01*
X0161400Y0046188D02*
X0192000Y0046188D01*
X0192000Y0045590D02*
X0161400Y0045590D01*
X0161237Y0044991D02*
X0192000Y0044991D01*
X0192000Y0044393D02*
X0160989Y0044393D01*
X0160741Y0043794D02*
X0192000Y0043794D01*
X0192000Y0043196D02*
X0160201Y0043196D01*
X0159603Y0042597D02*
X0192000Y0042597D01*
X0192000Y0041999D02*
X0158436Y0041999D01*
X0160537Y0040802D02*
X0192000Y0040802D01*
X0192000Y0041400D02*
X0118522Y0041400D01*
X0117923Y0040802D02*
X0151063Y0040802D01*
X0150809Y0040203D02*
X0117325Y0040203D01*
X0116726Y0039605D02*
X0150800Y0039605D01*
X0150800Y0039006D02*
X0116128Y0039006D01*
X0115529Y0038408D02*
X0150800Y0038408D01*
X0150800Y0037809D02*
X0114930Y0037809D01*
X0114332Y0037211D02*
X0150800Y0037211D01*
X0150800Y0036612D02*
X0113733Y0036612D01*
X0111885Y0039006D02*
X0111799Y0039006D01*
X0112483Y0039605D02*
X0110486Y0039605D01*
X0107714Y0039605D02*
X0084886Y0039605D01*
X0086199Y0039006D02*
X0106401Y0039006D01*
X0105802Y0038408D02*
X0086798Y0038408D01*
X0087396Y0037809D02*
X0105204Y0037809D01*
X0104954Y0037211D02*
X0087646Y0037211D01*
X0087894Y0036612D02*
X0104706Y0036612D01*
X0104500Y0036014D02*
X0088100Y0036014D01*
X0088100Y0035415D02*
X0104500Y0035415D01*
X0104500Y0034817D02*
X0088100Y0034817D01*
X0088072Y0034218D02*
X0104528Y0034218D01*
X0104776Y0033620D02*
X0087824Y0033620D01*
X0087576Y0033021D02*
X0105024Y0033021D01*
X0105372Y0032423D02*
X0087228Y0032423D01*
X0086629Y0031824D02*
X0105971Y0031824D01*
X0106675Y0031226D02*
X0085925Y0031226D01*
X0084480Y0030627D02*
X0108120Y0030627D01*
X0108185Y0022000D02*
X0106494Y0021300D01*
X0105200Y0020006D01*
X0104500Y0018315D01*
X0104500Y0016485D01*
X0105200Y0014794D01*
X0106494Y0013500D01*
X0108185Y0012800D01*
X0110015Y0012800D01*
X0111706Y0013500D01*
X0113000Y0014794D01*
X0113700Y0016485D01*
X0113700Y0018315D01*
X0113000Y0020006D01*
X0111706Y0021300D01*
X0110015Y0022000D01*
X0108185Y0022000D01*
X0107339Y0021649D02*
X0085261Y0021649D01*
X0086106Y0021300D02*
X0084415Y0022000D01*
X0082585Y0022000D01*
X0080894Y0021300D01*
X0079600Y0020006D01*
X0078900Y0018315D01*
X0078900Y0016485D01*
X0079600Y0014794D01*
X0080894Y0013500D01*
X0082585Y0012800D01*
X0084415Y0012800D01*
X0086106Y0013500D01*
X0087400Y0014794D01*
X0088100Y0016485D01*
X0088100Y0018315D01*
X0087400Y0020006D01*
X0086106Y0021300D01*
X0086354Y0021051D02*
X0106245Y0021051D01*
X0105647Y0020452D02*
X0086953Y0020452D01*
X0087463Y0019854D02*
X0105137Y0019854D01*
X0104890Y0019255D02*
X0087710Y0019255D01*
X0087958Y0018657D02*
X0104642Y0018657D01*
X0104500Y0018058D02*
X0088100Y0018058D01*
X0088100Y0017460D02*
X0104500Y0017460D01*
X0104500Y0016861D02*
X0088100Y0016861D01*
X0088008Y0016263D02*
X0104592Y0016263D01*
X0104840Y0015664D02*
X0087760Y0015664D01*
X0087512Y0015066D02*
X0105088Y0015066D01*
X0105527Y0014467D02*
X0087073Y0014467D01*
X0086474Y0013869D02*
X0106126Y0013869D01*
X0107050Y0013270D02*
X0085550Y0013270D01*
X0081450Y0013270D02*
X0005600Y0013270D01*
X0005600Y0012672D02*
X0168569Y0012672D01*
X0167992Y0013249D02*
X0170749Y0010492D01*
X0174351Y0009000D01*
X0178249Y0009000D01*
X0181851Y0010492D01*
X0184608Y0013249D01*
X0186100Y0016851D01*
X0186100Y0020749D01*
X0184608Y0024351D01*
X0181851Y0027108D01*
X0178249Y0028600D01*
X0174351Y0028600D01*
X0170749Y0027108D01*
X0167992Y0024351D01*
X0166500Y0020749D01*
X0166500Y0016851D01*
X0167992Y0013249D01*
X0167983Y0013270D02*
X0111150Y0013270D01*
X0112074Y0013869D02*
X0132972Y0013869D01*
X0132629Y0013923D02*
X0133406Y0013800D01*
X0133500Y0013800D01*
X0133500Y0018500D01*
X0128800Y0018500D01*
X0128800Y0018406D01*
X0128923Y0017629D01*
X0129166Y0016881D01*
X0129524Y0016179D01*
X0129986Y0015543D01*
X0130543Y0014986D01*
X0131179Y0014524D01*
X0131881Y0014166D01*
X0132629Y0013923D01*
X0133500Y0013869D02*
X0134100Y0013869D01*
X0134100Y0013800D02*
X0134194Y0013800D01*
X0134971Y0013923D01*
X0135719Y0014166D01*
X0136421Y0014524D01*
X0137057Y0014986D01*
X0137614Y0015543D01*
X0138076Y0016179D01*
X0138434Y0016881D01*
X0138677Y0017629D01*
X0138800Y0018406D01*
X0138800Y0018500D01*
X0134100Y0018500D01*
X0134100Y0019100D01*
X0133500Y0019100D01*
X0133500Y0023800D01*
X0133406Y0023800D01*
X0132629Y0023677D01*
X0131881Y0023434D01*
X0131179Y0023076D01*
X0130543Y0022614D01*
X0129986Y0022057D01*
X0129524Y0021421D01*
X0129166Y0020719D01*
X0128923Y0019971D01*
X0128800Y0019194D01*
X0128800Y0019100D01*
X0133500Y0019100D01*
X0133500Y0018500D01*
X0134100Y0018500D01*
X0134100Y0013800D01*
X0134627Y0013869D02*
X0167735Y0013869D01*
X0167487Y0014467D02*
X0136310Y0014467D01*
X0137137Y0015066D02*
X0167239Y0015066D01*
X0166991Y0015664D02*
X0137702Y0015664D01*
X0138119Y0016263D02*
X0166743Y0016263D01*
X0166500Y0016861D02*
X0138424Y0016861D01*
X0138622Y0017460D02*
X0166500Y0017460D01*
X0166500Y0018058D02*
X0138745Y0018058D01*
X0138800Y0019100D02*
X0138800Y0019194D01*
X0138677Y0019971D01*
X0138434Y0020719D01*
X0138076Y0021421D01*
X0137614Y0022057D01*
X0137057Y0022614D01*
X0136421Y0023076D01*
X0135719Y0023434D01*
X0134971Y0023677D01*
X0134194Y0023800D01*
X0134100Y0023800D01*
X0134100Y0019100D01*
X0138800Y0019100D01*
X0138790Y0019255D02*
X0166500Y0019255D01*
X0166500Y0018657D02*
X0134100Y0018657D01*
X0134100Y0019255D02*
X0133500Y0019255D01*
X0133500Y0018657D02*
X0113558Y0018657D01*
X0113700Y0018058D02*
X0128855Y0018058D01*
X0128978Y0017460D02*
X0113700Y0017460D01*
X0113700Y0016861D02*
X0129176Y0016861D01*
X0129481Y0016263D02*
X0113608Y0016263D01*
X0113360Y0015664D02*
X0129898Y0015664D01*
X0130463Y0015066D02*
X0113112Y0015066D01*
X0112673Y0014467D02*
X0131290Y0014467D01*
X0133500Y0014467D02*
X0134100Y0014467D01*
X0134100Y0015066D02*
X0133500Y0015066D01*
X0133500Y0015664D02*
X0134100Y0015664D01*
X0134100Y0016263D02*
X0133500Y0016263D01*
X0133500Y0016861D02*
X0134100Y0016861D01*
X0134100Y0017460D02*
X0133500Y0017460D01*
X0133500Y0018058D02*
X0134100Y0018058D01*
X0134100Y0019854D02*
X0133500Y0019854D01*
X0133500Y0020452D02*
X0134100Y0020452D01*
X0134100Y0021051D02*
X0133500Y0021051D01*
X0133500Y0021649D02*
X0134100Y0021649D01*
X0134100Y0022248D02*
X0133500Y0022248D01*
X0133500Y0022846D02*
X0134100Y0022846D01*
X0134100Y0023445D02*
X0133500Y0023445D01*
X0131915Y0023445D02*
X0055127Y0023445D01*
X0055375Y0024043D02*
X0167864Y0024043D01*
X0167617Y0023445D02*
X0135685Y0023445D01*
X0136737Y0022846D02*
X0167369Y0022846D01*
X0167121Y0022248D02*
X0137423Y0022248D01*
X0137910Y0021649D02*
X0166873Y0021649D01*
X0166625Y0021051D02*
X0138265Y0021051D01*
X0138520Y0020452D02*
X0166500Y0020452D01*
X0166500Y0019854D02*
X0138695Y0019854D01*
X0130863Y0022846D02*
X0054879Y0022846D01*
X0054818Y0022699D02*
X0055450Y0024225D01*
X0055450Y0025875D01*
X0054818Y0027401D01*
X0053651Y0028568D01*
X0052125Y0029200D01*
X0050475Y0029200D01*
X0048949Y0028568D01*
X0047782Y0027401D01*
X0047150Y0025875D01*
X0047150Y0024225D01*
X0047782Y0022699D01*
X0048949Y0021532D01*
X0050475Y0020900D01*
X0052125Y0020900D01*
X0053651Y0021532D01*
X0054818Y0022699D01*
X0054367Y0022248D02*
X0130177Y0022248D01*
X0129690Y0021649D02*
X0110861Y0021649D01*
X0111954Y0021051D02*
X0129335Y0021051D01*
X0129080Y0020452D02*
X0112553Y0020452D01*
X0113063Y0019854D02*
X0128905Y0019854D01*
X0128810Y0019255D02*
X0113310Y0019255D01*
X0081739Y0021649D02*
X0053768Y0021649D01*
X0052490Y0021051D02*
X0080645Y0021051D01*
X0080047Y0020452D02*
X0005600Y0020452D01*
X0005600Y0019854D02*
X0079537Y0019854D01*
X0079290Y0019255D02*
X0005600Y0019255D01*
X0005600Y0018657D02*
X0079042Y0018657D01*
X0078900Y0018058D02*
X0005600Y0018058D01*
X0005600Y0017460D02*
X0078900Y0017460D01*
X0078900Y0016861D02*
X0005600Y0016861D01*
X0005600Y0016263D02*
X0078992Y0016263D01*
X0079240Y0015664D02*
X0005600Y0015664D01*
X0005600Y0015066D02*
X0079488Y0015066D01*
X0079927Y0014467D02*
X0005600Y0014467D01*
X0005600Y0013869D02*
X0080526Y0013869D01*
X0055450Y0024642D02*
X0168283Y0024642D01*
X0168881Y0025240D02*
X0055450Y0025240D01*
X0055450Y0025839D02*
X0169480Y0025839D01*
X0170078Y0026437D02*
X0055217Y0026437D01*
X0054969Y0027036D02*
X0170677Y0027036D01*
X0172020Y0027634D02*
X0054584Y0027634D01*
X0053986Y0028233D02*
X0173465Y0028233D01*
X0179135Y0028233D02*
X0192000Y0028233D01*
X0192000Y0027634D02*
X0180580Y0027634D01*
X0181923Y0027036D02*
X0192000Y0027036D01*
X0192000Y0026437D02*
X0182522Y0026437D01*
X0183120Y0025839D02*
X0192000Y0025839D01*
X0192000Y0025240D02*
X0183719Y0025240D01*
X0184317Y0024642D02*
X0192000Y0024642D01*
X0192000Y0024043D02*
X0184736Y0024043D01*
X0184983Y0023445D02*
X0192000Y0023445D01*
X0192000Y0022846D02*
X0185231Y0022846D01*
X0185479Y0022248D02*
X0192000Y0022248D01*
X0192000Y0021649D02*
X0185727Y0021649D01*
X0185975Y0021051D02*
X0192000Y0021051D01*
X0192000Y0020452D02*
X0186100Y0020452D01*
X0186100Y0019854D02*
X0192000Y0019854D01*
X0192000Y0019255D02*
X0186100Y0019255D01*
X0186100Y0018657D02*
X0192000Y0018657D01*
X0192000Y0018058D02*
X0186100Y0018058D01*
X0186100Y0017460D02*
X0192000Y0017460D01*
X0192000Y0016861D02*
X0186100Y0016861D01*
X0185856Y0016263D02*
X0192000Y0016263D01*
X0192000Y0015664D02*
X0185609Y0015664D01*
X0185361Y0015066D02*
X0192000Y0015066D01*
X0192000Y0014467D02*
X0185113Y0014467D01*
X0184865Y0013869D02*
X0192000Y0013869D01*
X0192000Y0013270D02*
X0184617Y0013270D01*
X0184031Y0012672D02*
X0192000Y0012672D01*
X0192000Y0012073D02*
X0183432Y0012073D01*
X0182834Y0011475D02*
X0192000Y0011475D01*
X0192000Y0010876D02*
X0182235Y0010876D01*
X0181334Y0010278D02*
X0192000Y0010278D01*
X0192000Y0009679D02*
X0179889Y0009679D01*
X0178444Y0009081D02*
X0192000Y0009081D01*
X0192000Y0008482D02*
X0005600Y0008482D01*
X0005600Y0007884D02*
X0192000Y0007884D01*
X0192000Y0007285D02*
X0005600Y0007285D01*
X0005600Y0006687D02*
X0192000Y0006687D01*
X0192000Y0006088D02*
X0005600Y0006088D01*
X0005600Y0005600D02*
X0005600Y0130000D01*
X0192000Y0130000D01*
X0192000Y0005600D01*
X0005600Y0005600D01*
X0005600Y0009081D02*
X0174156Y0009081D01*
X0172711Y0009679D02*
X0005600Y0009679D01*
X0005600Y0010278D02*
X0171266Y0010278D01*
X0170365Y0010876D02*
X0005600Y0010876D01*
X0005600Y0011475D02*
X0169766Y0011475D01*
X0169167Y0012073D02*
X0005600Y0012073D01*
X0005600Y0021051D02*
X0050110Y0021051D01*
X0048832Y0021649D02*
X0005600Y0021649D01*
X0005600Y0022248D02*
X0048233Y0022248D01*
X0047721Y0022846D02*
X0005600Y0022846D01*
X0005600Y0023445D02*
X0047473Y0023445D01*
X0047225Y0024043D02*
X0005600Y0024043D01*
X0005600Y0024642D02*
X0047150Y0024642D01*
X0047150Y0025240D02*
X0005600Y0025240D01*
X0005600Y0025839D02*
X0047150Y0025839D01*
X0047383Y0026437D02*
X0005600Y0026437D01*
X0005600Y0027036D02*
X0047631Y0027036D01*
X0048016Y0027634D02*
X0005600Y0027634D01*
X0005600Y0028233D02*
X0048614Y0028233D01*
X0049585Y0028832D02*
X0005600Y0028832D01*
X0005600Y0029430D02*
X0192000Y0029430D01*
X0192000Y0028832D02*
X0053015Y0028832D01*
X0049689Y0031226D02*
X0005600Y0031226D01*
X0005600Y0031824D02*
X0048657Y0031824D01*
X0048058Y0032423D02*
X0005600Y0032423D01*
X0005600Y0033021D02*
X0047648Y0033021D01*
X0047401Y0033620D02*
X0005600Y0033620D01*
X0005600Y0034218D02*
X0047153Y0034218D01*
X0047150Y0034817D02*
X0005600Y0034817D01*
X0005600Y0035415D02*
X0047150Y0035415D01*
X0047207Y0036014D02*
X0005600Y0036014D01*
X0005600Y0036612D02*
X0047455Y0036612D01*
X0047703Y0037211D02*
X0005600Y0037211D01*
X0005600Y0037809D02*
X0048190Y0037809D01*
X0048789Y0038408D02*
X0005600Y0038408D01*
X0005600Y0039006D02*
X0050007Y0039006D01*
X0038132Y0061750D02*
X0119800Y0061750D01*
X0119800Y0062348D02*
X0039132Y0062348D01*
X0039730Y0062947D02*
X0080250Y0062947D01*
X0080604Y0062800D02*
X0081996Y0062800D01*
X0083283Y0063333D01*
X0084267Y0064317D01*
X0084800Y0065604D01*
X0084800Y0066996D01*
X0084267Y0068283D01*
X0083283Y0069267D01*
X0081996Y0069800D01*
X0080604Y0069800D01*
X0079317Y0069267D01*
X0078333Y0068283D01*
X0077800Y0066996D01*
X0077800Y0065604D01*
X0078333Y0064317D01*
X0079317Y0063333D01*
X0080604Y0062800D01*
X0079105Y0063545D02*
X0040175Y0063545D01*
X0040423Y0064144D02*
X0078507Y0064144D01*
X0078157Y0064742D02*
X0040671Y0064742D01*
X0040743Y0065341D02*
X0077909Y0065341D01*
X0077800Y0065939D02*
X0040743Y0065939D01*
X0040743Y0066538D02*
X0077800Y0066538D01*
X0077858Y0067136D02*
X0040556Y0067136D01*
X0040308Y0067735D02*
X0078106Y0067735D01*
X0078384Y0068333D02*
X0040051Y0068333D01*
X0039452Y0068932D02*
X0078982Y0068932D01*
X0079953Y0069530D02*
X0038853Y0069530D01*
X0028906Y0084900D02*
X0027215Y0084200D01*
X0025385Y0084200D01*
X0023694Y0084900D01*
X0022400Y0086194D01*
X0021700Y0087885D01*
X0021700Y0089715D01*
X0022400Y0091406D01*
X0023694Y0092700D01*
X0025385Y0093400D01*
X0027215Y0093400D01*
X0028906Y0092700D01*
X0030200Y0091406D01*
X0030900Y0089715D01*
X0030900Y0087885D01*
X0030200Y0086194D01*
X0028906Y0084900D01*
X0029097Y0085092D02*
X0063503Y0085092D01*
X0063694Y0084900D02*
X0065385Y0084200D01*
X0067215Y0084200D01*
X0068906Y0084900D01*
X0070200Y0086194D01*
X0070900Y0087885D01*
X0070900Y0089715D01*
X0070200Y0091406D01*
X0068906Y0092700D01*
X0067215Y0093400D01*
X0065385Y0093400D01*
X0063694Y0092700D01*
X0062400Y0091406D01*
X0061700Y0089715D01*
X0061700Y0087885D01*
X0062400Y0086194D01*
X0063694Y0084900D01*
X0064677Y0084493D02*
X0027923Y0084493D01*
X0029695Y0085690D02*
X0062905Y0085690D01*
X0062361Y0086289D02*
X0030239Y0086289D01*
X0030487Y0086887D02*
X0062113Y0086887D01*
X0061865Y0087486D02*
X0030735Y0087486D01*
X0030900Y0088084D02*
X0061700Y0088084D01*
X0061700Y0088683D02*
X0030900Y0088683D01*
X0030900Y0089281D02*
X0061700Y0089281D01*
X0061768Y0089880D02*
X0030832Y0089880D01*
X0030584Y0090478D02*
X0062016Y0090478D01*
X0062264Y0091077D02*
X0030336Y0091077D01*
X0029930Y0091675D02*
X0062670Y0091675D01*
X0063268Y0092274D02*
X0029332Y0092274D01*
X0028489Y0092872D02*
X0064111Y0092872D01*
X0064256Y0094668D02*
X0028344Y0094668D01*
X0028906Y0094900D02*
X0030200Y0096194D01*
X0030900Y0097885D01*
X0030900Y0099715D01*
X0030200Y0101406D01*
X0028906Y0102700D01*
X0027215Y0103400D01*
X0025385Y0103400D01*
X0023694Y0102700D01*
X0022400Y0101406D01*
X0021700Y0099715D01*
X0021700Y0097885D01*
X0022400Y0096194D01*
X0023694Y0094900D01*
X0025385Y0094200D01*
X0027215Y0094200D01*
X0028906Y0094900D01*
X0029272Y0095266D02*
X0063328Y0095266D01*
X0063694Y0094900D02*
X0065385Y0094200D01*
X0067215Y0094200D01*
X0068906Y0094900D01*
X0070200Y0096194D01*
X0070900Y0097885D01*
X0070900Y0099715D01*
X0070200Y0101406D01*
X0068906Y0102700D01*
X0067215Y0103400D01*
X0065385Y0103400D01*
X0063694Y0102700D01*
X0062400Y0101406D01*
X0061700Y0099715D01*
X0061700Y0097885D01*
X0062400Y0096194D01*
X0063694Y0094900D01*
X0062730Y0095865D02*
X0029870Y0095865D01*
X0030311Y0096463D02*
X0062289Y0096463D01*
X0062041Y0097062D02*
X0030559Y0097062D01*
X0030807Y0097660D02*
X0061793Y0097660D01*
X0061700Y0098259D02*
X0030900Y0098259D01*
X0030900Y0098857D02*
X0061700Y0098857D01*
X0061700Y0099456D02*
X0030900Y0099456D01*
X0030759Y0100054D02*
X0061841Y0100054D01*
X0062088Y0100653D02*
X0030512Y0100653D01*
X0030264Y0101251D02*
X0062336Y0101251D01*
X0062845Y0101850D02*
X0029755Y0101850D01*
X0029157Y0102448D02*
X0063443Y0102448D01*
X0064533Y0103047D02*
X0028067Y0103047D01*
X0024533Y0103047D02*
X0005600Y0103047D01*
X0005600Y0103645D02*
X0072300Y0103645D01*
X0072300Y0103047D02*
X0068067Y0103047D01*
X0069157Y0102448D02*
X0072300Y0102448D01*
X0072300Y0101850D02*
X0069755Y0101850D01*
X0070264Y0101251D02*
X0072300Y0101251D01*
X0072300Y0100653D02*
X0070512Y0100653D01*
X0070759Y0100054D02*
X0072300Y0100054D01*
X0072300Y0099456D02*
X0070900Y0099456D01*
X0070900Y0098857D02*
X0072300Y0098857D01*
X0072300Y0098259D02*
X0070900Y0098259D01*
X0070807Y0097660D02*
X0072300Y0097660D01*
X0072300Y0097062D02*
X0070559Y0097062D01*
X0070311Y0096463D02*
X0072300Y0096463D01*
X0072300Y0095865D02*
X0069870Y0095865D01*
X0069272Y0095266D02*
X0072300Y0095266D01*
X0072300Y0094668D02*
X0068344Y0094668D01*
X0068489Y0092872D02*
X0072606Y0092872D01*
X0072300Y0093179D02*
X0077800Y0087679D01*
X0077800Y0083327D01*
X0078327Y0082800D01*
X0084273Y0082800D01*
X0084800Y0083327D01*
X0084800Y0089273D01*
X0084273Y0089800D01*
X0079921Y0089800D01*
X0075300Y0094421D01*
X0075300Y0106942D01*
X0076406Y0107400D01*
X0077700Y0108694D01*
X0078400Y0110385D01*
X0078400Y0112215D01*
X0077700Y0113906D01*
X0076406Y0115200D01*
X0074715Y0115900D01*
X0072885Y0115900D01*
X0071194Y0115200D01*
X0069900Y0113906D01*
X0069200Y0112215D01*
X0069200Y0110385D01*
X0069900Y0108694D01*
X0071194Y0107400D01*
X0072300Y0106942D01*
X0072300Y0093179D01*
X0072300Y0093471D02*
X0005600Y0093471D01*
X0005600Y0094069D02*
X0072300Y0094069D01*
X0073205Y0092274D02*
X0069332Y0092274D01*
X0069930Y0091675D02*
X0073803Y0091675D01*
X0074402Y0091077D02*
X0070336Y0091077D01*
X0070584Y0090478D02*
X0075000Y0090478D01*
X0075599Y0089880D02*
X0070832Y0089880D01*
X0070900Y0089281D02*
X0076198Y0089281D01*
X0076796Y0088683D02*
X0070900Y0088683D01*
X0070900Y0088084D02*
X0077395Y0088084D01*
X0077800Y0087486D02*
X0070735Y0087486D01*
X0070487Y0086887D02*
X0077800Y0086887D01*
X0077800Y0086289D02*
X0070239Y0086289D01*
X0069695Y0085690D02*
X0077800Y0085690D01*
X0077800Y0085092D02*
X0069097Y0085092D01*
X0067923Y0084493D02*
X0077800Y0084493D01*
X0077800Y0083895D02*
X0005600Y0083895D01*
X0005600Y0084493D02*
X0024677Y0084493D01*
X0023503Y0085092D02*
X0005600Y0085092D01*
X0005600Y0085690D02*
X0022905Y0085690D01*
X0022361Y0086289D02*
X0005600Y0086289D01*
X0005600Y0086887D02*
X0022113Y0086887D01*
X0021865Y0087486D02*
X0005600Y0087486D01*
X0005600Y0088084D02*
X0021700Y0088084D01*
X0021700Y0088683D02*
X0005600Y0088683D01*
X0005600Y0089281D02*
X0021700Y0089281D01*
X0021768Y0089880D02*
X0005600Y0089880D01*
X0005600Y0090478D02*
X0022016Y0090478D01*
X0022264Y0091077D02*
X0005600Y0091077D01*
X0005600Y0091675D02*
X0022670Y0091675D01*
X0023268Y0092274D02*
X0005600Y0092274D01*
X0005600Y0092872D02*
X0024111Y0092872D01*
X0024256Y0094668D02*
X0005600Y0094668D01*
X0005600Y0095266D02*
X0023328Y0095266D01*
X0022730Y0095865D02*
X0005600Y0095865D01*
X0005600Y0096463D02*
X0022289Y0096463D01*
X0022041Y0097062D02*
X0005600Y0097062D01*
X0005600Y0097660D02*
X0021793Y0097660D01*
X0021700Y0098259D02*
X0005600Y0098259D01*
X0005600Y0098857D02*
X0021700Y0098857D01*
X0021700Y0099456D02*
X0005600Y0099456D01*
X0005600Y0100054D02*
X0021841Y0100054D01*
X0022088Y0100653D02*
X0005600Y0100653D01*
X0005600Y0101251D02*
X0022336Y0101251D01*
X0022845Y0101850D02*
X0005600Y0101850D01*
X0005600Y0102448D02*
X0023443Y0102448D01*
X0021851Y0107992D02*
X0018249Y0106500D01*
X0014351Y0106500D01*
X0010749Y0107992D01*
X0007992Y0110749D01*
X0006500Y0114351D01*
X0006500Y0118249D01*
X0007992Y0121851D01*
X0010749Y0124608D01*
X0014351Y0126100D01*
X0018249Y0126100D01*
X0021851Y0124608D01*
X0024608Y0121851D01*
X0026100Y0118249D01*
X0026100Y0114351D01*
X0024608Y0110749D01*
X0021851Y0107992D01*
X0021472Y0107835D02*
X0030194Y0107835D01*
X0029986Y0108043D02*
X0030543Y0107486D01*
X0031179Y0107024D01*
X0031881Y0106666D01*
X0032629Y0106423D01*
X0033406Y0106300D01*
X0033500Y0106300D01*
X0033500Y0111000D01*
X0034100Y0111000D01*
X0034100Y0111600D01*
X0038800Y0111600D01*
X0038800Y0111694D01*
X0038677Y0112471D01*
X0038434Y0113219D01*
X0038076Y0113921D01*
X0037614Y0114557D01*
X0037057Y0115114D01*
X0036421Y0115576D01*
X0035719Y0115934D01*
X0034971Y0116177D01*
X0034194Y0116300D01*
X0034100Y0116300D01*
X0034100Y0111600D01*
X0033500Y0111600D01*
X0033500Y0116300D01*
X0033500Y0121000D01*
X0034100Y0121000D01*
X0034100Y0121600D01*
X0038800Y0121600D01*
X0038800Y0121694D01*
X0038677Y0122471D01*
X0038434Y0123219D01*
X0038076Y0123921D01*
X0037614Y0124557D01*
X0037057Y0125114D01*
X0036421Y0125576D01*
X0035719Y0125934D01*
X0034971Y0126177D01*
X0034194Y0126300D01*
X0034100Y0126300D01*
X0034100Y0121600D01*
X0033500Y0121600D01*
X0033500Y0126300D01*
X0033406Y0126300D01*
X0032629Y0126177D01*
X0031881Y0125934D01*
X0031179Y0125576D01*
X0030543Y0125114D01*
X0029986Y0124557D01*
X0029524Y0123921D01*
X0029166Y0123219D01*
X0028923Y0122471D01*
X0028800Y0121694D01*
X0028800Y0121600D01*
X0033500Y0121600D01*
X0033500Y0121000D01*
X0028800Y0121000D01*
X0028800Y0120906D01*
X0028923Y0120129D01*
X0029166Y0119381D01*
X0029524Y0118679D01*
X0029986Y0118043D01*
X0030543Y0117486D01*
X0031179Y0117024D01*
X0031881Y0116666D01*
X0032629Y0116423D01*
X0033406Y0116300D01*
X0032629Y0116177D01*
X0031881Y0115934D01*
X0031179Y0115576D01*
X0030543Y0115114D01*
X0029986Y0114557D01*
X0029524Y0113921D01*
X0029166Y0113219D01*
X0028923Y0112471D01*
X0028800Y0111694D01*
X0028800Y0111600D01*
X0033500Y0111600D01*
X0033500Y0111000D01*
X0028800Y0111000D01*
X0028800Y0110906D01*
X0028923Y0110129D01*
X0029166Y0109381D01*
X0029524Y0108679D01*
X0029986Y0108043D01*
X0029702Y0108434D02*
X0022293Y0108434D01*
X0022891Y0109032D02*
X0029344Y0109032D01*
X0029085Y0109631D02*
X0023490Y0109631D01*
X0024088Y0110229D02*
X0028907Y0110229D01*
X0028812Y0110828D02*
X0024641Y0110828D01*
X0024889Y0111426D02*
X0033500Y0111426D01*
X0033500Y0110828D02*
X0034100Y0110828D01*
X0034100Y0111000D02*
X0034100Y0106300D01*
X0034194Y0106300D01*
X0034971Y0106423D01*
X0035719Y0106666D01*
X0036421Y0107024D01*
X0037057Y0107486D01*
X0037614Y0108043D01*
X0038076Y0108679D01*
X0038434Y0109381D01*
X0038677Y0110129D01*
X0038800Y0110906D01*
X0038800Y0111000D01*
X0034100Y0111000D01*
X0034100Y0111426D02*
X0069200Y0111426D01*
X0069200Y0110828D02*
X0038787Y0110828D01*
X0038693Y0110229D02*
X0069265Y0110229D01*
X0069513Y0109631D02*
X0038515Y0109631D01*
X0038256Y0109032D02*
X0069760Y0109032D01*
X0070161Y0108434D02*
X0037898Y0108434D01*
X0037406Y0107835D02*
X0070760Y0107835D01*
X0071590Y0107237D02*
X0036714Y0107237D01*
X0035632Y0106638D02*
X0072300Y0106638D01*
X0072300Y0106039D02*
X0005600Y0106039D01*
X0005600Y0105441D02*
X0072300Y0105441D01*
X0072300Y0104842D02*
X0005600Y0104842D01*
X0005600Y0104244D02*
X0072300Y0104244D01*
X0075300Y0104244D02*
X0088375Y0104244D01*
X0088949Y0104818D02*
X0087782Y0103651D01*
X0087150Y0102125D01*
X0087150Y0100475D01*
X0087782Y0098949D01*
X0088949Y0097782D01*
X0090475Y0097150D01*
X0092125Y0097150D01*
X0093651Y0097782D01*
X0094818Y0098949D01*
X0095450Y0100475D01*
X0095450Y0102125D01*
X0094818Y0103651D01*
X0093651Y0104818D01*
X0092125Y0105450D01*
X0090475Y0105450D01*
X0088949Y0104818D01*
X0089008Y0104842D02*
X0075300Y0104842D01*
X0075300Y0105441D02*
X0090453Y0105441D01*
X0092147Y0105441D02*
X0099405Y0105441D01*
X0099553Y0105517D02*
X0098915Y0105191D01*
X0098336Y0104771D01*
X0097829Y0104264D01*
X0097408Y0103685D01*
X0097083Y0103047D01*
X0097084Y0103047D02*
X0095068Y0103047D01*
X0094820Y0103645D02*
X0097388Y0103645D01*
X0097083Y0103047D02*
X0096862Y0102365D01*
X0096750Y0101658D01*
X0096750Y0101600D01*
X0101000Y0101600D01*
X0101000Y0105850D01*
X0100942Y0105850D01*
X0100235Y0105738D01*
X0099553Y0105517D01*
X0098435Y0104842D02*
X0093592Y0104842D01*
X0094225Y0104244D02*
X0097815Y0104244D01*
X0096889Y0102448D02*
X0095316Y0102448D01*
X0095450Y0101850D02*
X0096780Y0101850D01*
X0096750Y0101000D02*
X0096750Y0100942D01*
X0096862Y0100235D01*
X0097083Y0099553D01*
X0097408Y0098915D01*
X0097829Y0098336D01*
X0098336Y0097829D01*
X0098915Y0097408D01*
X0099553Y0097083D01*
X0100235Y0096862D01*
X0100942Y0096750D01*
X0101000Y0096750D01*
X0101000Y0101000D01*
X0101600Y0101000D01*
X0101600Y0101600D01*
X0105850Y0101600D01*
X0105850Y0101658D01*
X0105738Y0102365D01*
X0105517Y0103047D01*
X0105516Y0103047D02*
X0153548Y0103047D01*
X0154146Y0102448D02*
X0105711Y0102448D01*
X0105820Y0101850D02*
X0155523Y0101850D01*
X0155885Y0101700D02*
X0157715Y0101700D01*
X0159406Y0102400D01*
X0160700Y0103694D01*
X0161400Y0105385D01*
X0161400Y0107215D01*
X0160700Y0108906D01*
X0159406Y0110200D01*
X0157715Y0110900D01*
X0155885Y0110900D01*
X0154194Y0110200D01*
X0152900Y0108906D01*
X0152200Y0107215D01*
X0152200Y0105385D01*
X0152900Y0103694D01*
X0154194Y0102400D01*
X0155885Y0101700D01*
X0156100Y0101300D02*
X0156194Y0101300D01*
X0156971Y0101177D01*
X0157719Y0100934D01*
X0158421Y0100576D01*
X0159057Y0100114D01*
X0159614Y0099557D01*
X0160076Y0098921D01*
X0160434Y0098219D01*
X0160677Y0097471D01*
X0160800Y0096694D01*
X0160800Y0096600D01*
X0156100Y0096600D01*
X0156100Y0096000D01*
X0160800Y0096000D01*
X0160800Y0095906D01*
X0160677Y0095129D01*
X0160434Y0094381D01*
X0160076Y0093679D01*
X0159614Y0093043D01*
X0159057Y0092486D01*
X0158421Y0092024D01*
X0157719Y0091666D01*
X0156971Y0091423D01*
X0156194Y0091300D01*
X0156100Y0091300D01*
X0156100Y0096000D01*
X0155500Y0096000D01*
X0155500Y0091300D01*
X0155406Y0091300D01*
X0154629Y0091423D01*
X0153881Y0091666D01*
X0153179Y0092024D01*
X0152543Y0092486D01*
X0151986Y0093043D01*
X0151524Y0093679D01*
X0151166Y0094381D01*
X0150923Y0095129D01*
X0150800Y0095906D01*
X0150800Y0096000D01*
X0155500Y0096000D01*
X0155500Y0096600D01*
X0155500Y0101300D01*
X0155406Y0101300D01*
X0154629Y0101177D01*
X0153881Y0100934D01*
X0153179Y0100576D01*
X0152543Y0100114D01*
X0151986Y0099557D01*
X0151524Y0098921D01*
X0151166Y0098219D01*
X0150923Y0097471D01*
X0150800Y0096694D01*
X0150800Y0096600D01*
X0155500Y0096600D01*
X0156100Y0096600D01*
X0156100Y0101300D01*
X0156100Y0101251D02*
X0155500Y0101251D01*
X0155100Y0101251D02*
X0101600Y0101251D01*
X0101600Y0101000D02*
X0105850Y0101000D01*
X0105850Y0100942D01*
X0105738Y0100235D01*
X0105517Y0099553D01*
X0105191Y0098915D01*
X0104771Y0098336D01*
X0104264Y0097829D01*
X0103685Y0097408D01*
X0103047Y0097083D01*
X0102365Y0096862D01*
X0101658Y0096750D01*
X0101600Y0096750D01*
X0101600Y0101000D01*
X0101600Y0100653D02*
X0101000Y0100653D01*
X0101000Y0101000D02*
X0096750Y0101000D01*
X0096796Y0100653D02*
X0095450Y0100653D01*
X0095450Y0101251D02*
X0101000Y0101251D01*
X0101000Y0101000D02*
X0101000Y0101600D01*
X0101600Y0101600D01*
X0101600Y0105850D01*
X0101658Y0105850D01*
X0102365Y0105738D01*
X0103047Y0105517D01*
X0103685Y0105191D01*
X0104264Y0104771D01*
X0104771Y0104264D01*
X0105191Y0103685D01*
X0105517Y0103047D01*
X0105212Y0103645D02*
X0152949Y0103645D01*
X0152673Y0104244D02*
X0104785Y0104244D01*
X0104165Y0104842D02*
X0152425Y0104842D01*
X0152200Y0105441D02*
X0103195Y0105441D01*
X0101600Y0105441D02*
X0101000Y0105441D01*
X0101000Y0104842D02*
X0101600Y0104842D01*
X0101600Y0104244D02*
X0101000Y0104244D01*
X0101000Y0103645D02*
X0101600Y0103645D01*
X0101600Y0103047D02*
X0101000Y0103047D01*
X0101000Y0102448D02*
X0101600Y0102448D01*
X0101600Y0101850D02*
X0101000Y0101850D01*
X0101000Y0100054D02*
X0101600Y0100054D01*
X0101600Y0099456D02*
X0101000Y0099456D01*
X0101000Y0098857D02*
X0101600Y0098857D01*
X0101600Y0098259D02*
X0101000Y0098259D01*
X0101000Y0097660D02*
X0101600Y0097660D01*
X0101600Y0097062D02*
X0101000Y0097062D01*
X0099620Y0097062D02*
X0075300Y0097062D01*
X0075300Y0097660D02*
X0089242Y0097660D01*
X0088472Y0098259D02*
X0075300Y0098259D01*
X0075300Y0098857D02*
X0087874Y0098857D01*
X0087572Y0099456D02*
X0075300Y0099456D01*
X0075300Y0100054D02*
X0087324Y0100054D01*
X0087150Y0100653D02*
X0075300Y0100653D01*
X0075300Y0101251D02*
X0087150Y0101251D01*
X0087150Y0101850D02*
X0075300Y0101850D01*
X0075300Y0102448D02*
X0087284Y0102448D01*
X0087532Y0103047D02*
X0075300Y0103047D01*
X0075300Y0103645D02*
X0087780Y0103645D01*
X0094726Y0098857D02*
X0097451Y0098857D01*
X0097133Y0099456D02*
X0095028Y0099456D01*
X0095276Y0100054D02*
X0096921Y0100054D01*
X0097906Y0098259D02*
X0094128Y0098259D01*
X0093357Y0097660D02*
X0098569Y0097660D01*
X0102980Y0097062D02*
X0150858Y0097062D01*
X0150985Y0097660D02*
X0104031Y0097660D01*
X0104694Y0098259D02*
X0151186Y0098259D01*
X0151491Y0098857D02*
X0105149Y0098857D01*
X0105467Y0099456D02*
X0151913Y0099456D01*
X0152483Y0100054D02*
X0105679Y0100054D01*
X0105804Y0100653D02*
X0153330Y0100653D01*
X0155500Y0100653D02*
X0156100Y0100653D01*
X0156100Y0100054D02*
X0155500Y0100054D01*
X0155500Y0099456D02*
X0156100Y0099456D01*
X0156100Y0098857D02*
X0155500Y0098857D01*
X0155500Y0098259D02*
X0156100Y0098259D01*
X0156100Y0097660D02*
X0155500Y0097660D01*
X0155500Y0097062D02*
X0156100Y0097062D01*
X0156100Y0096463D02*
X0192000Y0096463D01*
X0192000Y0095865D02*
X0160793Y0095865D01*
X0160699Y0095266D02*
X0192000Y0095266D01*
X0192000Y0094668D02*
X0160527Y0094668D01*
X0160275Y0094069D02*
X0192000Y0094069D01*
X0192000Y0093471D02*
X0159925Y0093471D01*
X0159443Y0092872D02*
X0192000Y0092872D01*
X0192000Y0092274D02*
X0158765Y0092274D01*
X0157737Y0091675D02*
X0192000Y0091675D01*
X0192000Y0091077D02*
X0078645Y0091077D01*
X0079243Y0090478D02*
X0154867Y0090478D01*
X0154194Y0090200D02*
X0152900Y0088906D01*
X0152200Y0087215D01*
X0152200Y0085385D01*
X0152900Y0083694D01*
X0154194Y0082400D01*
X0155885Y0081700D01*
X0157715Y0081700D01*
X0159406Y0082400D01*
X0160700Y0083694D01*
X0161400Y0085385D01*
X0161400Y0087215D01*
X0160700Y0088906D01*
X0159406Y0090200D01*
X0157715Y0090900D01*
X0155885Y0090900D01*
X0154194Y0090200D01*
X0153874Y0089880D02*
X0112849Y0089880D01*
X0113147Y0089756D02*
X0112438Y0090050D01*
X0111684Y0090200D01*
X0111600Y0090200D01*
X0111600Y0086600D01*
X0115200Y0086600D01*
X0115200Y0086684D01*
X0115050Y0087438D01*
X0114756Y0088147D01*
X0114329Y0088786D01*
X0113786Y0089329D01*
X0113147Y0089756D01*
X0113834Y0089281D02*
X0153276Y0089281D01*
X0152808Y0088683D02*
X0114398Y0088683D01*
X0114782Y0088084D02*
X0152560Y0088084D01*
X0152312Y0087486D02*
X0115030Y0087486D01*
X0115160Y0086887D02*
X0152200Y0086887D01*
X0152200Y0086289D02*
X0111600Y0086289D01*
X0111600Y0086000D02*
X0111600Y0086600D01*
X0111000Y0086600D01*
X0111000Y0090200D01*
X0110916Y0090200D01*
X0110162Y0090050D01*
X0109453Y0089756D01*
X0108814Y0089329D01*
X0108271Y0088786D01*
X0107844Y0088147D01*
X0107550Y0087438D01*
X0107400Y0086684D01*
X0107400Y0086600D01*
X0111000Y0086600D01*
X0111000Y0086000D01*
X0111600Y0086000D01*
X0115200Y0086000D01*
X0115200Y0085916D01*
X0115050Y0085162D01*
X0114756Y0084453D01*
X0114329Y0083814D01*
X0113786Y0083271D01*
X0113147Y0082844D01*
X0112438Y0082550D01*
X0111684Y0082400D01*
X0111600Y0082400D01*
X0111600Y0086000D01*
X0111600Y0085690D02*
X0111000Y0085690D01*
X0111000Y0086000D02*
X0111000Y0082400D01*
X0110916Y0082400D01*
X0110162Y0082550D01*
X0109453Y0082844D01*
X0108814Y0083271D01*
X0108271Y0083814D01*
X0107844Y0084453D01*
X0107550Y0085162D01*
X0107400Y0085916D01*
X0107400Y0086000D01*
X0111000Y0086000D01*
X0111000Y0086289D02*
X0084800Y0086289D01*
X0084800Y0086887D02*
X0107440Y0086887D01*
X0107570Y0087486D02*
X0084800Y0087486D01*
X0084800Y0088084D02*
X0107818Y0088084D01*
X0108202Y0088683D02*
X0084800Y0088683D01*
X0084792Y0089281D02*
X0108766Y0089281D01*
X0109751Y0089880D02*
X0079842Y0089880D01*
X0078046Y0091675D02*
X0153863Y0091675D01*
X0152835Y0092274D02*
X0077448Y0092274D01*
X0076849Y0092872D02*
X0152157Y0092872D01*
X0151675Y0093471D02*
X0076251Y0093471D01*
X0075652Y0094069D02*
X0151325Y0094069D01*
X0151073Y0094668D02*
X0075300Y0094668D01*
X0075300Y0095266D02*
X0150901Y0095266D01*
X0150807Y0095865D02*
X0075300Y0095865D01*
X0075300Y0096463D02*
X0155500Y0096463D01*
X0155500Y0095865D02*
X0156100Y0095865D01*
X0156100Y0095266D02*
X0155500Y0095266D01*
X0155500Y0094668D02*
X0156100Y0094668D01*
X0156100Y0094069D02*
X0155500Y0094069D01*
X0155500Y0093471D02*
X0156100Y0093471D01*
X0156100Y0092872D02*
X0155500Y0092872D01*
X0155500Y0092274D02*
X0156100Y0092274D01*
X0156100Y0091675D02*
X0155500Y0091675D01*
X0158733Y0090478D02*
X0192000Y0090478D01*
X0192000Y0089880D02*
X0159726Y0089880D01*
X0160324Y0089281D02*
X0192000Y0089281D01*
X0192000Y0088683D02*
X0160792Y0088683D01*
X0161040Y0088084D02*
X0192000Y0088084D01*
X0192000Y0087486D02*
X0161288Y0087486D01*
X0161400Y0086887D02*
X0192000Y0086887D01*
X0192000Y0086289D02*
X0161400Y0086289D01*
X0161400Y0085690D02*
X0192000Y0085690D01*
X0192000Y0085092D02*
X0161278Y0085092D01*
X0161031Y0084493D02*
X0192000Y0084493D01*
X0192000Y0083895D02*
X0160783Y0083895D01*
X0160301Y0083296D02*
X0192000Y0083296D01*
X0192000Y0082698D02*
X0159703Y0082698D01*
X0158678Y0082099D02*
X0192000Y0082099D01*
X0192000Y0081501D02*
X0005600Y0081501D01*
X0005600Y0082099D02*
X0154922Y0082099D01*
X0153897Y0082698D02*
X0112794Y0082698D01*
X0113811Y0083296D02*
X0153299Y0083296D01*
X0152817Y0083895D02*
X0114383Y0083895D01*
X0114773Y0084493D02*
X0152569Y0084493D01*
X0152322Y0085092D02*
X0115021Y0085092D01*
X0115155Y0085690D02*
X0152200Y0085690D01*
X0154885Y0080900D02*
X0153194Y0080200D01*
X0151900Y0078906D01*
X0151200Y0077215D01*
X0151200Y0075385D01*
X0151900Y0073694D01*
X0153194Y0072400D01*
X0154885Y0071700D01*
X0156715Y0071700D01*
X0158406Y0072400D01*
X0159700Y0073694D01*
X0160400Y0075385D01*
X0160400Y0077215D01*
X0159700Y0078906D01*
X0158406Y0080200D01*
X0156715Y0080900D01*
X0154885Y0080900D01*
X0153445Y0080303D02*
X0005600Y0080303D01*
X0005600Y0079705D02*
X0080374Y0079705D01*
X0080604Y0079800D02*
X0079317Y0079267D01*
X0078333Y0078283D01*
X0077800Y0076996D01*
X0077800Y0075604D01*
X0078333Y0074317D01*
X0079317Y0073333D01*
X0080604Y0072800D01*
X0081996Y0072800D01*
X0083283Y0073333D01*
X0084267Y0074317D01*
X0084800Y0075604D01*
X0084800Y0076996D01*
X0084267Y0078283D01*
X0083283Y0079267D01*
X0081996Y0079800D01*
X0080604Y0079800D01*
X0079157Y0079106D02*
X0005600Y0079106D01*
X0005600Y0078508D02*
X0078558Y0078508D01*
X0078178Y0077909D02*
X0005600Y0077909D01*
X0005600Y0077311D02*
X0077930Y0077311D01*
X0077800Y0076712D02*
X0005600Y0076712D01*
X0005600Y0076114D02*
X0077800Y0076114D01*
X0077837Y0075515D02*
X0005600Y0075515D01*
X0005600Y0074917D02*
X0078085Y0074917D01*
X0078332Y0074318D02*
X0005600Y0074318D01*
X0005600Y0073720D02*
X0078930Y0073720D01*
X0079828Y0073121D02*
X0005600Y0073121D01*
X0005600Y0072523D02*
X0112956Y0072523D01*
X0113554Y0071924D02*
X0005600Y0071924D01*
X0005600Y0071326D02*
X0114153Y0071326D01*
X0113283Y0069267D02*
X0111996Y0069800D01*
X0110604Y0069800D01*
X0109317Y0069267D01*
X0108333Y0068283D01*
X0107800Y0066996D01*
X0107800Y0065604D01*
X0108333Y0064317D01*
X0109317Y0063333D01*
X0110604Y0062800D01*
X0111996Y0062800D01*
X0113283Y0063333D01*
X0114267Y0064317D01*
X0114800Y0065604D01*
X0114800Y0066996D01*
X0114267Y0068283D01*
X0113283Y0069267D01*
X0113618Y0068932D02*
X0116547Y0068932D01*
X0115948Y0069530D02*
X0112647Y0069530D01*
X0114216Y0068333D02*
X0117145Y0068333D01*
X0117744Y0067735D02*
X0114494Y0067735D01*
X0114742Y0067136D02*
X0118342Y0067136D01*
X0118941Y0066538D02*
X0114800Y0066538D01*
X0114800Y0065939D02*
X0119539Y0065939D01*
X0119800Y0065341D02*
X0114691Y0065341D01*
X0114443Y0064742D02*
X0119800Y0064742D01*
X0119800Y0064144D02*
X0114093Y0064144D01*
X0113495Y0063545D02*
X0119800Y0063545D01*
X0119800Y0062947D02*
X0112350Y0062947D01*
X0110250Y0062947D02*
X0082350Y0062947D01*
X0083495Y0063545D02*
X0109105Y0063545D01*
X0108507Y0064144D02*
X0084093Y0064144D01*
X0084443Y0064742D02*
X0108157Y0064742D01*
X0107909Y0065341D02*
X0084691Y0065341D01*
X0084800Y0065939D02*
X0107800Y0065939D01*
X0107800Y0066538D02*
X0084800Y0066538D01*
X0084742Y0067136D02*
X0107858Y0067136D01*
X0108106Y0067735D02*
X0084494Y0067735D01*
X0084216Y0068333D02*
X0108384Y0068333D01*
X0108982Y0068932D02*
X0083618Y0068932D01*
X0082647Y0069530D02*
X0109953Y0069530D01*
X0109828Y0073121D02*
X0082772Y0073121D01*
X0083670Y0073720D02*
X0108930Y0073720D01*
X0108332Y0074318D02*
X0084268Y0074318D01*
X0084515Y0074917D02*
X0108085Y0074917D01*
X0107837Y0075515D02*
X0084763Y0075515D01*
X0084800Y0076114D02*
X0107800Y0076114D01*
X0107800Y0076712D02*
X0084800Y0076712D01*
X0084670Y0077311D02*
X0107930Y0077311D01*
X0108178Y0077909D02*
X0084422Y0077909D01*
X0084042Y0078508D02*
X0108558Y0078508D01*
X0109157Y0079106D02*
X0083443Y0079106D01*
X0082226Y0079705D02*
X0110374Y0079705D01*
X0112226Y0079705D02*
X0152700Y0079705D01*
X0152101Y0079106D02*
X0113443Y0079106D01*
X0114042Y0078508D02*
X0151736Y0078508D01*
X0151488Y0077909D02*
X0114422Y0077909D01*
X0114670Y0077311D02*
X0151240Y0077311D01*
X0151200Y0076712D02*
X0143337Y0076712D01*
X0142750Y0077300D02*
X0139850Y0077300D01*
X0137800Y0075250D01*
X0137800Y0072350D01*
X0139850Y0070300D01*
X0142750Y0070300D01*
X0144800Y0072350D01*
X0144800Y0075250D01*
X0142750Y0077300D01*
X0143936Y0076114D02*
X0151200Y0076114D01*
X0151200Y0075515D02*
X0144534Y0075515D01*
X0144800Y0074917D02*
X0151394Y0074917D01*
X0151642Y0074318D02*
X0144800Y0074318D01*
X0144800Y0073720D02*
X0151890Y0073720D01*
X0152473Y0073121D02*
X0144800Y0073121D01*
X0144800Y0072523D02*
X0153072Y0072523D01*
X0154343Y0071924D02*
X0144374Y0071924D01*
X0143776Y0071326D02*
X0192000Y0071326D01*
X0192000Y0071924D02*
X0157257Y0071924D01*
X0157715Y0070900D02*
X0155885Y0070900D01*
X0154194Y0070200D01*
X0152900Y0068906D01*
X0152200Y0067215D01*
X0152200Y0065385D01*
X0152900Y0063694D01*
X0154194Y0062400D01*
X0155885Y0061700D01*
X0157715Y0061700D01*
X0159406Y0062400D01*
X0160700Y0063694D01*
X0161400Y0065385D01*
X0161400Y0067215D01*
X0160700Y0068906D01*
X0159406Y0070200D01*
X0157715Y0070900D01*
X0158132Y0070727D02*
X0192000Y0070727D01*
X0192000Y0070129D02*
X0159477Y0070129D01*
X0160075Y0069530D02*
X0192000Y0069530D01*
X0192000Y0068932D02*
X0160674Y0068932D01*
X0160937Y0068333D02*
X0192000Y0068333D01*
X0192000Y0067735D02*
X0161185Y0067735D01*
X0161400Y0067136D02*
X0192000Y0067136D01*
X0192000Y0066538D02*
X0161400Y0066538D01*
X0161400Y0065939D02*
X0192000Y0065939D01*
X0192000Y0065341D02*
X0161382Y0065341D01*
X0161134Y0064742D02*
X0192000Y0064742D01*
X0192000Y0064144D02*
X0160886Y0064144D01*
X0160551Y0063545D02*
X0192000Y0063545D01*
X0192000Y0062947D02*
X0159952Y0062947D01*
X0159280Y0062348D02*
X0192000Y0062348D01*
X0192000Y0061750D02*
X0157835Y0061750D01*
X0157554Y0060553D02*
X0192000Y0060553D01*
X0192000Y0061151D02*
X0137805Y0061151D01*
X0137700Y0061406D02*
X0136406Y0062700D01*
X0134715Y0063400D01*
X0132885Y0063400D01*
X0131194Y0062700D01*
X0129900Y0061406D01*
X0129200Y0059715D01*
X0129200Y0057885D01*
X0129900Y0056194D01*
X0131194Y0054900D01*
X0132885Y0054200D01*
X0134715Y0054200D01*
X0136406Y0054900D01*
X0137700Y0056194D01*
X0138400Y0057885D01*
X0138400Y0059715D01*
X0137700Y0061406D01*
X0137356Y0061750D02*
X0155765Y0061750D01*
X0154885Y0060900D02*
X0153194Y0060200D01*
X0151900Y0058906D01*
X0151200Y0057215D01*
X0151200Y0055385D01*
X0151900Y0053694D01*
X0153194Y0052400D01*
X0154885Y0051700D01*
X0156715Y0051700D01*
X0158406Y0052400D01*
X0159700Y0053694D01*
X0160400Y0055385D01*
X0160400Y0057215D01*
X0159700Y0058906D01*
X0158406Y0060200D01*
X0156715Y0060900D01*
X0154885Y0060900D01*
X0154046Y0060553D02*
X0138053Y0060553D01*
X0138301Y0059954D02*
X0152949Y0059954D01*
X0152350Y0059356D02*
X0138400Y0059356D01*
X0138400Y0058757D02*
X0151839Y0058757D01*
X0151591Y0058159D02*
X0138400Y0058159D01*
X0138265Y0057560D02*
X0151343Y0057560D01*
X0151200Y0056962D02*
X0138017Y0056962D01*
X0137770Y0056363D02*
X0151200Y0056363D01*
X0151200Y0055765D02*
X0137270Y0055765D01*
X0136671Y0055166D02*
X0151291Y0055166D01*
X0151539Y0054568D02*
X0135602Y0054568D01*
X0131998Y0054568D02*
X0122800Y0054568D01*
X0122800Y0055166D02*
X0130929Y0055166D01*
X0130330Y0055765D02*
X0122800Y0055765D01*
X0122800Y0056363D02*
X0129830Y0056363D01*
X0129582Y0056962D02*
X0122800Y0056962D01*
X0122800Y0057560D02*
X0129335Y0057560D01*
X0129200Y0058159D02*
X0122800Y0058159D01*
X0122800Y0058757D02*
X0129200Y0058757D01*
X0129200Y0059356D02*
X0122800Y0059356D01*
X0122800Y0059954D02*
X0129299Y0059954D01*
X0129547Y0060553D02*
X0122800Y0060553D01*
X0122800Y0061151D02*
X0129795Y0061151D01*
X0130244Y0061750D02*
X0122800Y0061750D01*
X0122800Y0062348D02*
X0130843Y0062348D01*
X0131791Y0062947D02*
X0122800Y0062947D01*
X0122800Y0063545D02*
X0153049Y0063545D01*
X0152714Y0064144D02*
X0122800Y0064144D01*
X0122800Y0064742D02*
X0152466Y0064742D01*
X0152218Y0065341D02*
X0122800Y0065341D01*
X0122800Y0065939D02*
X0152200Y0065939D01*
X0152200Y0066538D02*
X0122800Y0066538D01*
X0122585Y0067136D02*
X0152200Y0067136D01*
X0152415Y0067735D02*
X0121987Y0067735D01*
X0121388Y0068333D02*
X0152663Y0068333D01*
X0152926Y0068932D02*
X0120790Y0068932D01*
X0120191Y0069530D02*
X0153525Y0069530D01*
X0154123Y0070129D02*
X0119593Y0070129D01*
X0118994Y0070727D02*
X0129423Y0070727D01*
X0129850Y0070300D02*
X0127800Y0072350D01*
X0127800Y0075250D01*
X0129850Y0077300D01*
X0132750Y0077300D01*
X0134800Y0075250D01*
X0134800Y0072350D01*
X0132750Y0070300D01*
X0129850Y0070300D01*
X0128824Y0071326D02*
X0118395Y0071326D01*
X0117797Y0071924D02*
X0128226Y0071924D01*
X0127800Y0072523D02*
X0117198Y0072523D01*
X0116600Y0073121D02*
X0127800Y0073121D01*
X0127800Y0073720D02*
X0116001Y0073720D01*
X0115403Y0074318D02*
X0127800Y0074318D01*
X0127800Y0074917D02*
X0114804Y0074917D01*
X0114763Y0075515D02*
X0128066Y0075515D01*
X0128664Y0076114D02*
X0114800Y0076114D01*
X0114800Y0076712D02*
X0129263Y0076712D01*
X0133337Y0076712D02*
X0139263Y0076712D01*
X0138664Y0076114D02*
X0133936Y0076114D01*
X0134534Y0075515D02*
X0138066Y0075515D01*
X0137800Y0074917D02*
X0134800Y0074917D01*
X0134800Y0074318D02*
X0137800Y0074318D01*
X0137800Y0073720D02*
X0134800Y0073720D01*
X0134800Y0073121D02*
X0137800Y0073121D01*
X0137800Y0072523D02*
X0134800Y0072523D01*
X0134374Y0071924D02*
X0138226Y0071924D01*
X0138824Y0071326D02*
X0133776Y0071326D01*
X0133177Y0070727D02*
X0139423Y0070727D01*
X0143177Y0070727D02*
X0155468Y0070727D01*
X0158528Y0072523D02*
X0192000Y0072523D01*
X0192000Y0073121D02*
X0159127Y0073121D01*
X0159710Y0073720D02*
X0192000Y0073720D01*
X0192000Y0074318D02*
X0159958Y0074318D01*
X0160206Y0074917D02*
X0192000Y0074917D01*
X0192000Y0075515D02*
X0160400Y0075515D01*
X0160400Y0076114D02*
X0192000Y0076114D01*
X0192000Y0076712D02*
X0160400Y0076712D01*
X0160360Y0077311D02*
X0192000Y0077311D01*
X0192000Y0077909D02*
X0160112Y0077909D01*
X0159864Y0078508D02*
X0192000Y0078508D01*
X0192000Y0079106D02*
X0159499Y0079106D01*
X0158900Y0079705D02*
X0192000Y0079705D01*
X0192000Y0080303D02*
X0158155Y0080303D01*
X0160742Y0097062D02*
X0192000Y0097062D01*
X0192000Y0097660D02*
X0160615Y0097660D01*
X0160414Y0098259D02*
X0192000Y0098259D01*
X0192000Y0098857D02*
X0160109Y0098857D01*
X0159687Y0099456D02*
X0192000Y0099456D01*
X0192000Y0100054D02*
X0159117Y0100054D01*
X0158270Y0100653D02*
X0192000Y0100653D01*
X0192000Y0101251D02*
X0156500Y0101251D01*
X0158077Y0101850D02*
X0192000Y0101850D01*
X0192000Y0102448D02*
X0159454Y0102448D01*
X0160052Y0103047D02*
X0192000Y0103047D01*
X0192000Y0103645D02*
X0160651Y0103645D01*
X0160927Y0104244D02*
X0192000Y0104244D01*
X0192000Y0104842D02*
X0161175Y0104842D01*
X0161400Y0105441D02*
X0192000Y0105441D01*
X0192000Y0106039D02*
X0161400Y0106039D01*
X0161400Y0106638D02*
X0192000Y0106638D01*
X0192000Y0107237D02*
X0161391Y0107237D01*
X0161143Y0107835D02*
X0192000Y0107835D01*
X0192000Y0108434D02*
X0160895Y0108434D01*
X0160573Y0109032D02*
X0192000Y0109032D01*
X0192000Y0109631D02*
X0159975Y0109631D01*
X0159335Y0110229D02*
X0192000Y0110229D01*
X0192000Y0110828D02*
X0157890Y0110828D01*
X0155710Y0110828D02*
X0078400Y0110828D01*
X0078400Y0111426D02*
X0192000Y0111426D01*
X0192000Y0112025D02*
X0078400Y0112025D01*
X0078231Y0112623D02*
X0192000Y0112623D01*
X0192000Y0113222D02*
X0077983Y0113222D01*
X0077735Y0113820D02*
X0192000Y0113820D01*
X0192000Y0114419D02*
X0077187Y0114419D01*
X0076588Y0115017D02*
X0192000Y0115017D01*
X0192000Y0115616D02*
X0075401Y0115616D01*
X0074987Y0116813D02*
X0192000Y0116813D01*
X0192000Y0117411D02*
X0076417Y0117411D01*
X0076406Y0117400D02*
X0077700Y0118694D01*
X0078400Y0120385D01*
X0078400Y0122215D01*
X0077700Y0123906D01*
X0076406Y0125200D01*
X0074715Y0125900D01*
X0072885Y0125900D01*
X0071194Y0125200D01*
X0069900Y0123906D01*
X0069200Y0122215D01*
X0069200Y0120385D01*
X0069900Y0118694D01*
X0071194Y0117400D01*
X0072885Y0116700D01*
X0074715Y0116700D01*
X0076406Y0117400D01*
X0077015Y0118010D02*
X0192000Y0118010D01*
X0192000Y0118608D02*
X0077614Y0118608D01*
X0077912Y0119207D02*
X0192000Y0119207D01*
X0192000Y0119805D02*
X0078160Y0119805D01*
X0078400Y0120404D02*
X0192000Y0120404D01*
X0192000Y0121002D02*
X0078400Y0121002D01*
X0078400Y0121601D02*
X0192000Y0121601D01*
X0192000Y0122199D02*
X0078400Y0122199D01*
X0078159Y0122798D02*
X0192000Y0122798D01*
X0192000Y0123396D02*
X0077911Y0123396D01*
X0077611Y0123995D02*
X0192000Y0123995D01*
X0192000Y0124593D02*
X0077012Y0124593D01*
X0076414Y0125192D02*
X0192000Y0125192D01*
X0192000Y0125790D02*
X0074980Y0125790D01*
X0072620Y0125790D02*
X0036001Y0125790D01*
X0036950Y0125192D02*
X0071186Y0125192D01*
X0070588Y0124593D02*
X0037578Y0124593D01*
X0038022Y0123995D02*
X0069989Y0123995D01*
X0069689Y0123396D02*
X0038344Y0123396D01*
X0038571Y0122798D02*
X0069441Y0122798D01*
X0069200Y0122199D02*
X0038720Y0122199D01*
X0038800Y0121601D02*
X0069200Y0121601D01*
X0069200Y0121002D02*
X0034100Y0121002D01*
X0034100Y0121000D02*
X0038800Y0121000D01*
X0038800Y0120906D01*
X0038677Y0120129D01*
X0038434Y0119381D01*
X0038076Y0118679D01*
X0037614Y0118043D01*
X0037057Y0117486D01*
X0036421Y0117024D01*
X0035719Y0116666D01*
X0034971Y0116423D01*
X0034194Y0116300D01*
X0034100Y0116300D01*
X0034100Y0121000D01*
X0034100Y0120404D02*
X0033500Y0120404D01*
X0033500Y0121002D02*
X0024960Y0121002D01*
X0025208Y0120404D02*
X0028880Y0120404D01*
X0029028Y0119805D02*
X0025456Y0119805D01*
X0025703Y0119207D02*
X0029255Y0119207D01*
X0029575Y0118608D02*
X0025951Y0118608D01*
X0026100Y0118010D02*
X0030019Y0118010D01*
X0030646Y0117411D02*
X0026100Y0117411D01*
X0026100Y0116813D02*
X0031593Y0116813D01*
X0031257Y0115616D02*
X0026100Y0115616D01*
X0026100Y0116214D02*
X0032865Y0116214D01*
X0033406Y0116300D02*
X0033500Y0116300D01*
X0033406Y0116300D01*
X0033500Y0116214D02*
X0034100Y0116214D01*
X0034100Y0115616D02*
X0033500Y0115616D01*
X0033500Y0115017D02*
X0034100Y0115017D01*
X0034100Y0114419D02*
X0033500Y0114419D01*
X0033500Y0113820D02*
X0034100Y0113820D01*
X0034100Y0113222D02*
X0033500Y0113222D01*
X0033500Y0112623D02*
X0034100Y0112623D01*
X0034100Y0112025D02*
X0033500Y0112025D01*
X0033500Y0110229D02*
X0034100Y0110229D01*
X0034100Y0109631D02*
X0033500Y0109631D01*
X0033500Y0109032D02*
X0034100Y0109032D01*
X0034100Y0108434D02*
X0033500Y0108434D01*
X0033500Y0107835D02*
X0034100Y0107835D01*
X0034100Y0107237D02*
X0033500Y0107237D01*
X0033500Y0106638D02*
X0034100Y0106638D01*
X0031968Y0106638D02*
X0018582Y0106638D01*
X0020027Y0107237D02*
X0030886Y0107237D01*
X0028852Y0112025D02*
X0025137Y0112025D01*
X0025384Y0112623D02*
X0028973Y0112623D01*
X0029167Y0113222D02*
X0025632Y0113222D01*
X0025880Y0113820D02*
X0029472Y0113820D01*
X0029885Y0114419D02*
X0026100Y0114419D01*
X0026100Y0115017D02*
X0030446Y0115017D01*
X0033500Y0116813D02*
X0034100Y0116813D01*
X0034100Y0117411D02*
X0033500Y0117411D01*
X0033500Y0118010D02*
X0034100Y0118010D01*
X0034100Y0118608D02*
X0033500Y0118608D01*
X0033500Y0119207D02*
X0034100Y0119207D01*
X0034100Y0119805D02*
X0033500Y0119805D01*
X0033500Y0121601D02*
X0034100Y0121601D01*
X0034100Y0122199D02*
X0033500Y0122199D01*
X0033500Y0122798D02*
X0034100Y0122798D01*
X0034100Y0123396D02*
X0033500Y0123396D01*
X0033500Y0123995D02*
X0034100Y0123995D01*
X0034100Y0124593D02*
X0033500Y0124593D01*
X0033500Y0125192D02*
X0034100Y0125192D01*
X0034100Y0125790D02*
X0033500Y0125790D01*
X0031599Y0125790D02*
X0018997Y0125790D01*
X0020442Y0125192D02*
X0030650Y0125192D01*
X0030022Y0124593D02*
X0021866Y0124593D01*
X0022464Y0123995D02*
X0029578Y0123995D01*
X0029256Y0123396D02*
X0023063Y0123396D01*
X0023661Y0122798D02*
X0029029Y0122798D01*
X0028880Y0122199D02*
X0024260Y0122199D01*
X0024712Y0121601D02*
X0028800Y0121601D01*
X0034735Y0116214D02*
X0192000Y0116214D01*
X0192000Y0126389D02*
X0005600Y0126389D01*
X0005600Y0126987D02*
X0192000Y0126987D01*
X0192000Y0127586D02*
X0005600Y0127586D01*
X0005600Y0128184D02*
X0192000Y0128184D01*
X0192000Y0128783D02*
X0005600Y0128783D01*
X0005600Y0129381D02*
X0192000Y0129381D01*
X0192000Y0129980D02*
X0005600Y0129980D01*
X0005600Y0125790D02*
X0013603Y0125790D01*
X0012158Y0125192D02*
X0005600Y0125192D01*
X0005600Y0124593D02*
X0010734Y0124593D01*
X0010136Y0123995D02*
X0005600Y0123995D01*
X0005600Y0123396D02*
X0009537Y0123396D01*
X0008939Y0122798D02*
X0005600Y0122798D01*
X0005600Y0122199D02*
X0008340Y0122199D01*
X0007888Y0121601D02*
X0005600Y0121601D01*
X0005600Y0121002D02*
X0007640Y0121002D01*
X0007392Y0120404D02*
X0005600Y0120404D01*
X0005600Y0119805D02*
X0007144Y0119805D01*
X0006897Y0119207D02*
X0005600Y0119207D01*
X0005600Y0118608D02*
X0006649Y0118608D01*
X0006500Y0118010D02*
X0005600Y0118010D01*
X0005600Y0117411D02*
X0006500Y0117411D01*
X0006500Y0116813D02*
X0005600Y0116813D01*
X0005600Y0116214D02*
X0006500Y0116214D01*
X0006500Y0115616D02*
X0005600Y0115616D01*
X0005600Y0115017D02*
X0006500Y0115017D01*
X0006500Y0114419D02*
X0005600Y0114419D01*
X0005600Y0113820D02*
X0006720Y0113820D01*
X0006968Y0113222D02*
X0005600Y0113222D01*
X0005600Y0112623D02*
X0007216Y0112623D01*
X0007463Y0112025D02*
X0005600Y0112025D01*
X0005600Y0111426D02*
X0007711Y0111426D01*
X0007959Y0110828D02*
X0005600Y0110828D01*
X0005600Y0110229D02*
X0008512Y0110229D01*
X0009110Y0109631D02*
X0005600Y0109631D01*
X0005600Y0109032D02*
X0009709Y0109032D01*
X0010307Y0108434D02*
X0005600Y0108434D01*
X0005600Y0107835D02*
X0011128Y0107835D01*
X0012573Y0107237D02*
X0005600Y0107237D01*
X0005600Y0106638D02*
X0014018Y0106638D01*
X0036343Y0115616D02*
X0072199Y0115616D01*
X0072613Y0116813D02*
X0036007Y0116813D01*
X0036954Y0117411D02*
X0071183Y0117411D01*
X0070585Y0118010D02*
X0037581Y0118010D01*
X0038025Y0118608D02*
X0069986Y0118608D01*
X0069688Y0119207D02*
X0038345Y0119207D01*
X0038572Y0119805D02*
X0069440Y0119805D01*
X0069200Y0120404D02*
X0038720Y0120404D01*
X0037154Y0115017D02*
X0071012Y0115017D01*
X0070413Y0114419D02*
X0037715Y0114419D01*
X0038128Y0113820D02*
X0069865Y0113820D01*
X0069617Y0113222D02*
X0038433Y0113222D01*
X0038627Y0112623D02*
X0069369Y0112623D01*
X0069200Y0112025D02*
X0038748Y0112025D01*
X0075300Y0106638D02*
X0152200Y0106638D01*
X0152200Y0106039D02*
X0075300Y0106039D01*
X0076010Y0107237D02*
X0152209Y0107237D01*
X0152457Y0107835D02*
X0076840Y0107835D01*
X0077439Y0108434D02*
X0152705Y0108434D01*
X0153027Y0109032D02*
X0077840Y0109032D01*
X0078087Y0109631D02*
X0153625Y0109631D01*
X0154265Y0110229D02*
X0078335Y0110229D01*
X0111000Y0089880D02*
X0111600Y0089880D01*
X0111600Y0089281D02*
X0111000Y0089281D01*
X0111000Y0088683D02*
X0111600Y0088683D01*
X0111600Y0088084D02*
X0111000Y0088084D01*
X0111000Y0087486D02*
X0111600Y0087486D01*
X0111600Y0086887D02*
X0111000Y0086887D01*
X0111000Y0085092D02*
X0111600Y0085092D01*
X0111600Y0084493D02*
X0111000Y0084493D01*
X0111000Y0083895D02*
X0111600Y0083895D01*
X0111600Y0083296D02*
X0111000Y0083296D01*
X0111000Y0082698D02*
X0111600Y0082698D01*
X0109806Y0082698D02*
X0005600Y0082698D01*
X0005600Y0083296D02*
X0077831Y0083296D01*
X0084769Y0083296D02*
X0108789Y0083296D01*
X0108217Y0083895D02*
X0084800Y0083895D01*
X0084800Y0084493D02*
X0107827Y0084493D01*
X0107579Y0085092D02*
X0084800Y0085092D01*
X0084800Y0085690D02*
X0107445Y0085690D01*
X0135809Y0062947D02*
X0153648Y0062947D01*
X0154320Y0062348D02*
X0136757Y0062348D01*
X0122800Y0053969D02*
X0151787Y0053969D01*
X0152224Y0053370D02*
X0122800Y0053370D01*
X0122800Y0052772D02*
X0152823Y0052772D01*
X0153742Y0052173D02*
X0122800Y0052173D01*
X0122800Y0051575D02*
X0192000Y0051575D01*
X0192000Y0052173D02*
X0157858Y0052173D01*
X0158777Y0052772D02*
X0192000Y0052772D01*
X0192000Y0053370D02*
X0159376Y0053370D01*
X0159813Y0053969D02*
X0192000Y0053969D01*
X0192000Y0054568D02*
X0160061Y0054568D01*
X0160309Y0055166D02*
X0192000Y0055166D01*
X0192000Y0055765D02*
X0160400Y0055765D01*
X0160400Y0056363D02*
X0192000Y0056363D01*
X0192000Y0056962D02*
X0160400Y0056962D01*
X0160257Y0057560D02*
X0192000Y0057560D01*
X0192000Y0058159D02*
X0160009Y0058159D01*
X0159761Y0058757D02*
X0192000Y0058757D01*
X0192000Y0059356D02*
X0159250Y0059356D01*
X0158651Y0059954D02*
X0192000Y0059954D01*
X0192000Y0040203D02*
X0160791Y0040203D01*
X0160800Y0039605D02*
X0192000Y0039605D01*
X0192000Y0039006D02*
X0160800Y0039006D01*
X0160800Y0038408D02*
X0192000Y0038408D01*
X0192000Y0037809D02*
X0160800Y0037809D01*
X0160800Y0037211D02*
X0192000Y0037211D01*
X0192000Y0080902D02*
X0005600Y0080902D01*
D21*
X0101300Y0101300D02*
X0103800Y0101300D01*
X0111300Y0093800D01*
X0111300Y0086300D01*
M02*
